<svg width="46px" height="20px" viewBox="0 0 46 20" version="1.1" xmlns="http://www.w3.org/2000/svg" xmlns:xlink="http://www.w3.org/1999/xlink" xmlns:sketch="http://www.bohemiancoding.com/sketch/ns">
    <g id="Page-1" stroke="none" stroke-width="1" fill="none" fill-rule="evenodd" sketch:type="MSPage">
        <path d="M35.705,14.072 C37.128,14.072 38.284,15.229 38.284,16.652 C38.284,18.074 37.128,19.232 35.705,19.232 C34.282,19.232 33.123,18.074 33.123,16.652 C33.123,15.229 34.282,14.072 35.705,14.072 L35.705,14.072 Z M35.705,17.75 C36.311,17.75 36.803,17.257 36.803,16.652 C36.803,16.047 36.311,15.554 35.705,15.554 C35.099,15.554 34.606,16.047 34.606,16.652 C34.606,17.257 35.099,17.75 35.705,17.75 L35.705,17.75 Z M2.981,0 L36.509,0.006 C37.629,0.006 38.914,0.626 40.14,1.686 L42.229,1.687 C43.952,1.687 44.979,3.045 45.807,4.318 C46.001,4.618 45.917,5.019 45.616,5.215 C45.507,5.286 45.385,5.32 45.264,5.32 C45.052,5.32 44.844,5.216 44.72,5.025 C43.879,3.731 43.202,2.983 42.229,2.983 L41.417,2.983 C42.908,4.728 44.167,8.784 44.702,11.414 L44.702,14.242 C44.702,15.707 43.515,16.894 42.049,16.894 L39.424,16.887 C39.424,16.887 39.425,16.731 39.425,16.652 C39.425,14.601 37.756,12.932 35.705,12.932 C33.653,12.932 31.984,14.601 31.984,16.652 C31.984,16.725 31.983,16.869 31.983,16.869 C31.983,16.869 23.124,16.85 18.577,16.842 C18.58,16.779 18.587,16.716 18.587,16.652 C18.587,14.601 16.918,12.932 14.867,12.932 C12.815,12.932 11.146,14.601 11.146,16.652 C11.146,16.713 11.144,16.832 11.144,16.832 L9.805,16.832 C9.805,16.831 9.803,16.713 9.803,16.652 C9.803,14.601 8.134,12.932 6.084,12.932 C4.031,12.932 2.362,14.601 2.362,16.652 C2.362,16.718 2.361,16.858 2.361,16.858 C2.361,16.858 2.215,16.85 2.215,16.853 C0.959,16.645 0,15.558 0,14.242 L0,7.335 C0.595,4.142 1.03,0 2.981,0 L2.981,0 Z M43.12,14.7 C43.161,14.554 43.188,14.401 43.188,14.242 L43.188,13.176 C42.023,13.205 41.302,13.844 41.295,14.264 C41.288,14.675 42.122,14.695 43.12,14.7 L43.12,14.7 Z M31.553,8.027 L32.644,8.027 C36.124,8.028 41.082,11.264 43.163,11.306 C42.574,8.626 41.314,5.116 40.29,3.945 C38.784,2.224 37.536,1.487 36.509,1.487 L31.553,1.487 L31.553,8.027 L31.553,8.027 Z M1.482,8.033 L30.072,8.027 L30.072,1.487 L3.235,1.482 C2.951,1.526 2.693,2 2.458,2.71 C2.118,3.831 1.843,5.409 1.681,6.343 C1.615,6.725 1.549,7.104 1.482,7.471 L1.482,8.033 L1.482,8.033 Z M6.084,14.072 C7.506,14.072 8.663,15.229 8.663,16.652 C8.663,18.074 7.506,19.232 6.084,19.232 C4.66,19.232 3.502,18.074 3.502,16.652 C3.502,15.229 4.66,14.072 6.084,14.072 L6.084,14.072 Z M6.084,17.75 C6.689,17.75 7.181,17.257 7.181,16.652 C7.181,16.047 6.689,15.554 6.084,15.554 C5.477,15.554 4.984,16.047 4.984,16.652 C4.984,17.257 5.477,17.75 6.084,17.75 L6.084,17.75 Z M14.867,14.072 C16.29,14.072 17.446,15.229 17.446,16.652 C17.446,18.074 16.29,19.232 14.867,19.232 C13.444,19.232 12.286,18.074 12.286,16.652 C12.286,15.229 13.444,14.072 14.867,14.072 L14.867,14.072 Z M14.867,17.75 C15.473,17.75 15.965,17.257 15.965,16.652 C15.965,16.047 15.473,15.554 14.867,15.554 C14.261,15.554 13.768,16.047 13.768,16.652 C13.768,17.257 14.261,17.75 14.867,17.75 L14.867,17.75 Z" id="bus" fill="#2B3B4D" sketch:type="MSShapeGroup"></path>
    </g>
</svg>