<svg width="66px" height="58px" viewBox="0 0 66 58" version="1.1" xmlns="http://www.w3.org/2000/svg" xmlns:xlink="http://www.w3.org/1999/xlink" xmlns:sketch="http://www.bohemiancoding.com/sketch/ns">
    <g id="Page-1" stroke="none" stroke-width="1" fill="none" fill-rule="evenodd" sketch:type="MSPage">
        <g id="i-1" sketch:type="MSLayerGroup" transform="translate(1.000000, 1.000000)" fill="#0B0B0A">
            <path d="M61.802,3.863 L53.802,3.863 L53.802,1.863 C53.802,0.759 52.906,-0.137 51.802,-0.137 L45.802,-0.137 C44.697,-0.137 43.802,0.759 43.802,1.863 L43.802,3.863 L19.802,3.863 L19.802,1.863 C19.802,0.759 18.906,-0.137 17.802,-0.137 L11.802,-0.137 C10.697,-0.137 9.802,0.759 9.802,1.863 L9.802,3.863 L1.802,3.863 C0.697,3.863 -0.198,4.759 -0.198,5.863 L-0.198,53.863 C-0.198,54.968 0.697,55.863 1.802,55.863 L61.802,55.863 C62.906,55.863 63.802,54.968 63.802,53.863 L63.802,5.863 C63.802,4.759 62.906,3.863 61.802,3.863 L61.802,3.863 Z M47.802,3.863 L49.802,3.863 L49.802,7.863 L47.802,7.863 L47.802,3.863 Z M13.802,3.863 L15.802,3.863 L15.802,7.863 L13.802,7.863 L13.802,3.863 Z M59.802,51.863 L3.802,51.863 L3.802,7.863 L9.802,7.863 L9.802,9.863 C9.802,10.968 10.697,11.863 11.802,11.863 L17.802,11.863 C18.906,11.863 19.802,10.968 19.802,9.863 L19.802,7.863 L43.802,7.863 L43.802,9.863 C43.802,10.968 44.697,11.863 45.802,11.863 L51.802,11.863 C52.906,11.863 53.802,10.968 53.802,9.863 L53.802,7.863 L59.802,7.863 L59.802,51.863 L59.802,51.863 Z" id="Fill-1" sketch:type="MSShapeGroup"></path>
            <path d="M19.802,19.863 L11.802,19.863 C10.697,19.863 9.802,20.759 9.802,21.863 L9.802,29.863 C9.802,30.968 10.697,31.863 11.802,31.863 L19.802,31.863 C20.906,31.863 21.802,30.968 21.802,29.863 L21.802,21.863 C21.802,20.759 20.906,19.863 19.802,19.863 L19.802,19.863 Z M13.802,23.863 L17.802,23.863 L17.802,27.863 L13.802,27.863 L13.802,23.863 Z" id="Fill-2" sketch:type="MSShapeGroup"></path>
            <path d="M35.802,19.863 L27.802,19.863 C26.697,19.863 25.802,20.759 25.802,21.863 L25.802,29.863 C25.802,30.968 26.697,31.863 27.802,31.863 L35.802,31.863 C36.906,31.863 37.802,30.968 37.802,29.863 L37.802,21.863 C37.802,20.759 36.906,19.863 35.802,19.863 L35.802,19.863 Z M29.802,23.863 L33.802,23.863 L33.802,27.863 L29.802,27.863 L29.802,23.863 Z" id="Fill-3" sketch:type="MSShapeGroup"></path>
            <path d="M51.802,19.863 L43.802,19.863 C42.697,19.863 41.802,20.759 41.802,21.863 L41.802,29.863 C41.802,30.968 42.697,31.863 43.802,31.863 L51.802,31.863 C52.906,31.863 53.802,30.968 53.802,29.863 L53.802,21.863 C53.802,20.759 52.906,19.863 51.802,19.863 L51.802,19.863 Z M45.802,23.863 L49.802,23.863 L49.802,27.863 L45.802,27.863 L45.802,23.863 Z" id="Fill-4" sketch:type="MSShapeGroup"></path>
            <path d="M19.802,35.863 L11.802,35.863 C10.697,35.863 9.802,36.759 9.802,37.863 L9.802,45.863 C9.802,46.968 10.697,47.863 11.802,47.863 L19.802,47.863 C20.906,47.863 21.802,46.968 21.802,45.863 L21.802,37.863 C21.802,36.759 20.906,35.863 19.802,35.863 L19.802,35.863 Z M13.802,39.863 L17.802,39.863 L17.802,43.863 L13.802,43.863 L13.802,39.863 Z" id="Fill-5" sketch:type="MSShapeGroup"></path>
            <path d="M35.802,35.863 L27.802,35.863 C26.697,35.863 25.802,36.759 25.802,37.863 L25.802,45.863 C25.802,46.968 26.697,47.863 27.802,47.863 L35.802,47.863 C36.906,47.863 37.802,46.968 37.802,45.863 L37.802,37.863 C37.802,36.759 36.906,35.863 35.802,35.863 L35.802,35.863 Z M29.802,39.863 L33.802,39.863 L33.802,43.863 L29.802,43.863 L29.802,39.863 Z" id="Fill-6" sketch:type="MSShapeGroup"></path>
            <path d="M51.802,35.863 L43.802,35.863 C42.697,35.863 41.802,36.759 41.802,37.863 L41.802,45.863 C41.802,46.968 42.697,47.863 43.802,47.863 L51.802,47.863 C52.906,47.863 53.802,46.968 53.802,45.863 L53.802,37.863 C53.802,36.759 52.906,35.863 51.802,35.863 L51.802,35.863 Z M45.802,39.863 L49.802,39.863 L49.802,43.863 L45.802,43.863 L45.802,39.863 Z" id="Fill-7" sketch:type="MSShapeGroup"></path>
        </g>
    </g>
</svg>