<svg width="66px" height="66px" viewBox="0 0 66 66" version="1.1" xmlns="http://www.w3.org/2000/svg" xmlns:xlink="http://www.w3.org/1999/xlink" xmlns:sketch="http://www.bohemiancoding.com/sketch/ns">
    <!-- Generator: Sketch 3.0.4 (8053) - http://www.bohemiancoding.com/sketch -->
    <title>i-2</title>
    <desc>Created with Sketch.</desc>
    <defs></defs>
    <g id="Page-1" stroke="none" stroke-width="1" fill="none" fill-rule="evenodd" sketch:type="MSPage">
        <g id="i-2" sketch:type="MSLayerGroup" transform="translate(1.000000, 1.000000)" fill="#0B0B0A">
            <path d="M1.802,39.863 L8.36,39.863 L9.515,43.323 L4.388,48.449 C3.606,49.231 3.606,50.496 4.388,51.277 L12.388,59.277 C13.169,60.059 14.437,60.059 15.216,59.277 L20.343,54.151 L23.802,55.305 L23.802,61.863 C23.802,62.968 24.698,63.863 25.802,63.863 L37.802,63.863 C38.907,63.863 39.802,62.968 39.802,61.863 L39.802,55.305 L43.263,54.151 L48.388,59.277 C49.169,60.059 50.437,60.059 51.216,59.277 L59.216,51.277 C59.997,50.496 59.997,49.231 59.216,48.449 L54.091,43.323 L55.243,39.863 L61.802,39.863 C62.907,39.863 63.802,38.968 63.802,37.863 L63.802,25.863 C63.802,24.759 62.907,23.863 61.802,23.863 L55.243,23.863 L54.091,20.403 L59.216,15.277 C59.997,14.496 59.997,13.231 59.216,12.449 L51.216,4.449 C50.437,3.668 49.169,3.668 48.388,4.449 L43.263,9.575 L39.802,8.422 L39.802,1.863 C39.802,0.759 38.907,-0.137 37.802,-0.137 L25.802,-0.137 C24.698,-0.137 23.802,0.759 23.802,1.863 L23.802,8.422 L20.343,9.575 L15.216,4.449 C14.437,3.668 13.169,3.668 12.388,4.449 L4.388,12.449 C3.606,13.231 3.606,14.496 4.388,15.277 L9.515,20.403 L8.36,23.863 L1.802,23.863 C0.698,23.863 -0.198,24.759 -0.198,25.863 L-0.198,37.863 C-0.198,38.968 0.698,39.863 1.802,39.863 L1.802,39.863 Z M3.802,27.863 L9.802,27.863 C10.663,27.863 11.427,27.312 11.7,26.496 L13.7,20.496 C13.938,19.777 13.752,18.984 13.216,18.449 L8.631,13.863 L13.802,8.691 L18.388,13.277 C18.923,13.812 19.716,13.999 20.435,13.761 L26.435,11.761 C27.251,11.488 27.802,10.725 27.802,9.863 L27.802,3.863 L35.802,3.863 L35.802,9.863 C35.802,10.725 36.353,11.488 37.17,11.761 L43.17,13.761 C43.89,14 44.681,13.814 45.216,13.277 L49.802,8.691 L54.974,13.863 L50.388,18.449 C49.853,18.984 49.665,19.777 49.905,20.496 L51.905,26.496 C52.177,27.312 52.941,27.863 53.802,27.863 L59.802,27.863 L59.802,35.863 L53.802,35.863 C52.941,35.863 52.177,36.414 51.905,37.231 L49.905,43.231 C49.665,43.949 49.853,44.742 50.388,45.277 L54.974,49.863 L49.802,55.035 L45.216,50.449 C44.681,49.913 43.888,49.726 43.17,49.966 L37.17,51.966 C36.353,52.238 35.802,53.002 35.802,53.863 L35.802,59.863 L27.802,59.863 L27.802,53.863 C27.802,53.002 27.251,52.238 26.435,51.966 L20.435,49.966 C19.718,49.727 18.924,49.914 18.388,50.449 L13.802,55.035 L8.631,49.863 L13.216,45.277 C13.752,44.742 13.938,43.949 13.7,43.231 L11.7,37.231 C11.427,36.414 10.663,35.863 9.802,35.863 L3.802,35.863 L3.802,27.863 L3.802,27.863 Z" id="Fill-1" sketch:type="MSShapeGroup"></path>
            <path d="M31.802,39.863 C36.214,39.863 39.802,36.274 39.802,31.863 C39.802,27.452 36.214,23.863 31.802,23.863 C27.392,23.863 23.802,27.452 23.802,31.863 C23.802,36.274 27.392,39.863 31.802,39.863 L31.802,39.863 Z M31.802,27.863 C34.008,27.863 35.802,29.658 35.802,31.863 C35.802,34.068 34.008,35.863 31.802,35.863 C29.597,35.863 27.802,34.068 27.802,31.863 C27.802,29.658 29.597,27.863 31.802,27.863 L31.802,27.863 Z" id="Fill-2" sketch:type="MSShapeGroup"></path>
        </g>
    </g>
</svg>