<svg width="66px" height="66px" viewBox="0 0 66 66" version="1.1" xmlns="http://www.w3.org/2000/svg" xmlns:xlink="http://www.w3.org/1999/xlink" xmlns:sketch="http://www.bohemiancoding.com/sketch/ns">
    <g id="Page-1" stroke="none" stroke-width="1" fill="none" fill-rule="evenodd" sketch:type="MSPage">
        <g id="i-3" sketch:type="MSLayerGroup" transform="translate(1.000000, 1.000000)" fill="#0B0B0A">
            <path d="M31.802,-0.137 C23.255,-0.137 15.219,3.192 9.175,9.236 C3.131,15.281 -0.198,23.316 -0.198,31.863 C-0.198,40.41 3.131,48.445 9.175,54.489 C15.219,60.534 23.255,63.863 31.802,63.863 C40.35,63.863 48.386,60.534 54.429,54.49 C60.474,48.445 63.803,40.41 63.803,31.863 C63.803,23.316 60.474,15.281 54.43,9.237 C48.386,3.192 40.35,-0.137 31.802,-0.137 L31.802,-0.137 Z M51.601,51.661 C46.313,56.951 39.28,59.863 31.802,59.863 C24.323,59.863 17.292,56.951 12.003,51.66 C6.714,46.373 3.802,39.342 3.802,31.863 C3.802,24.385 6.714,17.354 12.004,12.065 C17.292,6.775 24.323,3.863 31.802,3.863 C39.28,3.863 46.313,6.775 51.601,12.066 C56.89,17.354 59.803,24.385 59.803,31.863 C59.803,39.342 56.89,46.373 51.601,51.661 L51.601,51.661 Z" id="Fill-1" sketch:type="MSShapeGroup"></path>
            <path d="M31.802,7.863 C25.392,7.863 19.364,10.359 14.833,14.894 C10.299,19.427 7.802,25.453 7.802,31.863 C7.802,32.968 8.698,33.863 9.802,33.863 C10.907,33.863 11.802,32.968 11.802,31.863 C11.802,26.521 13.883,21.5 17.661,17.722 C21.438,13.943 26.46,11.863 31.802,11.863 C37.144,11.863 42.167,13.943 45.944,17.722 C49.722,21.5 51.802,26.521 51.802,31.863 C51.802,32.968 52.698,33.863 53.802,33.863 C54.907,33.863 55.802,32.968 55.802,31.863 C55.802,25.454 53.306,19.428 48.773,14.894 C44.24,10.359 38.213,7.863 31.802,7.863" id="Fill-2" sketch:type="MSShapeGroup"></path>
            <path d="M31.802,30.863 C31.527,30.863 31.258,30.892 30.995,30.945 L25.297,24.535 C24.563,23.709 23.299,23.635 22.474,24.369 C21.648,25.103 21.573,26.366 22.308,27.191 L28.019,33.616 C27.886,34.021 27.8,34.442 27.802,34.881 C27.807,35.949 28.228,36.951 28.985,37.703 C29.74,38.451 30.74,38.863 31.803,38.863 C32.878,38.863 33.886,38.443 34.644,37.679 C36.194,36.111 36.184,33.574 34.619,32.023 C33.865,31.275 32.864,30.863 31.802,30.863" id="Fill-3" sketch:type="MSShapeGroup"></path>
        </g>
    </g>
</svg>