<svg width="47px" height="65px" viewBox="0 0 47 65" version="1.1" xmlns="http://www.w3.org/2000/svg" xmlns:xlink="http://www.w3.org/1999/xlink" xmlns:sketch="http://www.bohemiancoding.com/sketch/ns">
    <!-- Generator: Sketch 3.0.4 (8053) - http://www.bohemiancoding.com/sketch -->
    <title>i-4</title>
    <desc>Created with Sketch.</desc>
    <defs></defs>
    <g id="Page-1" stroke="none" stroke-width="1" fill="none" fill-rule="evenodd" sketch:type="MSPage">
        <g id="i-4" sketch:type="MSLayerGroup" transform="translate(1.000000, 1.000000)" fill="#0B0B0A">
            <path d="M30.802,22.863 C30.802,18.452 27.213,14.863 22.802,14.863 C18.391,14.863 14.802,18.452 14.802,22.863 C14.802,27.274 18.391,30.863 22.802,30.863 C27.213,30.863 30.802,27.274 30.802,22.863 L30.802,22.863 Z M18.802,22.863 C18.802,20.658 20.596,18.863 22.802,18.863 C25.008,18.863 26.802,20.658 26.802,22.863 C26.802,25.069 25.008,26.863 22.802,26.863 C20.596,26.863 18.802,25.069 18.802,22.863 L18.802,22.863 Z" id="Fill-1" sketch:type="MSShapeGroup"></path>
            <path d="M22.768,63.863 C23.342,63.863 23.888,63.617 24.268,63.186 C25.149,62.185 45.873,38.504 45.802,22.888 C45.744,10.192 35.427,-0.137 22.802,-0.137 C10.119,-0.137 -0.198,10.196 -0.198,22.898 C-0.198,38.504 20.387,62.181 21.264,63.181 C21.644,63.614 22.162,63.849 22.768,63.863 L22.768,63.863 Z M22.802,3.863 C33.231,3.863 41.754,12.406 41.802,22.907 C41.856,34.731 27.521,53.029 22.773,58.762 C18.048,53.024 3.802,34.735 3.802,22.898 C3.802,12.402 12.325,3.863 22.802,3.863 L22.802,3.863 Z" id="Fill-2" sketch:type="MSShapeGroup"></path>
        </g>
    </g>
</svg>