<svg width="50px" height="66px" viewBox="0 0 50 66" version="1.1" xmlns="http://www.w3.org/2000/svg" xmlns:xlink="http://www.w3.org/1999/xlink" xmlns:sketch="http://www.bohemiancoding.com/sketch/ns">
    <g id="Page-1" stroke="none" stroke-width="1" fill="none" fill-rule="evenodd" sketch:type="MSPage">
        <g id="i-5" sketch:type="MSLayerGroup" transform="translate(1.000000, 1.000000)" fill="#0B0B0A">
            <path d="M45.802,63.863 C46.906,63.863 47.802,62.968 47.802,61.863 L47.802,7.863 C47.802,6.759 46.906,5.863 45.802,5.863 L36.038,5.863 L33.591,0.969 C33.252,0.291 32.56,-0.137 31.802,-0.137 L15.802,-0.137 C15.044,-0.137 14.352,0.291 14.013,0.969 L11.565,5.863 L1.802,5.863 C0.697,5.863 -0.198,6.759 -0.198,7.863 L-0.198,61.863 C-0.198,62.968 0.697,63.863 1.802,63.863 L45.802,63.863 L45.802,63.863 Z M17.038,3.863 L30.565,3.863 L34.565,11.863 L13.038,11.863 L17.038,3.863 L17.038,3.863 Z M3.802,9.863 L9.565,9.863 L8.013,12.969 C7.703,13.589 7.736,14.325 8.101,14.914 C8.465,15.504 9.108,15.863 9.802,15.863 L37.802,15.863 L37.821,15.863 C38.927,15.863 39.821,14.968 39.821,13.863 C39.821,13.445 39.693,13.058 39.475,12.736 L38.038,9.863 L43.802,9.863 L43.802,59.863 L3.802,59.863 L3.802,9.863 L3.802,9.863 Z" id="Fill-1" sketch:type="MSShapeGroup"></path>
            <path d="M30.388,28.449 L21.802,37.035 L17.216,32.449 C16.435,31.668 15.169,31.668 14.388,32.449 C13.606,33.231 13.606,34.496 14.388,35.277 L20.388,41.277 C20.778,41.668 21.29,41.863 21.802,41.863 C22.313,41.863 22.825,41.668 23.216,41.277 L33.216,31.277 C33.997,30.496 33.997,29.231 33.216,28.449 C32.435,27.668 31.169,27.668 30.388,28.449" id="Fill-2" sketch:type="MSShapeGroup"></path>
        </g>
    </g>
</svg>