<?xml version="1.0" encoding="UTF-8" standalone="no"?>
<svg width="50px" height="31px" viewBox="0 0 50 31" version="1.1" xmlns="http://www.w3.org/2000/svg" xmlns:xlink="http://www.w3.org/1999/xlink" xmlns:sketch="http://www.bohemiancoding.com/sketch/ns">
    <!-- Generator: Sketch 3.0.4 (8053) - http://www.bohemiancoding.com/sketch -->
    <title>p-1</title>
    <desc>Created with Sketch.</desc>
    <defs></defs>
    <g id="Page-1" stroke="none" stroke-width="1" fill="none" fill-rule="evenodd" sketch:type="MSPage">
        <g id="p-1" sketch:type="MSLayerGroup" fill="#2B3B4D">
            <path d="M36.0266055,26.6576515 L35.3665138,26.6576515 L35.0366972,27.2419545 L35.3665138,27.8262576 L36.0266055,27.8262576 L36.3550459,27.2419545 L36.0266055,26.6576515 L36.0266055,26.6576515 Z M35.6954128,27.5355152 C35.5376147,27.5355152 35.4082569,27.404 35.4082569,27.2419545 C35.4082569,27.0799091 35.5376147,26.9479242 35.6954128,26.9479242 C35.8550459,26.9479242 35.983945,27.0799091 35.983945,27.2419545 C35.983945,27.404 35.8550459,27.5355152 35.6954128,27.5355152 L35.6954128,27.5355152 Z" id="Fill-1" sketch:type="MSShapeGroup"></path>
            <path id="Fill-2" sketch:type="MSShapeGroup" d="M35.8233945,26.1569545 L35.9509174,25.9324394 L35.8233945,25.7065152 L35.5688073,25.7065152 L35.4417431,25.9324394 L35.5688073,26.1569545 L35.8233945,26.1569545"></path>
            <path id="Fill-3" sketch:type="MSShapeGroup" d="M35.5688073,28.3260152 L35.4417431,28.5514697 L35.5688073,28.7773939 L35.8233945,28.7773939 L35.9509174,28.5514697 L35.8233945,28.3260152 L35.5688073,28.3260152"></path>
            <path id="Fill-4" sketch:type="MSShapeGroup" d="M34.6366972,27.1118485 L34.4174312,26.9812727 L34.1972477,27.1118485 L34.1972477,27.3720606 L34.4174312,27.5021667 L34.6366972,27.3720606 L34.6366972,27.1118485"></path>
            <path id="Fill-5" sketch:type="MSShapeGroup" d="M36.7545872,27.1118485 L36.7545872,27.3720606 L36.9752294,27.5021667 L37.1949541,27.3720606 L37.1949541,27.1118485 L36.9752294,26.9812727 L36.7545872,27.1118485"></path>
            <path id="Fill-6" sketch:type="MSShapeGroup" d="M34.8577982,26.5674697 L35.037156,26.3828788 L34.9715596,26.1311212 L34.7256881,26.0634848 L34.5449541,26.2485455 L34.6110092,26.500303 L34.8577982,26.5674697"></path>
            <path id="Fill-7" sketch:type="MSShapeGroup" d="M36.5334862,27.9159697 L36.3545872,28.1000909 L36.4201835,28.3523182 L36.6669725,28.4194848 L36.846789,28.2353636 L36.7816514,27.9836061 L36.5334862,27.9159697"></path>
            <path id="Fill-8" sketch:type="MSShapeGroup" d="M34.6110092,27.9836061 L34.5449541,28.2353636 L34.7256881,28.4194848 L34.9715596,28.3523182 L35.037156,28.1000909 L34.8577982,27.9155 L34.6110092,27.9836061"></path>
            <path id="Fill-9" sketch:type="MSShapeGroup" d="M36.7816514,26.500303 L36.846789,26.2485455 L36.6669725,26.0634848 L36.4201835,26.1311212 L36.3545872,26.3828788 L36.5334862,26.5674697 L36.7816514,26.500303"></path>
            <path d="M9.66422018,26.6576515 L9.00412844,26.6576515 L8.67477064,27.2419545 L9.00412844,27.8262576 L9.66422018,27.8262576 L9.99357798,27.2419545 L9.66422018,26.6576515 L9.66422018,26.6576515 Z M9.33394495,27.5355152 C9.17614679,27.5355152 9.04678899,27.404 9.04678899,27.2419545 C9.04678899,27.0799091 9.17614679,26.9479242 9.33394495,26.9479242 C9.49311927,26.9479242 9.62201835,27.0799091 9.62201835,27.2419545 C9.62201835,27.404 9.49311927,27.5355152 9.33394495,27.5355152 L9.33394495,27.5355152 Z" id="Fill-10" sketch:type="MSShapeGroup"></path>
            <path id="Fill-11" sketch:type="MSShapeGroup" d="M9.46192661,26.1569545 L9.58944954,25.9324394 L9.46192661,25.7065152 L9.20779817,25.7065152 L9.0793578,25.9324394 L9.20779817,26.1569545 L9.46192661,26.1569545"></path>
            <path id="Fill-12" sketch:type="MSShapeGroup" d="M9.20779817,28.3260152 L9.0793578,28.5514697 L9.20779817,28.7773939 L9.46192661,28.7773939 L9.58944954,28.5514697 L9.46192661,28.3260152 L9.20779817,28.3260152"></path>
            <path id="Fill-13" sketch:type="MSShapeGroup" d="M8.27568807,27.1118485 L8.05504587,26.9812727 L7.8353211,27.1118485 L7.8353211,27.3720606 L8.05504587,27.5021667 L8.27568807,27.3720606 L8.27568807,27.1118485"></path>
            <path id="Fill-14" sketch:type="MSShapeGroup" d="M10.3926606,27.1118485 L10.3926606,27.3720606 L10.6133028,27.5021667 L10.833945,27.3720606 L10.833945,27.1118485 L10.6133028,26.9812727 L10.3926606,27.1118485"></path>
            <path id="Fill-15" sketch:type="MSShapeGroup" d="M8.49541284,26.5674697 L8.67614679,26.3828788 L8.61055046,26.1311212 L8.36330275,26.0634848 L8.18394495,26.2485455 L8.24908257,26.500303 L8.49541284,26.5674697"></path>
            <path id="Fill-16" sketch:type="MSShapeGroup" d="M10.1724771,27.9159697 L9.99220183,28.1000909 L10.0587156,28.3523182 L10.3055046,28.4194848 L10.4853211,28.2353636 L10.4197248,27.9836061 L10.1724771,27.9159697"></path>
            <path id="Fill-17" sketch:type="MSShapeGroup" d="M8.24908257,27.9836061 L8.18394495,28.2353636 L8.36330275,28.4194848 L8.61055046,28.3523182 L8.67614679,28.1000909 L8.49541284,27.9155 L8.24908257,27.9836061"></path>
            <path id="Fill-18" sketch:type="MSShapeGroup" d="M10.4197248,26.500303 L10.4853211,26.2485455 L10.3055046,26.0634848 L10.0587156,26.1311212 L9.99220183,26.3828788 L10.1724771,26.5674697 L10.4197248,26.500303"></path>
            <path d="M9.3353211,23.5581212 C7.34770642,23.5581212 5.73761468,25.2072273 5.73761468,27.2419545 C5.73761468,29.2766818 7.34770642,30.9253182 9.3353211,30.9253182 C11.3211009,30.9253182 12.9316514,29.2766818 12.9316514,27.2419545 C12.9316514,25.2072273 11.3211009,23.5581212 9.3353211,23.5581212 L9.3353211,23.5581212 Z M9.33394495,29.4269848 C8.1559633,29.4269848 7.20137615,28.4486061 7.20137615,27.2424242 C7.20137615,26.0367121 8.1559633,25.0583333 9.33394495,25.0583333 C10.512844,25.0583333 11.4678899,26.0367121 11.4678899,27.2424242 C11.4678899,28.4486061 10.512844,29.4269848 9.33394495,29.4269848 L9.33394495,29.4269848 Z" id="Fill-19" sketch:type="MSShapeGroup"></path>
            <path d="M17.437156,26.6576515 L16.7775229,26.6576515 L16.4481651,27.2419545 L16.7775229,27.8262576 L17.437156,27.8262576 L17.766055,27.2419545 L17.437156,26.6576515 L17.437156,26.6576515 Z M17.1073394,27.5355152 C16.9490826,27.5355152 16.8201835,27.404 16.8201835,27.2419545 C16.8201835,27.0799091 16.9490826,26.9479242 17.1073394,26.9479242 C17.266055,26.9479242 17.3944954,27.0799091 17.3944954,27.2419545 C17.3944954,27.404 17.266055,27.5355152 17.1073394,27.5355152 L17.1073394,27.5355152 Z" id="Fill-20" sketch:type="MSShapeGroup"></path>
            <path id="Fill-21" sketch:type="MSShapeGroup" d="M17.2344037,26.1569545 L17.3619266,25.9324394 L17.2344037,25.7065152 L16.9807339,25.7065152 L16.8527523,25.9324394 L16.9807339,26.1569545 L17.2344037,26.1569545"></path>
            <path id="Fill-22" sketch:type="MSShapeGroup" d="M16.9807339,28.3260152 L16.8527523,28.5514697 L16.9807339,28.7773939 L17.2344037,28.7773939 L17.3619266,28.5514697 L17.2344037,28.3260152 L16.9807339,28.3260152"></path>
            <path id="Fill-23" sketch:type="MSShapeGroup" d="M16.0481651,27.1118485 L15.8284404,26.9812727 L15.6077982,27.1118485 L15.6077982,27.3720606 L15.8284404,27.5021667 L16.0481651,27.3720606 L16.0481651,27.1118485"></path>
            <path id="Fill-24" sketch:type="MSShapeGroup" d="M18.1655963,27.1118485 L18.1655963,27.3720606 L18.3862385,27.5021667 L18.606422,27.3720606 L18.606422,27.1118485 L18.3862385,26.9812727 L18.1655963,27.1118485"></path>
            <path id="Fill-25" sketch:type="MSShapeGroup" d="M16.2692661,26.5674697 L16.4486239,26.3828788 L16.3834862,26.1311212 L16.137156,26.0634848 L15.9568807,26.2485455 L16.0224771,26.500303 L16.2692661,26.5674697"></path>
            <path id="Fill-26" sketch:type="MSShapeGroup" d="M17.9454128,27.9159697 L17.7655963,28.1000909 L17.8316514,28.3523182 L18.0779817,28.4194848 L18.2582569,28.2353636 L18.1926606,27.9836061 L17.9454128,27.9159697"></path>
            <path id="Fill-27" sketch:type="MSShapeGroup" d="M16.0224771,27.9836061 L15.9568807,28.2353636 L16.137156,28.4194848 L16.3834862,28.3523182 L16.4486239,28.1000909 L16.2692661,27.9155 L16.0224771,27.9836061"></path>
            <path id="Fill-28" sketch:type="MSShapeGroup" d="M18.1926606,26.500303 L18.2582569,26.2485455 L18.0779817,26.0634848 L17.8316514,26.1311212 L17.7655963,26.3828788 L17.9454128,26.5674697 L18.1926606,26.500303"></path>
            <path d="M17.1077982,23.5581212 C15.1211009,23.5581212 13.509633,25.2072273 13.509633,27.2419545 C13.509633,29.2766818 15.1211009,30.9253182 17.1077982,30.9253182 C19.0940367,30.9253182 20.7045872,29.2766818 20.7045872,27.2419545 C20.7045872,25.2072273 19.0940367,23.5581212 17.1077982,23.5581212 L17.1077982,23.5581212 Z M17.1073394,29.4269848 C15.9293578,29.4269848 14.9738532,28.4486061 14.9738532,27.2424242 C14.9738532,26.0367121 15.9293578,25.0583333 17.1073394,25.0583333 C18.2853211,25.0583333 19.2408257,26.0367121 19.2408257,27.2424242 C19.2408257,28.4486061 18.2853211,29.4269848 17.1073394,29.4269848 L17.1073394,29.4269848 Z" id="Fill-29" sketch:type="MSShapeGroup"></path>
            <path d="M35.6958716,23.5581212 C33.7091743,23.5581212 32.0990826,25.2072273 32.0990826,27.2419545 C32.0990826,29.2766818 33.7091743,30.9253182 35.6958716,30.9253182 C37.6821101,30.9253182 39.2926606,29.2766818 39.2926606,27.2419545 C39.2926606,25.2072273 37.6821101,23.5581212 35.6958716,23.5581212 L35.6958716,23.5581212 Z M35.6954128,29.4269848 C34.5169725,29.4269848 33.5633028,28.4486061 33.5633028,27.2424242 C33.5633028,26.0367121 34.5169725,25.0583333 35.6954128,25.0583333 C36.8738532,25.0583333 37.8298165,26.0367121 37.8298165,27.2424242 C37.8298165,28.4486061 36.8738532,29.4269848 35.6954128,29.4269848 L35.6954128,29.4269848 Z" id="Fill-30" sketch:type="MSShapeGroup"></path>
            <path d="M42.3784404,24.3124545 L41.8706422,24.3124545 C41.9394495,21.8719091 41.5536697,18.9569697 41.5536697,18.9569697 C41.540367,18.8400152 41.437156,18.7418485 41.3229358,18.7385606 L41.1399083,18.7333939 C41.0788991,16.0551818 39.8944954,12.4601212 39.8944954,12.4601212 C39.8027523,12.1811212 39.4940367,11.9547273 39.2059633,11.9547273 L30.1582569,11.9547273 C29.8724771,11.9547273 29.6380734,12.1952121 29.6380734,12.488303 L29.6380734,21.4966212 L28.6605505,21.4966212 L28.6605505,22.3777727 L13.7366972,22.3777727 L13.7366972,21.9728939 C13.7366972,21.850303 13.6385321,21.7507273 13.5197248,21.7507273 L4.58302752,21.7507273 C4.46238532,21.7507273 4.36559633,21.850303 4.36559633,21.9728939 L4.36559633,22.3777727 L0.434862385,22.3777727 C0.316055046,22.3777727 0.218348624,22.4773485 0.218348624,22.5999394 L0.218348624,23.2124242 C0.218348624,23.3354848 0.316055046,23.4345909 0.434862385,23.4345909 L1.6412844,23.4345909 L1.6412844,26.7586364 C1.6412844,26.8812273 1.73899083,26.9812727 1.8587156,26.9812727 L2.81055046,26.9812727 L2.81055046,28.3894242 C2.81055046,28.5115455 2.71330275,28.6115909 2.59357798,28.6115909 L1.8587156,28.6115909 C1.73899083,28.6115909 1.6412844,28.7111667 1.6412844,28.8337576 L1.6412844,28.9986212 C1.6412844,29.1216818 1.73899083,29.2212576 1.8587156,29.2212576 L4.88119266,29.2212576 C5.00091743,29.2212576 5.09862385,29.1216818 5.09862385,28.9986212 L5.09862385,28.8337576 C5.09862385,28.7111667 5.00091743,28.6115909 4.88119266,28.6115909 L4.14678899,28.6115909 C4.02614679,28.6115909 3.92889908,28.5115455 3.92889908,28.3894242 L3.92889908,26.9812727 L5.07568807,26.9812727 C5.21055046,24.6825758 7.05550459,22.8554545 9.3353211,22.8554545 C10.753211,22.8554545 12,23.5698636 12.7788991,24.6562727 L13.6623853,24.6562727 C14.4422018,23.5698636 15.6899083,22.8554545 17.1077982,22.8554545 C19.3857798,22.8554545 21.2307339,24.6825758 21.3655963,26.9812727 L21.7646789,26.9812727 C21.8844037,26.9812727 21.9821101,26.8812273 21.9821101,26.7586364 L21.9821101,25.8342727 L22.5866972,25.8342727 L22.5866972,26.5200303 C22.5866972,26.825803 22.8298165,27.0756818 23.1288991,27.0756818 L27.3995413,27.0756818 C27.6986239,27.0756818 27.9422018,26.825803 27.9422018,26.5200303 L27.9422018,25.8342727 L28.3481651,25.8342727 L28.3481651,26.9812727 L28.9587156,26.9812727 L28.9587156,28.3894242 C28.9587156,28.5115455 28.8610092,28.6115909 28.7408257,28.6115909 L28.006422,28.6115909 C27.8866972,28.6115909 27.7889908,28.7111667 27.7889908,28.8337576 L27.7889908,28.9986212 C27.7889908,29.1216818 27.8866972,29.2212576 28.006422,29.2212576 L31.0288991,29.2212576 C31.1495413,29.2212576 31.2463303,29.1216818 31.2463303,28.9986212 L31.2463303,28.8337576 C31.2463303,28.7111667 31.1495413,28.6115909 31.0288991,28.6115909 L30.2940367,28.6115909 C30.1752294,28.6115909 30.0766055,28.5115455 30.0766055,28.3894242 L30.0766055,26.9812727 L31.4366972,26.9812727 C31.5720183,24.6825758 33.4174312,22.8554545 35.6958716,22.8554545 C37.9752294,22.8554545 39.8197248,24.6825758 39.9541284,26.9812727 L41.790367,26.9812727 C42.1142202,26.9812727 42.4357798,26.7163636 42.5073394,26.3946212 L42.8344037,24.9000455 C42.9059633,24.5768939 42.7013761,24.3124545 42.3784404,24.3124545 L42.3784404,24.3124545 Z M22.5866972,23.6468939 L22.5866972,24.3326515 L21.9821101,24.3326515 L21.9821101,23.4345909 L22.6293578,23.4345909 C22.6022936,23.5008182 22.5866972,23.5717424 22.5866972,23.6468939 L22.5866972,23.6468939 Z M28.3481651,24.3326515 L27.9422018,24.3326515 L27.9422018,23.6468939 C27.9422018,23.5717424 27.9270642,23.5008182 27.8995413,23.4345909 L28.3481651,23.4345909 L28.3481651,24.3326515 L28.3481651,24.3326515 Z M33.2844037,18.7014545 L33.2844037,14.0890303 C33.2844037,13.795 33.5183486,13.5549848 33.806422,13.5549848 L38.8747706,13.5549848 C39.1642202,13.5549848 39.466055,13.7846667 39.5495413,14.0655455 C39.5495413,14.0655455 40.2866972,16.5131364 40.5385321,18.7014545 L33.2844037,18.7014545 L33.2844037,18.7014545 Z" id="Fill-31" sketch:type="MSShapeGroup"></path>
            <path d="M14.7252294,14.6024091 L14.7344037,14.5958333 C13.9958716,13.3905909 12.7394495,13.0528788 10.8211009,12.4216061 C10.3697248,12.4014091 9.91651376,12.3830909 9.44954128,12.3830909 C8.02155963,12.3830909 6.66146789,12.4826667 5.40229358,12.6564545 C4.79036697,13.5488788 4.37752294,14.8771818 4.25045872,16.388197 L2.12706422,16.388197 C1.53027523,16.388197 0.916055046,16.8715152 0.762844037,17.4614545 L0.237155963,19.4797424 C0.0834862385,20.0696818 0.44587156,20.553 1.04220183,20.553 L4.36559633,20.553 L4.36559633,20.9785455 C4.36559633,21.1011364 4.46238532,21.2011818 4.58302752,21.2011818 L13.5197248,21.2011818 C13.6385321,21.2011818 13.7366972,21.1011364 13.7366972,20.9785455 L13.7366972,20.3453939 C14.2408257,20.2711818 14.7334862,20.1880455 15.1995413,20.0884697 C15.3972477,19.5534848 15.5041284,18.9790455 15.556422,18.387697 C15.5,17.0161818 15.3394495,16.0335758 15.0665138,15.2928636 C14.9651376,15.0556667 14.8545872,14.8231667 14.7252294,14.6024091 L14.7252294,14.6024091 Z M9.48577982,17.0406061 C8.83302752,16.9236515 8.16238532,16.8268939 7.4766055,16.7550303 C7.16192661,15.6343333 6.7733945,14.5939545 6.31834862,13.6587879 C7.34770642,13.5592121 8.39357798,13.4972121 9.44954128,13.4972121 C9.46100917,13.4972121 9.47385321,13.4981515 9.48577982,13.4981515 L9.48577982,17.0406061 L9.48577982,17.0406061 Z M14.9931193,18.7390303 C13.5545872,18.0626667 11.8876147,17.5366061 10.0807339,17.1683636 L10.0807339,13.5122424 C10.9587156,13.5286818 11.8288991,13.5695455 12.6738532,13.6517424 C14.1729358,14.6517273 15.0651376,16.2383636 15.0651376,17.9222273 C15.0651376,18.1951212 15.0408257,18.4689545 14.9931193,18.7390303 L14.9931193,18.7390303 Z" id="Fill-32" sketch:type="MSShapeGroup"></path>
            <path d="M45.7853211,4.59645455 L48.0986239,4.74628788 C48.8449541,4.52412121 49.4633028,3.9219697 49.6655963,3.09483333 C49.9678899,1.85577273 49.2321101,0.600272727 48.0224771,0.290742424 C46.8926606,0.00140909091 45.759633,0.645363636 45.3655963,1.73975758 L42.1550459,2.90037879 L40.0238532,6.67768182 L45.8105505,4.58706061" id="Fill-33" sketch:type="MSShapeGroup"></path>
            <path d="M40.793578,3.39309091 L38.9637615,4.05395455 L36.8344037,7.83125758 L38.6642202,7.16992424 L40.793578,3.39309091" id="Fill-34" sketch:type="MSShapeGroup"></path>
            <path d="M37.603211,4.54572727 L24.2169725,9.38407576 C24.103211,9.16143939 23.8504587,9.04589394 23.6123853,9.13184848 L12.2518349,13.2379394 C13.8362385,14.2454394 14.890367,14.8372576 15.2894495,16.0894697 L23.583945,13.0913939 C23.5183486,13.1778182 23.4665138,13.2778636 23.4389908,13.3910606 C23.4229358,13.4563485 23.4311927,13.5197576 23.4302752,13.5841061 L18.1908257,16.7672424 C18.1275229,16.7005455 18.0325688,16.6737727 17.9504587,16.7226212 L15.506422,18.2073333 C15.5394495,17.7268333 15.5119266,17.2529091 15.4348624,16.791197 C15.5174312,17.5192273 15.4463303,18.4384242 15.1963303,19.6831212 L18.5018349,17.6742273 C18.5825688,17.6253788 18.6055046,17.5272121 18.5779817,17.4389091 L23.796789,14.2684545 C23.8637615,14.311197 23.9334862,14.3539394 24.0151376,14.3746061 C24.440367,14.4835758 24.8706422,14.2191364 24.9766055,13.784197 C25.0830275,13.3497273 24.8247706,12.9091515 24.3995413,12.8001818 C24.3963303,12.7997121 24.3931193,12.8011212 24.3889908,12.7997121 L24.8238532,12.6428333 C25.0610092,12.5568788 25.1876147,12.3046515 25.1408257,12.0585303 L35.4747706,8.3230303 L37.603211,4.54572727" id="Fill-35" sketch:type="MSShapeGroup"></path>
            <path d="M49.2504587,17.0838182 C49.2504587,16.5450758 49.0238532,16.0645758 48.6637615,15.7263939 L48.6637615,1.81490909 L47.3729358,2.05116667 L48.1211009,2.05116667 L48.1211009,15.3708333 C47.9133028,15.2839394 47.683945,15.2336818 47.4440367,15.2336818 C47.2041284,15.2336818 46.9756881,15.2839394 46.7669725,15.3708333 L46.7669725,2.16248485 L46.2247706,2.26206061 L46.2247706,15.7263939 C45.8646789,16.0645758 45.6376147,16.5450758 45.6376147,17.0838182 C45.6376147,18.1063485 46.4458716,18.9348939 47.4440367,18.9348939 C47.5752294,18.9348939 47.7027523,18.9189242 47.8261468,18.8921515 C48.0013761,19.0875455 48.2321101,19.6450758 47.9770642,20.0302273 C47.7353211,20.3937727 47.3908257,20.5069697 47.0844037,20.5027424 C46.8610092,20.4980455 46.4825688,20.3308333 46.1761468,20.0978636 C46.0931193,20.0363333 45.9954128,20.1847576 45.9977064,20.2885606 C45.9977064,20.3280152 46.0545872,20.4163182 46.0651376,20.4257121 C46.3422018,20.894 46.8256881,21.208697 47.3830275,21.2007121 C48.2357798,21.1899091 48.9110092,20.449197 48.8981651,19.5473788 C48.8908257,19.1645758 48.7449541,18.827803 48.5325688,18.5525606 C48.9665138,18.2134394 49.2504587,17.6850303 49.2504587,17.0838182" id="Fill-36" sketch:type="MSShapeGroup"></path>
            <path id="Fill-37" sketch:type="MSShapeGroup" d="M46.7669725,2.05116667 L46.7669725,2.16248485 L47.3729358,2.05116667 L46.7669725,2.05116667"></path>
            <path d="M47.4440367,17.8235909 C47.0454128,17.8235909 46.7206422,17.4929242 46.7206422,17.0838182 C46.7206422,16.6756515 47.0454128,16.3445152 47.4440367,16.3445152 C47.8426606,16.3445152 48.1655963,16.6756515 48.1655963,17.0838182 C48.1655963,17.4929242 47.8426606,17.8235909 47.4440367,17.8235909" id="Fill-38" sketch:type="MSShapeGroup"></path>
        </g>
    </g>
</svg>