<?xml version="1.0" encoding="UTF-8" standalone="no"?>
<svg width="51px" height="30px" viewBox="0 0 51 30" version="1.1" xmlns="http://www.w3.org/2000/svg" xmlns:xlink="http://www.w3.org/1999/xlink" xmlns:sketch="http://www.bohemiancoding.com/sketch/ns">
    <!-- Generator: Sketch 3.0.4 (8053) - http://www.bohemiancoding.com/sketch -->
    <title>p-3</title>
    <desc>Created with Sketch.</desc>
    <defs></defs>
    <g id="Page-1" stroke="none" stroke-width="1" fill="none" fill-rule="evenodd" sketch:type="MSPage">
        <g id="p-3" sketch:type="MSLayerGroup" transform="translate(1.000000, 1.000000)" fill="#2B3B4D">
            <path d="M1.12692308,10.5215932 C1.12692308,10.0389153 1.33028846,9.60833898 1.65336538,9.3050678 L1.65336538,4.09637288 C1.00240385,3.70855932 0.558653846,2.99437288 0.558653846,2.16861017 C0.558653846,0.932423729 1.53942308,-0.0702881356 2.74807692,-0.0702881356 C3.87740385,-0.0702881356 4.79519231,0.80659322 4.91442308,1.92923729 L30.6259615,1.68937288 C30.7841346,1.50750847 31.0480769,1.45933898 31.2528846,1.59745763 L36.3274038,11.0372034 C36.7322115,11.0185254 32.7923077,18.6371695 32.7923077,18.6371695 C32.6149038,18.1574407 31.1168269,18.4361356 31.0697115,17.9067627 L30.4086538,11.7966102 C30.34375,11.7312373 30.8076923,11.5729661 30.8543269,11.4962881 L29.9,6.86955932 C29.8269231,6.89315254 29.7519231,6.91674576 29.6701923,6.91674576 C29.2451923,6.91674576 28.9009615,6.56481356 28.9009615,6.13079661 C28.9009615,5.69727119 29.2451923,5.34583051 29.6701923,5.34583051 C29.6730769,5.34583051 29.6759615,5.34779661 29.6798077,5.34779661 L29.3072115,5.09564407 C29.1038462,4.95752542 29.0427885,4.69013559 29.1432692,4.47091525 L3.84230769,4.4969661 L3.84230769,9.3050678 C4.16538462,9.60833898 4.36923077,10.0389153 4.36923077,10.5215932 C4.36923077,11.4373051 3.64375,12.18 2.74807692,12.18 C2.63028846,12.18 2.51586538,12.1657458 2.40528846,12.141661 C2.24807692,12.3166441 2.04086538,12.8165254 2.26971154,13.1615763 C2.48653846,13.4874576 2.79567308,13.5887119 3.07067308,13.5847797 C3.27115385,13.5803559 3.61057692,13.4309322 3.88557692,13.2220339 C3.96057692,13.1669831 4.04807692,13.3001864 4.04615385,13.3930847 C4.04615385,13.4284746 3.99519231,13.5076102 3.98557692,13.5159661 C3.73701923,13.9352373 3.30288462,14.2173729 2.80288462,14.2104915 C2.0375,14.200661 1.43125,13.5371017 1.44326923,12.7285424 C1.44951923,12.3859492 1.58076923,12.083661 1.77115385,11.8374068 C1.38173077,11.5336441 1.12692308,11.0598136 1.12692308,10.5215932 L1.12692308,10.5215932 Z M30.4019231,6.31462712 L31.3701923,11.3458814 C31.4451923,11.2986949 31.7048077,11.2392203 31.7706731,11.3050847 L32.1245192,14.9222203 C32.2442308,14.2281864 32.4807692,13.5754407 32.8235577,12.9910169 L30.3706731,5.81474576 C30.4120192,5.9120678 30.4379808,6.01823729 30.4379808,6.13079661 C30.4379808,6.19616949 30.4158654,6.25416949 30.4019231,6.31462712 L30.4019231,6.31462712 Z M3.35576923,4.30822034 C3.16201923,4.36572881 2.96153846,4.40701695 2.74807692,4.40701695 C2.53605769,4.40701695 2.33413462,4.36572881 2.14038462,4.30822034 L2.14038462,8.98655932 C2.32692308,8.90840678 2.53269231,8.86367797 2.74807692,8.86367797 C2.96346154,8.86367797 3.16826923,8.90840678 3.35576923,8.98655932 L3.35576923,4.30822034 L3.35576923,4.30822034 Z M2.74807692,11.1841695 C3.10576923,11.1841695 3.39711538,10.8882712 3.39711538,10.5215932 C3.39711538,10.1554068 3.10576923,9.85901695 2.74807692,9.85901695 C2.39038462,9.85901695 2.10048077,10.1554068 2.10048077,10.5215932 C2.10048077,10.8882712 2.39038462,11.1841695 2.74807692,11.1841695 L2.74807692,11.1841695 Z" id="Fill-1" sketch:type="MSShapeGroup"></path>
            <path d="M36.3538462,17.9067627 L36.3274038,11.0372034 L32.3980769,17.9067627 L36.3538462,17.9067627" id="Fill-2" sketch:type="MSShapeGroup"></path>
            <path d="M10.2951923,23.8974746 L9.59278846,23.8974746 L9.24230769,24.5172881 L9.59278846,25.1375932 L10.2951923,25.1375932 L10.6451923,24.5172881 L10.2951923,23.8974746 L10.2951923,23.8974746 Z M9.94423077,24.8298983 C9.77548077,24.8298983 9.63894231,24.6898136 9.63894231,24.5172881 C9.63894231,24.3452542 9.77548077,24.205661 9.94423077,24.205661 C10.1125,24.205661 10.2485577,24.3452542 10.2485577,24.5172881 C10.2485577,24.6898136 10.1125,24.8298983 9.94423077,24.8298983 L9.94423077,24.8298983 Z" id="Fill-3" sketch:type="MSShapeGroup"></path>
            <path id="Fill-4" sketch:type="MSShapeGroup" d="M10.0798077,23.3671186 L10.2149038,23.1277458 L10.0798077,22.8878814 L9.80961538,22.8878814 L9.67307692,23.1277458 L9.80961538,23.3671186 L10.0798077,23.3671186"></path>
            <path id="Fill-5" sketch:type="MSShapeGroup" d="M9.80961538,25.6679492 L9.67307692,25.907322 L9.80961538,26.1462034 L10.0798077,26.1462034 L10.2149038,25.907322 L10.0798077,25.6679492 L9.80961538,25.6679492"></path>
            <path id="Fill-6" sketch:type="MSShapeGroup" d="M8.81923077,24.379661 L8.58461538,24.2405593 L8.35048077,24.379661 L8.35048077,24.6558983 L8.58461538,24.7940169 L8.81923077,24.6558983 L8.81923077,24.379661"></path>
            <path id="Fill-7" sketch:type="MSShapeGroup" d="M11.06875,24.379661 L11.06875,24.6558983 L11.3033654,24.7940169 L11.5375,24.6558983 L11.5375,24.379661 L11.3033654,24.2405593 L11.06875,24.379661"></path>
            <path d="M9.05288462,23.8016271 L9.24471154,23.606 L9.175,23.3391017 L8.91153846,23.2668475 L8.72163462,23.4634576 L8.79134615,23.7303559 L9.05288462,23.8016271" id="Fill-8" sketch:type="MSShapeGroup"></path>
            <path d="M10.8350962,25.2329492 L10.6432692,25.4285763 L10.7129808,25.6954746 L10.9759615,25.7672373 L11.1663462,25.5716102 L11.0966346,25.3052034 L10.8350962,25.2329492" id="Fill-9" sketch:type="MSShapeGroup"></path>
            <path d="M8.79134615,25.3052034 L8.72163462,25.5716102 L8.91153846,25.7672373 L9.175,25.6954746 L9.24471154,25.4285763 L9.05288462,25.2324576 L8.79134615,25.3052034" id="Fill-10" sketch:type="MSShapeGroup"></path>
            <path d="M11.0966346,23.7303559 L11.1663462,23.4634576 L10.9759615,23.2668475 L10.7129808,23.3391017 L10.6432692,23.606 L10.8350962,23.8016271 L11.0966346,23.7303559" id="Fill-11" sketch:type="MSShapeGroup"></path>
            <path d="M9.94423077,20.6076949 C7.83365385,20.6076949 6.12019231,22.3585085 6.12019231,24.5172881 C6.12019231,26.6765593 7.83365385,28.4263898 9.94423077,28.4263898 C12.0543269,28.4263898 13.7673077,26.6765593 13.7673077,24.5172881 C13.7673077,22.3585085 12.0543269,20.6076949 9.94423077,20.6076949 L9.94423077,20.6076949 Z M9.94423077,26.8363051 C8.69230769,26.8363051 7.67692308,25.7977119 7.67692308,24.5177797 C7.67692308,23.238339 8.69230769,22.1997458 9.94423077,22.1997458 C11.1956731,22.1997458 12.2110577,23.238339 12.2110577,24.5177797 C12.2110577,25.7977119 11.1956731,26.8363051 9.94423077,26.8363051 L9.94423077,26.8363051 Z" id="Fill-12" sketch:type="MSShapeGroup"></path>
            <path d="M39.54375,23.8974746 L38.8447115,23.8974746 L38.4927885,24.5172881 L38.8447115,25.1375932 L39.54375,25.1375932 L39.8951923,24.5172881 L39.54375,23.8974746 L39.54375,23.8974746 Z M39.1927885,24.8298983 C39.0269231,24.8298983 38.8894231,24.6898136 38.8894231,24.5172881 C38.8894231,24.3452542 39.0269231,24.205661 39.1927885,24.205661 C39.3620192,24.205661 39.4995192,24.3452542 39.4995192,24.5172881 C39.4995192,24.6898136 39.3620192,24.8298983 39.1927885,24.8298983 L39.1927885,24.8298983 Z" id="Fill-13" sketch:type="MSShapeGroup"></path>
            <path id="Fill-14" sketch:type="MSShapeGroup" d="M39.3307692,23.3671186 L39.4649038,23.1277458 L39.3307692,22.8878814 L39.0610577,22.8878814 L38.9230769,23.1277458 L39.0610577,23.3671186 L39.3307692,23.3671186"></path>
            <path id="Fill-15" sketch:type="MSShapeGroup" d="M39.0610577,25.6679492 L38.9230769,25.907322 L39.0610577,26.1462034 L39.3307692,26.1462034 L39.4649038,25.907322 L39.3307692,25.6679492 L39.0610577,25.6679492"></path>
            <path id="Fill-16" sketch:type="MSShapeGroup" d="M38.0692308,24.379661 L37.8350962,24.2405593 L37.6004808,24.379661 L37.6004808,24.6558983 L37.8350962,24.7940169 L38.0692308,24.6558983 L38.0692308,24.379661"></path>
            <path id="Fill-17" sketch:type="MSShapeGroup" d="M40.3182692,24.379661 L40.3182692,24.6558983 L40.5519231,24.7940169 L40.7865385,24.6558983 L40.7865385,24.379661 L40.5519231,24.2405593 L40.3182692,24.379661"></path>
            <path d="M38.3043269,23.8016271 L38.4951923,23.606 L38.425,23.3391017 L38.1625,23.2668475 L37.9716346,23.4634576 L38.0413462,23.7303559 L38.3043269,23.8016271" id="Fill-18" sketch:type="MSShapeGroup"></path>
            <path d="M40.0841346,25.2329492 L39.8932692,25.4285763 L39.9634615,25.6954746 L40.2259615,25.7672373 L40.4177885,25.5716102 L40.3480769,25.3052034 L40.0841346,25.2329492" id="Fill-19" sketch:type="MSShapeGroup"></path>
            <path d="M38.0413462,25.3052034 L37.9716346,25.5716102 L38.1625,25.7672373 L38.425,25.6954746 L38.4951923,25.4285763 L38.3043269,25.2324576 L38.0413462,25.3052034" id="Fill-20" sketch:type="MSShapeGroup"></path>
            <path d="M40.3480769,23.7303559 L40.4177885,23.4634576 L40.2259615,23.2668475 L39.9634615,23.3391017 L39.8932692,23.606 L40.0841346,23.8016271 L40.3480769,23.7303559" id="Fill-21" sketch:type="MSShapeGroup"></path>
            <path d="M39.1951923,20.6076949 C37.0841346,20.6076949 35.3706731,22.3585085 35.3706731,24.5172881 C35.3706731,26.6765593 37.0841346,28.4263898 39.1951923,28.4263898 C41.3043269,28.4263898 43.0173077,26.6765593 43.0173077,24.5172881 C43.0173077,22.3585085 41.3043269,20.6076949 39.1951923,20.6076949 L39.1951923,20.6076949 Z M39.1927885,26.8363051 C37.9423077,26.8363051 36.9274038,25.7977119 36.9274038,24.5177797 C36.9274038,23.238339 37.9423077,22.1997458 39.1927885,22.1997458 C40.4475962,22.1997458 41.4625,23.238339 41.4625,24.5177797 C41.4625,25.7977119 40.4475962,26.8363051 39.1927885,26.8363051 L39.1927885,26.8363051 Z" id="Fill-22" sketch:type="MSShapeGroup"></path>
            <path d="M18.8004808,23.8974746 L18.0990385,23.8974746 L17.7495192,24.5172881 L18.0990385,25.1375932 L18.8004808,25.1375932 L19.1514423,24.5172881 L18.8004808,23.8974746 L18.8004808,23.8974746 Z M18.45,24.8298983 C18.2817308,24.8298983 18.1447115,24.6898136 18.1447115,24.5172881 C18.1447115,24.3452542 18.2817308,24.205661 18.45,24.205661 C18.6182692,24.205661 18.75625,24.3452542 18.75625,24.5172881 C18.75625,24.6898136 18.6182692,24.8298983 18.45,24.8298983 L18.45,24.8298983 Z" id="Fill-23" sketch:type="MSShapeGroup"></path>
            <path id="Fill-24" sketch:type="MSShapeGroup" d="M18.5865385,23.3671186 L18.7211538,23.1277458 L18.5865385,22.8878814 L18.3153846,22.8878814 L18.1793269,23.1277458 L18.3153846,23.3671186 L18.5865385,23.3671186"></path>
            <path id="Fill-25" sketch:type="MSShapeGroup" d="M18.3153846,25.6679492 L18.1793269,25.907322 L18.3153846,26.1462034 L18.5865385,26.1462034 L18.7211538,25.907322 L18.5865385,25.6679492 L18.3153846,25.6679492"></path>
            <path id="Fill-26" sketch:type="MSShapeGroup" d="M17.3259615,24.379661 L17.0908654,24.2405593 L16.8572115,24.379661 L16.8572115,24.6558983 L17.0908654,24.7940169 L17.3259615,24.6558983 L17.3259615,24.379661"></path>
            <path id="Fill-27" sketch:type="MSShapeGroup" d="M19.5759615,24.379661 L19.5759615,24.6558983 L19.8091346,24.7940169 L20.0442308,24.6558983 L20.0442308,24.379661 L19.8091346,24.2405593 L19.5759615,24.379661"></path>
            <path d="M17.5591346,23.8016271 L17.7504808,23.606 L17.6822115,23.3391017 L17.41875,23.2668475 L17.2274038,23.4634576 L17.2971154,23.7303559 L17.5591346,23.8016271" id="Fill-28" sketch:type="MSShapeGroup"></path>
            <path d="M19.3408654,25.2329492 L19.15,25.4285763 L19.2201923,25.6954746 L19.4826923,25.7672373 L19.6735577,25.5716102 L19.6033654,25.3052034 L19.3408654,25.2329492" id="Fill-29" sketch:type="MSShapeGroup"></path>
            <path d="M17.2971154,25.3052034 L17.2274038,25.5716102 L17.41875,25.7672373 L17.6822115,25.6954746 L17.7504808,25.4285763 L17.5591346,25.2324576 L17.2971154,25.3052034" id="Fill-30" sketch:type="MSShapeGroup"></path>
            <path d="M19.6033654,23.7303559 L19.6735577,23.4634576 L19.4826923,23.2668475 L19.2201923,23.3391017 L19.15,23.606 L19.3408654,23.8016271 L19.6033654,23.7303559" id="Fill-31" sketch:type="MSShapeGroup"></path>
            <path d="M18.4504808,20.6076949 C16.3394231,20.6076949 14.6264423,22.3585085 14.6264423,24.5172881 C14.6264423,26.6765593 16.3394231,28.4263898 18.4504808,28.4263898 C20.5615385,28.4263898 22.2735577,26.6765593 22.2735577,24.5172881 C22.2735577,22.3585085 20.5615385,20.6076949 18.4504808,20.6076949 L18.4504808,20.6076949 Z M18.45,26.8363051 C17.1990385,26.8363051 16.1822115,25.7977119 16.1822115,24.5177797 C16.1822115,23.238339 17.1990385,22.1997458 18.45,22.1997458 C19.7033654,22.1997458 20.7182692,23.238339 20.7182692,24.5177797 C20.7182692,25.7977119 19.7033654,26.8363051 18.45,26.8363051 L18.45,26.8363051 Z" id="Fill-32" sketch:type="MSShapeGroup"></path>
            <path d="M48.6134615,19.9805085 C48.6673077,19.9411864 48.7086538,19.8866271 48.7110577,19.8143729 C48.7110577,19.8143729 48.7139423,19.7494915 48.7192308,19.6030169 C48.7903846,17.0657627 48.3875,13.2377627 48.3875,13.2377627 C48.375,13.1158644 48.2673077,13.0146102 48.1471154,13.0101864 L47.9567308,13.0052712 C47.8961538,10.2212712 46.6610577,6.48420339 46.6610577,6.48420339 C46.5658654,6.19518644 46.24375,5.95925424 45.9447115,5.95925424 L36.5254808,5.95925424 C36.2278846,5.95925424 35.9836538,6.20845763 35.9836538,6.51369492 L35.9836538,17.0328305 C35.2701923,17.0328305 34.6552885,17.4344068 34.325,18.0227627 L34.325,17.9067627 L-0.0961538462,17.9067627 L-0.0961538462,18.7025424 C-0.0961538462,19.0077797 0.147596154,19.2574746 0.446634615,19.2574746 L2.33942308,19.2574746 L2.33942308,21.0367966 C2.33942308,21.1591864 2.43701923,21.2589661 2.55528846,21.2589661 L2.96346154,21.2589661 L2.96346154,22.7620508 C2.96346154,22.8844407 3.06105769,22.9837288 3.18076923,22.9837288 L4.60625,22.9837288 L4.60625,24.2951186 C4.60625,24.4170169 4.70432692,24.5172881 4.825,24.5172881 L5.33365385,24.5172881 C5.33365385,21.9141695 7.39711538,19.8040508 9.94423077,19.8040508 C11.2653846,19.8040508 12.4350962,20.3865085 13.2668269,21.3017288 L15.1024038,21.3017288 C15.9413462,20.3855254 17.1245192,19.8040508 18.4504808,19.8040508 C20.9966346,19.8040508 23.0605769,21.9141695 23.0620192,24.5172881 L23.8216346,24.5172881 C23.9408654,24.5172881 24.0384615,24.4170169 24.0384615,24.2951186 L24.0384615,22.9837288 L25.8129808,22.9837288 L25.8129808,23.740678 C25.8129808,24.1683051 26.1548077,24.5172881 26.5725962,24.5172881 L33.3697115,24.5172881 C33.7634615,24.5172881 34.0793269,24.2032034 34.1153846,23.8094915 C34.1778846,23.8212881 34.2360577,23.8438983 34.3019231,23.8438983 L34.6495192,23.8438983 C34.9725962,21.5622373 36.8740385,19.8040508 39.1942308,19.8040508 C41.5144231,19.8040508 43.4163462,21.5622373 43.7379808,23.8438983 L47.4918269,23.8438983 C48.0875,23.8438983 48.7129808,23.3651525 48.8802885,22.7787627 L49.375,21.0407288 C49.5399038,20.4626949 49.1971154,19.991322 48.6134615,19.9805085 L48.6134615,19.9805085 Z M3.49759615,19.2574746 L7.30288462,19.2574746 L7.30288462,19.7337627 L3.49759615,19.7337627 L3.49759615,19.2574746 Z M12.4475962,19.2574746 L16.2528846,19.2574746 L16.2528846,19.7337627 L12.4475962,19.7337627 L12.4475962,19.2574746 Z M23.2096154,19.2574746 L27.1682692,19.2574746 L27.1682692,19.7337627 L23.2096154,19.7337627 L23.2096154,19.2574746 Z M39.7798077,12.972339 L39.7798077,8.17701695 C39.7798077,7.87227119 40.0235577,7.62257627 40.3221154,7.62257627 L45.6004808,7.62257627 C45.8995192,7.62257627 46.2149038,7.8609661 46.3024038,8.1529322 C46.3024038,8.1529322 47.06875,10.6980508 47.3302885,12.972339 L39.7798077,12.972339 L39.7798077,12.972339 Z" id="Fill-33" sketch:type="MSShapeGroup"></path>
            <path d="M-0.0961538462,14.9507288 L31.6105769,14.9507288 L31.6105769,17.4152373 L-0.0961538462,17.4152373 L-0.0961538462,14.9507288 Z" id="Fill-34" sketch:type="MSShapeGroup"></path>
        </g>
    </g>
</svg>