<svg width="43px" height="18px" viewBox="0 0 43 18" version="1.1" xmlns="http://www.w3.org/2000/svg" xmlns:xlink="http://www.w3.org/1999/xlink" xmlns:sketch="http://www.bohemiancoding.com/sketch/ns">
    <g id="Page-1" stroke="none" stroke-width="1" fill="none" fill-rule="evenodd" sketch:type="MSPage">
        <g id="p-4" sketch:type="MSLayerGroup" transform="translate(1.000000, 0.000000)" fill="#2B3B4D">
            <path d="M6.8228764,10.8587368 C4.94986517,10.8587368 3.43173034,12.3830526 3.43173034,14.2612105 C3.43173034,16.1441053 4.94986517,17.6655789 6.8228764,17.6655789 C8.69635955,17.6655789 10.2144944,16.1441053 10.2144944,14.2612105 C10.2144944,12.3830526 8.69635955,10.8587368 6.8228764,10.8587368 L6.8228764,10.8587368 Z M6.8228764,16.2904737 C5.70680899,16.2904737 4.80262921,15.3824211 4.80262921,14.2612105 C4.80262921,13.1423684 5.70680899,12.2352632 6.8228764,12.2352632 C7.93941573,12.2352632 8.84359551,13.1423684 8.84359551,14.2612105 C8.84359551,15.3824211 7.93941573,16.2904737 6.8228764,16.2904737 L6.8228764,16.2904737 Z" id="Fill-1" sketch:type="MSShapeGroup"></path>
            <path d="M6.8228764,13.6501579 C6.48593258,13.6501579 6.21364045,13.9244211 6.21364045,14.2612105 C6.21364045,14.6008421 6.48593258,14.8732105 6.8228764,14.8732105 C7.16029213,14.8732105 7.43211236,14.6008421 7.43211236,14.2612105 C7.43211236,13.9244211 7.16029213,13.6501579 6.8228764,13.6501579" id="Fill-2" sketch:type="MSShapeGroup"></path>
            <path d="M34.4971011,10.8587368 C32.6240899,10.8587368 31.1054831,12.3830526 31.1054831,14.2612105 C31.1054831,16.1441053 32.6240899,17.6655789 34.4971011,17.6655789 C36.3696404,17.6655789 37.8882472,16.1441053 37.8882472,14.2612105 C37.8882472,12.3830526 36.3696404,10.8587368 34.4971011,10.8587368 L34.4971011,10.8587368 Z M34.4971011,16.2904737 C33.3819775,16.2904737 32.4768539,15.3824211 32.4768539,14.2612105 C32.4768539,13.1423684 33.3819775,12.2352632 34.4971011,12.2352632 C35.6136404,12.2352632 36.519236,13.1423684 36.519236,14.2612105 C36.519236,15.3824211 35.6136404,16.2904737 34.4971011,16.2904737 L34.4971011,16.2904737 Z" id="Fill-3" sketch:type="MSShapeGroup"></path>
            <path d="M34.4971011,13.6501579 C34.1611011,13.6501579 33.8873933,13.9244211 33.8873933,14.2612105 C33.8873933,14.6008421 34.1611011,14.8732105 34.4971011,14.8732105 C34.8354607,14.8732105 35.106809,14.6008421 35.106809,14.2612105 C35.106809,13.9244211 34.8354607,13.6501579 34.4971011,13.6501579" id="Fill-4" sketch:type="MSShapeGroup"></path>
            <path d="M40.4398652,11.682 C40.6234382,10.611 40.6031461,8.35768421 39.6715955,7.65805263 C38.7400449,6.95842105 34.9392809,5.94663158 34.9043596,6.01105263 C31.7741798,2.47784211 29.2329438,0.304578947 27.9526517,0.219315789 L27.9526517,0.213157895 L4.27220225,0.213157895 C3.3831236,0.213157895 1.0731236,3.87947368 1.0731236,8.40173684 C1.0731236,10.0942105 1.17552809,11.6616316 1.34919101,12.9647368 L0.244449438,12.9647368 C-0.042,12.9647368 -0.222269663,13.1935263 -0.154786517,13.4739474 C-0.154786517,13.4739474 -0.133078652,14.1465789 0.123640449,14.6321053 C0.33505618,15.0328421 2.13350562,15.0716842 2.75359551,15.0740526 C2.70121348,14.8097368 2.67148315,14.5359474 2.67148315,14.2550526 C2.67148315,11.9548421 4.53033708,10.0894737 6.8228764,10.0894737 C9.11635955,10.0894737 10.9752135,11.9548421 10.9752135,14.2550526 C10.9752135,14.5458947 10.9450112,14.8286842 10.8888539,15.102 L30.4330112,15.102 C30.376382,14.8286842 30.3457079,14.5458947 30.3457079,14.2550526 C30.3457079,11.9548421 32.2040899,10.0894737 34.4971011,10.0894737 C36.7471685,10.0894737 38.5649663,11.8866316 38.6362247,14.1247895 L40.6357079,13.9263158 C40.9231011,13.9263158 41.1576404,13.6908947 41.1576404,13.4024211 L41.2369213,12.1059474 C41.2369213,11.8283684 40.7149888,11.6957368 40.4398652,11.682 L40.4398652,11.682 Z M2.45393258,10.8094737 L1.32701124,10.8094737 C1.29964045,10.2178421 1.28265169,9.01752632 1.28265169,8.40173684 C1.28265169,8.17057895 1.29208989,7.94415789 1.30388764,7.72010526 C1.75692135,7.82052632 2.15285393,8.05594737 2.45393258,8.37236842 L2.45393258,10.8094737 L2.45393258,10.8094737 Z M23.5525618,6.11668421 L22.7998652,1.31731579 L26.9210562,1.31731579 C27.7119775,1.36705263 30.1725169,2.50578947 33.573573,6.11668421 L23.5525618,6.11668421 L23.5525618,6.11668421 Z M39.0113933,10.4120526 C38.6385843,10.224 38.277573,9.98242105 38.0472809,9.73942105 L37.7311011,9.40689474 C37.338,8.98815789 37.4828764,8.61442105 38.0553034,8.57415789 L39.9792809,8.43868421 C40.2180674,8.98578947 40.3053708,9.72663158 40.3138652,10.4120526 L39.0113933,10.4120526 L39.0113933,10.4120526 Z" id="Fill-5" sketch:type="MSShapeGroup"></path>
        </g>
    </g>
</svg>