<svg width="51px" height="24px" viewBox="0 0 51 24" version="1.1" xmlns="http://www.w3.org/2000/svg" xmlns:xlink="http://www.w3.org/1999/xlink" xmlns:sketch="http://www.bohemiancoding.com/sketch/ns">
    <!-- Generator: Sketch 3.0.4 (8053) - http://www.bohemiancoding.com/sketch -->
    <title>p-5</title>
    <desc>Created with Sketch.</desc>
    <defs></defs>
    <g id="Page-1" stroke="none" stroke-width="1" fill="none" fill-rule="evenodd" sketch:type="MSPage">
        <g id="p-5" sketch:type="MSLayerGroup" transform="translate(1.000000, 1.000000)" fill="#2B3B4D">
            <path d="M10.2581731,17.6825957 L9.55625,17.6825957 L9.20625,18.2996809 L9.55625,18.9172553 L10.2581731,18.9172553 L10.6086538,18.2996809 L10.2581731,17.6825957 L10.2581731,17.6825957 Z M9.90769231,18.6109149 C9.73894231,18.6109149 9.60240385,18.4709574 9.60240385,18.2996809 C9.60240385,18.1284043 9.73894231,17.9894255 9.90769231,17.9894255 C10.0759615,17.9894255 10.2120192,18.1284043 10.2120192,18.2996809 C10.2120192,18.4709574 10.0759615,18.6109149 9.90769231,18.6109149 L9.90769231,18.6109149 Z" id="Fill-1" sketch:type="MSShapeGroup"></path>
            <path id="Fill-2" sketch:type="MSShapeGroup" d="M10.0432692,17.1540851 L10.1783654,16.9162553 L10.0432692,16.6774468 L9.77307692,16.6774468 L9.63653846,16.9162553 L9.77307692,17.1540851 L10.0432692,17.1540851"></path>
            <path id="Fill-3" sketch:type="MSShapeGroup" d="M9.77307692,19.4452766 L9.63653846,19.6831064 L9.77307692,19.9214255 L10.0432692,19.9214255 L10.1783654,19.6831064 L10.0432692,19.4452766 L9.77307692,19.4452766"></path>
            <path id="Fill-4" sketch:type="MSShapeGroup" d="M8.78269231,18.1626596 L8.54807692,18.0241702 L8.31394231,18.1626596 L8.31394231,18.4376809 L8.54807692,18.5751915 L8.78269231,18.4376809 L8.78269231,18.1626596"></path>
            <path id="Fill-5" sketch:type="MSShapeGroup" d="M11.0322115,18.1626596 L11.0322115,18.4376809 L11.2668269,18.5751915 L11.5009615,18.4376809 L11.5009615,18.1626596 L11.2668269,18.0241702 L11.0322115,18.1626596"></path>
            <path d="M9.01634615,17.5871702 L9.20817308,17.3924043 L9.13846154,17.1266809 L8.87548077,17.0547447 L8.68509615,17.2504894 L8.75480769,17.5162128 L9.01634615,17.5871702" id="Fill-6" sketch:type="MSShapeGroup"></path>
            <path d="M10.7980769,19.0121915 L10.6067308,19.2069574 L10.6764423,19.4726809 L10.9394231,19.5441277 L11.1298077,19.3493617 L11.0600962,19.0841277 L10.7980769,19.0121915" id="Fill-7" sketch:type="MSShapeGroup"></path>
            <path d="M8.75480769,19.0841277 L8.68509615,19.3493617 L8.87548077,19.5441277 L9.13846154,19.4726809 L9.20817308,19.2069574 L9.01634615,19.0117021 L8.75480769,19.0841277" id="Fill-8" sketch:type="MSShapeGroup"></path>
            <path d="M11.0600962,17.5162128 L11.1298077,17.2504894 L10.9394231,17.0547447 L10.6764423,17.1266809 L10.6067308,17.3924043 L10.7980769,17.5871702 L11.0600962,17.5162128" id="Fill-9" sketch:type="MSShapeGroup"></path>
            <path d="M9.90769231,14.4072979 C7.79711538,14.4072979 6.08365385,16.1504043 6.08365385,18.2996809 C6.08365385,20.4489574 7.79711538,22.1915745 9.90769231,22.1915745 C12.0177885,22.1915745 13.7307692,20.4489574 13.7307692,18.2996809 C13.7307692,16.1504043 12.0177885,14.4072979 9.90769231,14.4072979 L9.90769231,14.4072979 Z M9.90769231,20.6084894 C8.65528846,20.6084894 7.64038462,19.5744681 7.64038462,18.3001702 C7.64038462,17.0263617 8.65528846,15.9923404 9.90769231,15.9923404 C11.1591346,15.9923404 12.1745192,17.0263617 12.1745192,18.3001702 C12.1745192,19.5744681 11.1591346,20.6084894 9.90769231,20.6084894 L9.90769231,20.6084894 Z" id="Fill-10" sketch:type="MSShapeGroup"></path>
            <path d="M39.5072115,17.6825957 L38.8081731,17.6825957 L38.45625,18.2996809 L38.8081731,18.9172553 L39.5072115,18.9172553 L39.8586538,18.2996809 L39.5072115,17.6825957 L39.5072115,17.6825957 Z M39.15625,18.6109149 C38.9903846,18.6109149 38.8528846,18.4709574 38.8528846,18.2996809 C38.8528846,18.1284043 38.9903846,17.9894255 39.15625,17.9894255 C39.325,17.9894255 39.4629808,18.1284043 39.4629808,18.2996809 C39.4629808,18.4709574 39.325,18.6109149 39.15625,18.6109149 L39.15625,18.6109149 Z" id="Fill-11" sketch:type="MSShapeGroup"></path>
            <path id="Fill-12" sketch:type="MSShapeGroup" d="M39.29375,17.1540851 L39.4283654,16.9162553 L39.29375,16.6774468 L39.0245192,16.6774468 L38.8865385,16.9162553 L39.0245192,17.1540851 L39.29375,17.1540851"></path>
            <path id="Fill-13" sketch:type="MSShapeGroup" d="M39.0245192,19.4452766 L38.8865385,19.6831064 L39.0245192,19.9214255 L39.29375,19.9214255 L39.4283654,19.6831064 L39.29375,19.4452766 L39.0245192,19.4452766"></path>
            <path id="Fill-14" sketch:type="MSShapeGroup" d="M38.0326923,18.1626596 L37.7985577,18.0241702 L37.5639423,18.1626596 L37.5639423,18.4376809 L37.7985577,18.5751915 L38.0326923,18.4376809 L38.0326923,18.1626596"></path>
            <path id="Fill-15" sketch:type="MSShapeGroup" d="M40.2817308,18.1626596 L40.2817308,18.4376809 L40.5153846,18.5751915 L40.75,18.4376809 L40.75,18.1626596 L40.5153846,18.0241702 L40.2817308,18.1626596"></path>
            <path d="M38.2677885,17.5871702 L38.4586538,17.3924043 L38.3884615,17.1266809 L38.1259615,17.0547447 L37.9350962,17.2504894 L38.0048077,17.5162128 L38.2677885,17.5871702" id="Fill-16" sketch:type="MSShapeGroup"></path>
            <path d="M40.0475962,19.0121915 L39.8567308,19.2069574 L39.9264423,19.4726809 L40.1894231,19.5441277 L40.38125,19.3493617 L40.3115385,19.0841277 L40.0475962,19.0121915" id="Fill-17" sketch:type="MSShapeGroup"></path>
            <path d="M38.0048077,19.0841277 L37.9350962,19.3493617 L38.1259615,19.5441277 L38.3884615,19.4726809 L38.4586538,19.2069574 L38.2677885,19.0117021 L38.0048077,19.0841277" id="Fill-18" sketch:type="MSShapeGroup"></path>
            <path d="M40.3115385,17.5162128 L40.38125,17.2504894 L40.1894231,17.0547447 L39.9264423,17.1266809 L39.8567308,17.3924043 L40.0475962,17.5871702 L40.3115385,17.5162128" id="Fill-19" sketch:type="MSShapeGroup"></path>
            <path d="M39.1586538,14.4072979 C37.0475962,14.4072979 35.3341346,16.1504043 35.3341346,18.2996809 C35.3341346,20.4489574 37.0475962,22.1915745 39.1586538,22.1915745 C41.2677885,22.1915745 42.9807692,20.4489574 42.9807692,18.2996809 C42.9807692,16.1504043 41.2677885,14.4072979 39.1586538,14.4072979 L39.1586538,14.4072979 Z M39.15625,20.6084894 C37.9057692,20.6084894 36.8903846,19.5744681 36.8903846,18.3001702 C36.8903846,17.0263617 37.9057692,15.9923404 39.15625,15.9923404 C40.4110577,15.9923404 41.4259615,17.0263617 41.4259615,18.3001702 C41.4259615,19.5744681 40.4110577,20.6084894 39.15625,20.6084894 L39.15625,20.6084894 Z" id="Fill-20" sketch:type="MSShapeGroup"></path>
            <path d="M18.7639423,17.6825957 L18.0625,17.6825957 L17.7129808,18.2996809 L18.0625,18.9172553 L18.7639423,18.9172553 L19.1149038,18.2996809 L18.7639423,17.6825957 L18.7639423,17.6825957 Z M18.4134615,18.6109149 C18.2451923,18.6109149 18.1081731,18.4709574 18.1081731,18.2996809 C18.1081731,18.1284043 18.2451923,17.9894255 18.4134615,17.9894255 C18.5817308,17.9894255 18.7197115,18.1284043 18.7197115,18.2996809 C18.7197115,18.4709574 18.5817308,18.6109149 18.4134615,18.6109149 L18.4134615,18.6109149 Z" id="Fill-21" sketch:type="MSShapeGroup"></path>
            <path id="Fill-22" sketch:type="MSShapeGroup" d="M18.55,17.1540851 L18.6846154,16.9162553 L18.55,16.6774468 L18.2788462,16.6774468 L18.1427885,16.9162553 L18.2788462,17.1540851 L18.55,17.1540851"></path>
            <path id="Fill-23" sketch:type="MSShapeGroup" d="M18.2788462,19.4452766 L18.1427885,19.6831064 L18.2788462,19.9214255 L18.55,19.9214255 L18.6846154,19.6831064 L18.55,19.4452766 L18.2788462,19.4452766"></path>
            <path id="Fill-24" sketch:type="MSShapeGroup" d="M17.2894231,18.1626596 L17.0543269,18.0241702 L16.8206731,18.1626596 L16.8206731,18.4376809 L17.0543269,18.5751915 L17.2894231,18.4376809 L17.2894231,18.1626596"></path>
            <path id="Fill-25" sketch:type="MSShapeGroup" d="M19.5394231,18.1626596 L19.5394231,18.4376809 L19.7725962,18.5751915 L20.0076923,18.4376809 L20.0076923,18.1626596 L19.7725962,18.0241702 L19.5394231,18.1626596"></path>
            <path d="M17.5225962,17.5871702 L17.7139423,17.3924043 L17.6456731,17.1266809 L17.3822115,17.0547447 L17.1908654,17.2504894 L17.2605769,17.5162128 L17.5225962,17.5871702" id="Fill-26" sketch:type="MSShapeGroup"></path>
            <path d="M19.3043269,19.0121915 L19.1134615,19.2069574 L19.1831731,19.4726809 L19.4461538,19.5441277 L19.6370192,19.3493617 L19.5668269,19.0841277 L19.3043269,19.0121915" id="Fill-27" sketch:type="MSShapeGroup"></path>
            <path d="M17.2605769,19.0841277 L17.1908654,19.3493617 L17.3822115,19.5441277 L17.6456731,19.4726809 L17.7139423,19.2069574 L17.5225962,19.0117021 L17.2605769,19.0841277" id="Fill-28" sketch:type="MSShapeGroup"></path>
            <path d="M19.5668269,17.5162128 L19.6370192,17.2504894 L19.4461538,17.0547447 L19.1831731,17.1266809 L19.1134615,17.3924043 L19.3043269,17.5871702 L19.5668269,17.5162128" id="Fill-29" sketch:type="MSShapeGroup"></path>
            <path d="M18.4139423,14.4072979 C16.3028846,14.4072979 14.5899038,16.1504043 14.5899038,18.2996809 C14.5899038,20.4489574 16.3028846,22.1915745 18.4139423,22.1915745 C20.525,22.1915745 22.2370192,20.4489574 22.2370192,18.2996809 C22.2370192,16.1504043 20.525,14.4072979 18.4139423,14.4072979 L18.4139423,14.4072979 Z M18.4134615,20.6084894 C17.1625,20.6084894 16.1461538,19.5744681 16.1461538,18.3001702 C16.1461538,17.0263617 17.1625,15.9923404 18.4134615,15.9923404 C19.6668269,15.9923404 20.6817308,17.0263617 20.6817308,18.3001702 C20.6817308,19.5744681 19.6668269,20.6084894 18.4134615,20.6084894 L18.4134615,20.6084894 Z" id="Fill-30" sketch:type="MSShapeGroup"></path>
            <path d="M48.5769231,13.7828723 C48.6307692,13.7437234 48.6721154,13.6894043 48.6745192,13.6174681 C48.6745192,13.6174681 48.6774038,13.5528723 48.6826923,13.4070426 C48.7538462,10.8809574 48.3509615,7.06980851 48.3509615,7.06980851 C48.3384615,6.94844681 48.2307692,6.84714894 48.1105769,6.84323404 L47.9201923,6.83834043 C47.8596154,4.06659574 46.6245192,0.345978723 46.6245192,0.345978723 C46.5293269,0.0582340426 46.2067308,-0.177148936 45.9081731,-0.177148936 L36.4889423,-0.177148936 C36.1913462,-0.177148936 35.9471154,0.0714468085 35.9471154,0.375340426 L35.9471154,10.8481702 C35.2336538,10.8481702 34.61875,11.2479787 34.2884615,11.8337447 L34.2884615,11.7182553 L-0.132692308,11.7182553 L-0.132692308,12.5105319 C-0.132692308,12.8144255 0.110576923,13.0630213 0.410096154,13.0630213 L2.30288462,13.0630213 L2.30288462,14.8345106 C2.30288462,14.9563617 2.40048077,15.0557021 2.51875,15.0557021 L2.92692308,15.0557021 L2.92692308,16.5521702 C2.92692308,16.6740213 3.02451923,16.7728723 3.14423077,16.7728723 L4.56971154,16.7728723 L4.56971154,18.0784894 C4.56971154,18.1998511 4.66778846,18.2991915 4.78798077,18.2991915 L5.29711538,18.2991915 C5.29711538,15.7075319 7.36057692,13.6071915 9.90769231,13.6071915 C11.2288462,13.6071915 12.3985577,14.1870851 13.2302885,15.0977872 L15.0658654,15.0977872 C15.9048077,14.1861064 17.0879808,13.6071915 18.4139423,13.6071915 C20.9600962,13.6071915 23.0240385,15.7075319 23.0254808,18.2991915 L23.7850962,18.2991915 C23.9043269,18.2991915 24.0019231,18.1998511 24.0019231,18.0784894 L24.0019231,16.7728723 L25.7764423,16.7728723 L25.7764423,17.5264894 C25.7764423,17.9517447 26.1182692,18.2996809 26.5360577,18.2996809 L33.3331731,18.2996809 C33.7269231,18.2996809 34.0427885,17.9869787 34.0788462,17.595 C34.1413462,17.6067447 34.1995192,17.6292553 34.2653846,17.6292553 L34.6129808,17.6292553 C34.9360577,15.3576383 36.8375,13.6071915 39.1576923,13.6071915 C41.4778846,13.6071915 43.3798077,15.3576383 43.7014423,17.6292553 L47.4552885,17.6292553 C48.0509615,17.6292553 48.6764423,17.152617 48.84375,16.5688085 L49.3384615,14.8384255 C49.5033654,14.2629362 49.1605769,13.7936383 48.5769231,13.7828723 L48.5769231,13.7828723 Z M3.46105769,13.0630213 L7.26634615,13.0630213 L7.26634615,13.5372128 L3.46105769,13.5372128 L3.46105769,13.0630213 Z M12.4105769,13.0630213 L16.2163462,13.0630213 L16.2163462,13.5372128 L12.4105769,13.5372128 L12.4105769,13.0630213 Z M23.1730769,13.0630213 L27.1317308,13.0630213 L27.1317308,13.5372128 L23.1730769,13.5372128 L23.1730769,13.0630213 Z M39.7432692,6.80555319 L39.7432692,2.03134043 C39.7432692,1.72793617 39.9870192,1.47934043 40.2855769,1.47934043 L45.5639423,1.47934043 C45.8629808,1.47934043 46.1783654,1.71668085 46.2658654,2.0073617 C46.2658654,2.0073617 47.0322115,4.5412766 47.29375,6.80555319 L39.7432692,6.80555319 L39.7432692,6.80555319 Z" id="Fill-31" sketch:type="MSShapeGroup"></path>
            <path d="M6.08365385,11.0072128 L17.4524038,11.0072128 L17.4524038,11.717766 L6.08365385,11.717766 L6.08365385,11.0072128 Z" id="Fill-32" sketch:type="MSShapeGroup"></path>
        </g>
    </g>
</svg>