<svg width="50px" height="29px" viewBox="0 0 50 29" version="1.1" xmlns="http://www.w3.org/2000/svg" xmlns:xlink="http://www.w3.org/1999/xlink" xmlns:sketch="http://www.bohemiancoding.com/sketch/ns">
    <g id="Page-1" stroke="none" stroke-width="1" fill="none" fill-rule="evenodd" sketch:type="MSPage">
        <g id="p-7" sketch:type="MSLayerGroup" transform="translate(0.000000, 1.000000)" fill="#000000">
            <path d="M39.6403846,22.6230175 L38.9413462,22.6230175 L38.5894231,23.2424561 L38.9413462,23.8628772 L39.6403846,23.8628772 L39.9923077,23.2424561 L39.6403846,22.6230175 L39.6403846,22.6230175 Z M39.2894231,23.554386 C39.1230769,23.554386 38.9860577,23.4153684 38.9860577,23.2424561 C38.9860577,23.0705263 39.1230769,22.9310175 39.2894231,22.9310175 C39.4581731,22.9310175 39.5956731,23.0705263 39.5956731,23.2424561 C39.5956731,23.4153684 39.4581731,23.554386 39.2894231,23.554386 L39.2894231,23.554386 Z" id="Fill-1" sketch:type="MSShapeGroup"></path>
            <path id="Fill-2" sketch:type="MSShapeGroup" d="M39.4269231,22.092 L39.5620192,21.8542456 L39.4269231,21.6145263 L39.1567308,21.6145263 L39.0197115,21.8542456 L39.1567308,22.092 L39.4269231,22.092"></path>
            <path id="Fill-3" sketch:type="MSShapeGroup" d="M39.1567308,24.3924211 L39.0197115,24.6316491 L39.1567308,24.8708772 L39.4269231,24.8708772 L39.5620192,24.6316491 L39.4269231,24.3924211 L39.1567308,24.3924211"></path>
            <path id="Fill-4" sketch:type="MSShapeGroup" d="M38.1658654,23.1054035 L37.93125,22.9668772 L37.6971154,23.1054035 L37.6971154,23.3809825 L37.93125,23.5185263 L38.1658654,23.3809825 L38.1658654,23.1054035"></path>
            <path id="Fill-5" sketch:type="MSShapeGroup" d="M40.4149038,23.1054035 L40.4149038,23.3809825 L40.6490385,23.5185263 L40.8831731,23.3809825 L40.8831731,23.1054035 L40.6490385,22.9668772 L40.4149038,23.1054035"></path>
            <path d="M38.4004808,22.5272281 L38.5913462,22.3322105 L38.5216346,22.0649825 L38.2586538,21.9932632 L38.0682692,22.1897544 L38.1384615,22.456 L38.4004808,22.5272281" id="Fill-6" sketch:type="MSShapeGroup"></path>
            <path d="M40.1802885,23.9576842 L39.9899038,24.153193 L40.0596154,24.4204211 L40.3225962,24.4921404 L40.5139423,24.2961404 L40.4447115,24.0298947 L40.1802885,23.9576842" id="Fill-7" sketch:type="MSShapeGroup"></path>
            <path d="M38.1384615,24.0298947 L38.0682692,24.2961404 L38.2586538,24.4921404 L38.5216346,24.4204211 L38.5913462,24.153193 L38.4004808,23.957193 L38.1384615,24.0298947" id="Fill-8" sketch:type="MSShapeGroup"></path>
            <path d="M40.4447115,22.456 L40.5139423,22.1897544 L40.3225962,21.9932632 L40.0596154,22.0649825 L39.9899038,22.3322105 L40.1802885,22.5272281 L40.4447115,22.456" id="Fill-9" sketch:type="MSShapeGroup"></path>
            <path d="M39.2923077,19.3362105 C37.1802885,19.3362105 35.4668269,21.0854737 35.4668269,23.2424561 C35.4668269,25.4004211 37.1802885,27.1496842 39.2923077,27.1496842 C41.4004808,27.1496842 43.1144231,25.4004211 43.1144231,23.2424561 C43.1144231,21.0854737 41.4004808,19.3362105 39.2923077,19.3362105 L39.2923077,19.3362105 Z M39.2894231,25.5600702 C38.0384615,25.5600702 37.0240385,24.521614 37.0240385,23.2429474 C37.0240385,21.9642807 38.0384615,20.926807 39.2894231,20.926807 C40.5442308,20.926807 41.5586538,21.9642807 41.5586538,23.2429474 C41.5586538,24.521614 40.5442308,25.5600702 39.2894231,25.5600702 L39.2894231,25.5600702 Z" id="Fill-10" sketch:type="MSShapeGroup"></path>
            <path d="M18.8971154,22.6230175 L18.1956731,22.6230175 L17.8461538,23.2424561 L18.1956731,23.8628772 L18.8971154,23.8628772 L19.2480769,23.2424561 L18.8971154,22.6230175 L18.8971154,22.6230175 Z M18.5461538,23.554386 C18.3783654,23.554386 18.2408654,23.4153684 18.2408654,23.2424561 C18.2408654,23.0705263 18.3783654,22.9310175 18.5461538,22.9310175 C18.7153846,22.9310175 18.8524038,23.0705263 18.8524038,23.2424561 C18.8524038,23.4153684 18.7153846,23.554386 18.5461538,23.554386 L18.5461538,23.554386 Z" id="Fill-11" sketch:type="MSShapeGroup"></path>
            <path id="Fill-12" sketch:type="MSShapeGroup" d="M18.6826923,22.092 L18.8177885,21.8542456 L18.6826923,21.6145263 L18.4120192,21.6145263 L18.2769231,21.8542456 L18.4120192,22.092 L18.6826923,22.092"></path>
            <path id="Fill-13" sketch:type="MSShapeGroup" d="M18.4120192,24.3924211 L18.2769231,24.6316491 L18.4120192,24.8708772 L18.6826923,24.8708772 L18.8177885,24.6316491 L18.6826923,24.3924211 L18.4120192,24.3924211"></path>
            <path id="Fill-14" sketch:type="MSShapeGroup" d="M17.4225962,23.1054035 L17.1870192,22.9668772 L16.9543269,23.1054035 L16.9543269,23.3809825 L17.1870192,23.5185263 L17.4225962,23.3809825 L17.4225962,23.1054035"></path>
            <path id="Fill-15" sketch:type="MSShapeGroup" d="M19.6725962,23.1054035 L19.6725962,23.3809825 L19.9052885,23.5185263 L20.1413462,23.3809825 L20.1413462,23.1054035 L19.9052885,22.9668772 L19.6725962,23.1054035"></path>
            <path d="M17.6557692,22.5272281 L17.8471154,22.3322105 L17.7788462,22.0649825 L17.5153846,21.9932632 L17.3240385,22.1897544 L17.39375,22.456 L17.6557692,22.5272281" id="Fill-16" sketch:type="MSShapeGroup"></path>
            <path d="M19.4375,23.9576842 L19.2461538,24.153193 L19.3168269,24.4204211 L19.5788462,24.4921404 L19.7701923,24.2961404 L19.7,24.0298947 L19.4375,23.9576842" id="Fill-17" sketch:type="MSShapeGroup"></path>
            <path d="M17.39375,24.0298947 L17.3240385,24.2961404 L17.5153846,24.4921404 L17.7788462,24.4204211 L17.8471154,24.153193 L17.6557692,23.957193 L17.39375,24.0298947" id="Fill-18" sketch:type="MSShapeGroup"></path>
            <path d="M19.7,22.456 L19.7701923,22.1897544 L19.5788462,21.9932632 L19.3168269,22.0649825 L19.2461538,22.3322105 L19.4375,22.5272281 L19.7,22.456" id="Fill-19" sketch:type="MSShapeGroup"></path>
            <path d="M18.5471154,19.3362105 C16.4365385,19.3362105 14.7230769,21.0854737 14.7230769,23.2424561 C14.7230769,25.4004211 16.4365385,27.1496842 18.5471154,27.1496842 C20.6581731,27.1496842 22.3701923,25.4004211 22.3701923,23.2424561 C22.3701923,21.0854737 20.6581731,19.3362105 18.5471154,19.3362105 L18.5471154,19.3362105 Z M18.5461538,25.5600702 C17.2951923,25.5600702 16.2793269,24.521614 16.2793269,23.2429474 C16.2793269,21.9642807 17.2951923,20.926807 18.5461538,20.926807 C19.8,20.926807 20.8144231,21.9642807 20.8144231,23.2429474 C20.8144231,24.521614 19.8,25.5600702 18.5461538,25.5600702 L18.5461538,25.5600702 Z" id="Fill-20" sketch:type="MSShapeGroup"></path>
            <path d="M10.3908654,22.6230175 L9.68990385,22.6230175 L9.33942308,23.2424561 L9.68990385,23.8628772 L10.3908654,23.8628772 L10.7418269,23.2424561 L10.3908654,22.6230175 L10.3908654,22.6230175 Z M10.0399038,23.554386 C9.87211538,23.554386 9.73461538,23.4153684 9.73461538,23.2424561 C9.73461538,23.0705263 9.87211538,22.9310175 10.0399038,22.9310175 C10.2086538,22.9310175 10.3461538,23.0705263 10.3461538,23.2424561 C10.3461538,23.4153684 10.2086538,23.554386 10.0399038,23.554386 L10.0399038,23.554386 Z" id="Fill-21" sketch:type="MSShapeGroup"></path>
            <path id="Fill-22" sketch:type="MSShapeGroup" d="M10.1759615,22.092 L10.3110577,21.8542456 L10.1759615,21.6145263 L9.90576923,21.6145263 L9.76923077,21.8542456 L9.90576923,22.092 L10.1759615,22.092"></path>
            <path id="Fill-23" sketch:type="MSShapeGroup" d="M9.90576923,24.3924211 L9.76923077,24.6316491 L9.90576923,24.8708772 L10.1759615,24.8708772 L10.3110577,24.6316491 L10.1759615,24.3924211 L9.90576923,24.3924211"></path>
            <path id="Fill-24" sketch:type="MSShapeGroup" d="M8.91586538,23.1054035 L8.68125,22.9668772 L8.44711538,23.1054035 L8.44711538,23.3809825 L8.68125,23.5185263 L8.91586538,23.3809825 L8.91586538,23.1054035"></path>
            <path id="Fill-25" sketch:type="MSShapeGroup" d="M11.1653846,23.1054035 L11.1653846,23.3809825 L11.4,23.5185263 L11.6336538,23.3809825 L11.6336538,23.1054035 L11.4,22.9668772 L11.1653846,23.1054035"></path>
            <path d="M9.14951923,22.5272281 L9.34086538,22.3322105 L9.27115385,22.0649825 L9.00817308,21.9932632 L8.81778846,22.1897544 L8.8875,22.456 L9.14951923,22.5272281" id="Fill-26" sketch:type="MSShapeGroup"></path>
            <path d="M10.93125,23.9576842 L10.7399038,24.153193 L10.8096154,24.4204211 L11.0721154,24.4921404 L11.2634615,24.2961404 L11.1927885,24.0298947 L10.93125,23.9576842" id="Fill-27" sketch:type="MSShapeGroup"></path>
            <path d="M8.8875,24.0298947 L8.81778846,24.2961404 L9.00817308,24.4921404 L9.27115385,24.4204211 L9.34086538,24.153193 L9.14951923,23.957193 L8.8875,24.0298947" id="Fill-28" sketch:type="MSShapeGroup"></path>
            <path d="M11.1927885,22.456 L11.2634615,22.1897544 L11.0721154,21.9932632 L10.8096154,22.0649825 L10.7399038,22.3322105 L10.93125,22.5272281 L11.1927885,22.456" id="Fill-29" sketch:type="MSShapeGroup"></path>
            <path d="M10.0399038,19.3362105 C7.92980769,19.3362105 6.21730769,21.0854737 6.21730769,23.2424561 C6.21730769,25.4004211 7.92980769,27.1496842 10.0399038,27.1496842 C12.1509615,27.1496842 13.8639423,25.4004211 13.8639423,23.2424561 C13.8639423,21.0854737 12.1509615,19.3362105 10.0399038,19.3362105 L10.0399038,19.3362105 Z M10.0399038,25.5600702 C8.78798077,25.5600702 7.77355769,24.521614 7.77355769,23.2429474 C7.77355769,21.9642807 8.78798077,20.926807 10.0399038,20.926807 C11.2923077,20.926807 12.3076923,21.9642807 12.3076923,23.2429474 C12.3076923,24.521614 11.2923077,25.5600702 10.0399038,25.5600702 L10.0399038,25.5600702 Z" id="Fill-30" sketch:type="MSShapeGroup"></path>
            <path d="M34.4216346,12.9964211 L34.4216346,0.415578947 C34.4216346,0.110526316 34.1783654,-0.139017544 33.8793269,-0.139017544 L0.542788462,-0.139017544 C0.244230769,-0.139017544 0,0.110526316 0,0.415578947 L0,12.9964211 L34.4216346,12.9964211" id="Fill-31" sketch:type="MSShapeGroup"></path>
            <path d="M48.7096154,18.7084211 C48.7639423,18.6691228 48.8052885,18.6150877 48.8072115,18.5433684 C48.8072115,18.5433684 48.8100962,18.4775439 48.8158654,18.3321404 C48.8870192,15.7954386 48.4841346,11.9697544 48.4841346,11.9697544 C48.4711538,11.8489123 48.3629808,11.7467368 48.2442308,11.742807 L48.0524038,11.7374035 C47.9927885,8.95459649 46.7572115,5.22077193 46.7572115,5.22077193 C46.6620192,4.93192982 46.3403846,4.69564912 46.0413462,4.69564912 L36.6216346,4.69564912 C36.3245192,4.69564912 36.0798077,4.94470175 36.0798077,5.24975439 L36.0798077,15.7625263 C35.3668269,15.7625263 34.7519231,16.1638596 34.4216346,16.7523509 L34.4216346,13.6885614 L0,13.6885614 L0,17.4317193 C0,17.7367719 0.244230769,17.9858246 0.542788462,17.9858246 L2.43557692,17.9858246 L2.43557692,19.7645614 C2.43557692,19.886386 2.53365385,19.9861053 2.65192308,19.9861053 L3.06009615,19.9861053 L3.06009615,21.4882807 C3.06009615,21.6105965 3.15721154,21.7098246 3.27692308,21.7098246 L4.70336538,21.7098246 L4.70336538,23.0204211 C4.70336538,23.1427368 4.80048077,23.2419649 4.92067308,23.2419649 L5.42980769,23.2419649 C5.42980769,20.6409123 7.49375,18.5320702 10.0399038,18.5320702 C11.3620192,18.5320702 12.5307692,19.1141754 13.3629808,20.0283509 L15.1990385,20.0283509 C16.0375,19.1136842 17.2211538,18.5320702 18.5471154,18.5320702 C21.0927885,18.5320702 23.1572115,20.6409123 23.1581731,23.2419649 L23.9177885,23.2419649 C24.0375,23.2419649 24.1346154,23.1427368 24.1346154,23.0204211 L24.1346154,21.7098246 L25.9096154,21.7098246 L25.9096154,22.4663158 C25.9096154,22.8936842 26.2514423,23.2424561 26.6692308,23.2424561 L33.4658654,23.2424561 C33.8600962,23.2424561 34.1754808,22.9285614 34.2120192,22.5355789 C34.2740385,22.5473684 34.3326923,22.5699649 34.3980769,22.5699649 L34.7456731,22.5699649 C35.06875,20.289193 36.9701923,18.5320702 39.2908654,18.5320702 C41.6105769,18.5320702 43.5125,20.289193 43.8346154,22.5699649 L47.5879808,22.5699649 C48.1846154,22.5699649 48.8091346,22.0905263 48.9764423,21.5059649 L49.4711538,19.7684912 C49.6365385,19.1898246 49.2932692,18.7192281 48.7096154,18.7084211 L48.7096154,18.7084211 Z M3.59423077,17.9858246 L7.39951923,17.9858246 L7.39951923,18.4623158 L3.59423077,18.4623158 L3.59423077,17.9858246 Z M12.54375,17.9858246 L16.3490385,17.9858246 L16.3490385,18.4623158 L12.54375,18.4623158 L12.54375,17.9858246 Z M23.30625,17.9858246 L27.2649038,17.9858246 L27.2649038,18.4623158 L23.30625,18.4623158 L23.30625,17.9858246 Z M39.8759615,11.7044912 L39.8759615,6.91305263 C39.8759615,6.608 40.1201923,6.35845614 40.41875,6.35845614 L45.6971154,6.35845614 C45.9956731,6.35845614 46.3105769,6.59621053 46.3995192,6.888 C46.3995192,6.888 47.1649038,9.43157895 47.4269231,11.7044912 L39.8759615,11.7044912 L39.8759615,11.7044912 Z" id="Fill-32" sketch:type="MSShapeGroup"></path>
        </g>
    </g>
</svg>