<svg width="50px" height="28px" viewBox="0 0 50 28" version="1.1" xmlns="http://www.w3.org/2000/svg" xmlns:xlink="http://www.w3.org/1999/xlink" xmlns:sketch="http://www.bohemiancoding.com/sketch/ns">
    <g id="Page-1" stroke="none" stroke-width="1" fill="none" fill-rule="evenodd" sketch:type="MSPage">
        <g id="p-8" sketch:type="MSLayerGroup" fill="#000000">
            <path d="M19.4584158,23.314 L18.7361386,23.314 L18.3762376,23.9445 L18.7361386,24.576 L19.4584158,24.576 L19.819802,23.9445 L19.4584158,23.314 L19.4584158,23.314 Z M19.0970297,24.262 C18.9242574,24.262 18.7826733,24.1205 18.7826733,23.9445 C18.7826733,23.7695 18.9242574,23.6275 19.0970297,23.6275 C19.2712871,23.6275 19.4123762,23.7695 19.4123762,23.9445 C19.4123762,24.1205 19.2712871,24.262 19.0970297,24.262 L19.0970297,24.262 Z" id="Fill-1" sketch:type="MSShapeGroup"></path>
            <path d="M19.2376238,22.7735 L19.3767327,22.5315 L19.2376238,22.2875 L18.9589109,22.2875 L18.819802,22.5315 L18.9589109,22.7735 L19.2376238,22.7735" id="Fill-2" sketch:type="MSShapeGroup"></path>
            <path d="M18.9589109,25.115 L18.819802,25.3585 L18.9589109,25.602 L19.2376238,25.602 L19.3767327,25.3585 L19.2376238,25.115 L18.9589109,25.115" id="Fill-3" sketch:type="MSShapeGroup"></path>
            <path id="Fill-4" sketch:type="MSShapeGroup" d="M17.940099,23.805 L17.6975248,23.664 L17.4579208,23.805 L17.4579208,24.0855 L17.6975248,24.2255 L17.940099,24.0855 L17.940099,23.805"></path>
            <path id="Fill-5" sketch:type="MSShapeGroup" d="M20.2569307,23.805 L20.2569307,24.0855 L20.4965347,24.2255 L20.739604,24.0855 L20.739604,23.805 L20.4965347,23.664 L20.2569307,23.805"></path>
            <path d="M18.180198,23.2165 L18.3772277,23.018 L18.3069307,22.746 L18.0356436,22.673 L17.8386139,22.873 L17.910396,23.144 L18.180198,23.2165" id="Fill-6" sketch:type="MSShapeGroup"></path>
            <path d="M20.0148515,24.6725 L19.8178218,24.8715 L19.8905941,25.143 L20.160396,25.2165 L20.3574257,25.0165 L20.2851485,24.7455 L20.0148515,24.6725" id="Fill-7" sketch:type="MSShapeGroup"></path>
            <path d="M17.910396,24.7455 L17.8386139,25.0165 L18.0356436,25.2165 L18.3069307,25.143 L18.3772277,24.8715 L18.180198,24.672 L17.910396,24.7455" id="Fill-8" sketch:type="MSShapeGroup"></path>
            <path d="M20.2851485,23.144 L20.3574257,22.873 L20.160396,22.673 L19.8905941,22.746 L19.8178218,23.018 L20.0148515,23.2165 L20.2851485,23.144" id="Fill-9" sketch:type="MSShapeGroup"></path>
            <path d="M19.0980198,19.9685 C16.9247525,19.9685 15.160396,21.749 15.160396,23.9445 C15.160396,26.141 16.9247525,27.9215 19.0980198,27.9215 C21.2717822,27.9215 23.0346535,26.141 23.0346535,23.9445 C23.0346535,21.749 21.2717822,19.9685 19.0980198,19.9685 L19.0980198,19.9685 Z M19.0970297,26.3035 C17.8089109,26.3035 16.7628713,25.2465 16.7628713,23.945 C16.7628713,22.6435 17.8089109,21.5875 19.0970297,21.5875 C20.3881188,21.5875 21.4326733,22.6435 21.4326733,23.945 C21.4326733,25.2465 20.3881188,26.3035 19.0970297,26.3035 L19.0970297,26.3035 Z" id="Fill-10" sketch:type="MSShapeGroup"></path>
            <path d="M10.699505,23.314 L9.97772277,23.314 L9.61683168,23.9445 L9.97772277,24.576 L10.699505,24.576 L11.0608911,23.9445 L10.699505,23.314 L10.699505,23.314 Z M10.3381188,24.262 C10.1653465,24.262 10.0237624,24.1205 10.0237624,23.9445 C10.0237624,23.7695 10.1653465,23.6275 10.3381188,23.6275 C10.5118812,23.6275 10.6534653,23.7695 10.6534653,23.9445 C10.6534653,24.1205 10.5118812,24.262 10.3381188,24.262 L10.3381188,24.262 Z" id="Fill-11" sketch:type="MSShapeGroup"></path>
            <path d="M10.4782178,22.7735 L10.6173267,22.5315 L10.4782178,22.2875 L10.2,22.2875 L10.0594059,22.5315 L10.2,22.7735 L10.4782178,22.7735" id="Fill-12" sketch:type="MSShapeGroup"></path>
            <path d="M10.2,25.115 L10.0594059,25.3585 L10.2,25.602 L10.4782178,25.602 L10.6173267,25.3585 L10.4782178,25.115 L10.2,25.115" id="Fill-13" sketch:type="MSShapeGroup"></path>
            <path id="Fill-14" sketch:type="MSShapeGroup" d="M9.18069307,23.805 L8.93910891,23.664 L8.6980198,23.805 L8.6980198,24.0855 L8.93910891,24.2255 L9.18069307,24.0855 L9.18069307,23.805"></path>
            <path id="Fill-15" sketch:type="MSShapeGroup" d="M11.4970297,23.805 L11.4970297,24.0855 L11.7386139,24.2255 L11.9792079,24.0855 L11.9792079,23.805 L11.7386139,23.664 L11.4970297,23.805"></path>
            <path d="M9.42128713,23.2165 L9.61831683,23.018 L9.54653465,22.746 L9.27574257,22.673 L9.07970297,22.873 L9.15148515,23.144 L9.42128713,23.2165" id="Fill-16" sketch:type="MSShapeGroup"></path>
            <path d="M11.2559406,24.6725 L11.0589109,24.8715 L11.1306931,25.143 L11.4009901,25.2165 L11.5980198,25.0165 L11.5252475,24.7455 L11.2559406,24.6725" id="Fill-17" sketch:type="MSShapeGroup"></path>
            <path d="M9.15148515,24.7455 L9.07970297,25.0165 L9.27574257,25.2165 L9.54653465,25.143 L9.61831683,24.8715 L9.42128713,24.672 L9.15148515,24.7455" id="Fill-18" sketch:type="MSShapeGroup"></path>
            <path d="M11.5252475,23.144 L11.5980198,22.873 L11.4009901,22.673 L11.1306931,22.746 L11.0589109,23.018 L11.2559406,23.2165 L11.5252475,23.144" id="Fill-19" sketch:type="MSShapeGroup"></path>
            <path d="M10.3381188,19.9685 C8.16534653,19.9685 6.4019802,21.749 6.4019802,23.9445 C6.4019802,26.141 8.16534653,27.9215 10.3381188,27.9215 C12.5118812,27.9215 14.2757426,26.141 14.2757426,23.9445 C14.2757426,21.749 12.5118812,19.9685 10.3381188,19.9685 L10.3381188,19.9685 Z M10.3381188,26.3035 C9.0490099,26.3035 8.00445545,25.2465 8.00445545,23.945 C8.00445545,22.6435 9.0490099,21.5875 10.3381188,21.5875 C11.6277228,21.5875 12.6732673,22.6435 12.6732673,23.945 C12.6732673,25.2465 11.6277228,26.3035 10.3381188,26.3035 L10.3381188,26.3035 Z" id="Fill-20" sketch:type="MSShapeGroup"></path>
            <path d="M49.0509901,13.5155 L49.0509901,0.71 C49.0509901,0.3995 48.800495,0.1455 48.4925743,0.1455 L0.558910891,0.1455 C0.251485149,0.1455 0,0.3995 0,0.71 L0,13.5155 L49.0509901,13.5155" id="Fill-21" sketch:type="MSShapeGroup"></path>
            <path d="M35.4440594,14.22 L0,14.22 L0,18.03 C0,18.3405 0.251485149,18.594 0.558910891,18.594 L2.50792079,18.594 L2.50792079,20.4045 C2.50792079,20.5285 2.60891089,20.63 2.73069307,20.63 L3.1509901,20.63 L3.1509901,22.159 C3.1509901,22.2835 3.2509901,22.3845 3.37425743,22.3845 L4.84306931,22.3845 L4.84306931,23.7185 C4.84306931,23.843 4.94306931,23.944 5.06683168,23.944 L5.59108911,23.944 C5.59108911,21.2965 7.71633663,19.15 10.3381188,19.15 C11.699505,19.15 12.9029703,19.7425 13.759901,20.673 L15.650495,20.673 C16.5138614,19.742 17.7326733,19.15 19.0980198,19.15 C21.7193069,19.15 23.8450495,21.2965 23.8460396,23.944 L24.6282178,23.944 C24.7514851,23.944 24.8514851,23.843 24.8514851,23.7185 L24.8514851,22.3845 L27.640099,22.3845 L35.4440594,14.22 Z M3.7009901,18.594 L7.61930693,18.594 L7.61930693,19.079 L3.7009901,19.079 L3.7009901,18.594 Z M12.9163366,18.594 L16.8346535,18.594 L16.8346535,19.079 L12.9163366,19.079 L12.9163366,18.594 Z M23.9985149,18.594 L28.0747525,18.594 L28.0747525,19.079 L23.9985149,19.079 L23.9985149,18.594 Z" id="Fill-22" sketch:type="MSShapeGroup"></path>
            <path d="M13.6074257,14.22 L49.0509901,14.22 L49.0509901,18.03 C49.0509901,18.3405 48.799505,18.594 48.4920792,18.594 L29.7029703,18.594" id="Fill-23" sketch:type="MSShapeGroup"></path>
            <path d="M31.6049505,17.8205 L47.1821782,17.8205 L47.1821782,19.495 C47.1821782,19.6315 47.0712871,19.743 46.9361386,19.743 L38.6787129,19.743" id="Fill-24" sketch:type="MSShapeGroup"></path>
            <path d="M40.8881188,15.2855 L40.8881188,26.7925 C40.8881188,26.9235 40.7821782,27.0325 40.6524752,27.0325 L39.8554455,27.0325 C39.7252475,27.0325 39.619802,27.1385 39.619802,27.267 L39.619802,27.444 C39.619802,27.5765 39.7252475,27.6835 39.8554455,27.6835 L43.1331683,27.6835 C43.2633663,27.6835 43.3688119,27.5765 43.3688119,27.444 L43.3688119,27.267 C43.3688119,27.1385 43.2633663,27.0325 43.1331683,27.0325 L42.3361386,27.0325 C42.2064356,27.0325 42.100495,26.9235 42.100495,26.7925 L42.100495,15.2855" id="Fill-25" sketch:type="MSShapeGroup"></path>
        </g>
    </g>
</svg>