<?xml version="1.0" encoding="UTF-8" standalone="no"?>
<svg width="40px" height="25px" viewBox="0 0 40 25" version="1.1" xmlns="http://www.w3.org/2000/svg" xmlns:xlink="http://www.w3.org/1999/xlink" xmlns:sketch="http://www.bohemiancoding.com/sketch/ns">
    <!-- Generator: Sketch 3.0.4 (8053) - http://www.bohemiancoding.com/sketch -->
    <title>p-9</title>
    <desc>Created with Sketch.</desc>
    <defs></defs>
    <g id="Page-1" stroke="none" stroke-width="1" fill="none" fill-rule="evenodd" sketch:type="MSPage">
        <g id="p-9" sketch:type="MSLayerGroup" fill="#000000">
            <path d="M11.1076543,18.8821429 L10.2488889,18.8821429 L9.81975309,19.6479592 L10.2488889,20.4153061 L11.1076543,20.4153061 L11.5358025,19.6479592 L11.1076543,18.8821429 L11.1076543,18.8821429 Z M10.6780247,20.0341837 C10.4716049,20.0341837 10.3046914,19.8612245 10.3046914,19.6479592 C10.3046914,19.4352041 10.4716049,19.2622449 10.6780247,19.2622449 C10.8844444,19.2622449 11.051358,19.4352041 11.051358,19.6479592 C11.051358,19.8612245 10.8844444,20.0341837 10.6780247,20.0341837 L10.6780247,20.0341837 Z" id="Fill-1" sketch:type="MSShapeGroup"></path>
            <path d="M10.8434568,18.2255102 L11.0103704,17.930102 L10.8434568,17.6336735 L10.5135802,17.6336735 L10.3466667,17.930102 L10.5135802,18.2255102 L10.8434568,18.2255102" id="Fill-2" sketch:type="MSShapeGroup"></path>
            <path d="M10.5135802,21.069898 L10.3466667,21.3668367 L10.5135802,21.6627551 L10.8434568,21.6627551 L11.0103704,21.3668367 L10.8434568,21.069898 L10.5135802,21.069898" id="Fill-3" sketch:type="MSShapeGroup"></path>
            <path d="M9.30222222,19.477551 L9.01481481,19.3061224 L8.72790123,19.477551 L8.72790123,19.8193878 L9.01481481,19.9903061 L9.30222222,19.8193878 L9.30222222,19.477551" id="Fill-4" sketch:type="MSShapeGroup"></path>
            <path d="M12.0548148,19.477551 L12.0548148,19.8193878 L12.3417284,19.9903061 L12.6276543,19.8193878 L12.6276543,19.477551 L12.3417284,19.3061224 L12.0548148,19.477551" id="Fill-5" sketch:type="MSShapeGroup"></path>
            <path d="M9.58864198,18.7627551 L9.82271605,18.5214286 L9.73679012,18.1913265 L9.41580247,18.102551 L9.18222222,18.3454082 L9.26765432,18.675 L9.58864198,18.7627551" id="Fill-6" sketch:type="MSShapeGroup"></path>
            <path d="M11.7683951,20.5326531 L11.5338272,20.7744898 L11.6192593,21.105102 L11.9402469,21.1938776 L12.1733333,20.9515306 L12.0888889,20.6219388 L11.7683951,20.5326531" id="Fill-7" sketch:type="MSShapeGroup"></path>
            <path d="M9.26765432,20.6219388 L9.18222222,20.9515306 L9.41580247,21.1938776 L9.73679012,21.105102 L9.82271605,20.7744898 L9.58864198,20.5321429 L9.26765432,20.6219388" id="Fill-8" sketch:type="MSShapeGroup"></path>
            <path d="M12.0888889,18.675 L12.1733333,18.3454082 L11.9402469,18.102551 L11.6192593,18.1913265 L11.5338272,18.5214286 L11.7683951,18.7627551 L12.0888889,18.675" id="Fill-9" sketch:type="MSShapeGroup"></path>
            <path d="M10.6780247,14.8147959 C8.09580247,14.8147959 6.00049383,16.9795918 6.00049383,19.6479592 C6.00049383,22.3173469 8.09580247,24.4816327 10.6780247,24.4816327 C13.2602469,24.4816327 15.3560494,22.3173469 15.3560494,19.6479592 C15.3560494,16.9795918 13.2602469,14.8147959 10.6780247,14.8147959 L10.6780247,14.8147959 Z M10.6780247,22.5158163 C9.14617284,22.5158163 7.9037037,21.2311224 7.9037037,19.6494898 C7.9037037,18.0668367 9.14617284,16.7826531 10.6780247,16.7826531 C12.2098765,16.7826531 13.4523457,18.0668367 13.4523457,19.6494898 C13.4523457,21.2311224 12.2098765,22.5158163 10.6780247,22.5158163 L10.6780247,22.5158163 Z" id="Fill-10" sketch:type="MSShapeGroup"></path>
            <path d="M33.7496296,17.1622449 C33.7496296,16.5816327 33.294321,16.1112245 32.7328395,16.1112245 C32.1708642,16.1112245 31.7155556,16.5816327 31.7155556,17.1622449 C31.7155556,17.7423469 32.1708642,18.2132653 32.7328395,18.2132653 C33.294321,18.2132653 33.7496296,17.7423469 33.7496296,17.1622449" id="Fill-11" sketch:type="MSShapeGroup"></path>
            <path d="M32.7328395,9.80612245 C29.8158025,9.80612245 27.3116049,11.6204082 26.2108642,14.2147959 L24.0765432,14.2147959 C23.5175309,14.2147959 23.0592593,14.6882653 23.0592593,15.2658163 L23.0592593,15.7857143 L21.7876543,15.7857143 L21.7876543,15.2571429 C24.702716,13.4372449 26.8103704,8.21377551 26.8103704,2.04489796 C26.8103704,1.80255102 26.7985185,1.56632653 26.7911111,1.32755102 C27.0864198,1.34030612 27.3871605,1.34540816 27.6809877,1.35969388 L27.7046914,1.35969388 C27.9753086,1.35969388 28.2004938,1.14030612 28.2123457,0.858673469 C28.225679,0.568877551 28.0079012,0.322959184 27.7279012,0.309693878 C23.2439506,0.0974489796 18.5753086,0.0852040816 14.0750617,0.27244898 C13.7945679,0.284183673 13.5762963,0.528571429 13.5876543,0.818877551 C13.5985185,1.10816327 13.8291358,1.34387755 14.1160494,1.32244898 C14.2612346,1.31632653 14.4093827,1.31479592 14.5555556,1.30918367 C14.2745679,2.80561224 14.0330864,4.3505102 13.8424691,5.94795918 C12.1644444,5.77244898 10.2864198,5.93061224 8.37333333,6.48877551 C7.11654321,6.85510204 5.98123457,7.37346939 4.96345679,7.98061224 L5.36197531,8.39183673 C5.06666667,8.58826531 4.7837037,8.79183673 4.51555556,9.00357143 L4.08,8.55357143 C3.89283951,8.68571429 3.6962963,8.8122449 3.52049383,8.95102041 L3.99407407,9.44030612 C3.86469136,9.55459184 3.73135802,9.66785714 3.60987654,9.78622449 L3.12444444,9.28418367 C2.95259259,9.43112245 2.76296296,9.56989796 2.60444444,9.72295918 L3.14123457,10.277551 C2.90320988,10.5418367 2.68296296,10.8112245 2.48641975,11.0867347 L1.89728395,10.4780612 C1.74864198,10.6535714 1.59901235,10.8290816 1.46716049,11.0091837 L2.1037037,11.6663265 C2.00938272,11.8260204 1.93135802,11.9872449 1.85135802,12.1489796 L1.17333333,11.4489796 C1.04691358,11.6479592 0.915555556,11.847449 0.812345679,12.0505102 L1.56345679,12.8265306 C1.4217284,13.2239796 1.32740741,13.6234694 1.28197531,14.022449 L0.381234568,13.0918367 C0.112098765,13.9780612 0.0711111111,14.8734694 0.30617284,15.7326531 C0.432098765,16.1918367 0.632098765,16.6163265 0.891851852,17.0066327 C0.362962963,17.2147959 0.0538271605,17.7311224 0.168395062,18.3352041 C0.317037037,19.1214286 1.1254321,19.7642857 1.96444444,19.7642857 L5.15555556,19.7642857 C5.11308642,19.475 5.08444444,19.1816327 5.08444444,18.8806122 C5.08444444,15.6882653 7.58864198,13.4530612 10.6780247,13.4530612 C13.7674074,13.4530612 16.2725926,15.6882653 16.2725926,18.8806122 C16.2725926,19.1816327 16.242963,19.475 16.2,19.7642857 L16.6488889,19.7642857 C16.6498765,19.7642857 16.6503704,19.7653061 16.6508642,19.7653061 L21.5841975,19.7653061 C21.6962963,19.7653061 21.7876543,19.6709184 21.7876543,19.555102 L21.7876543,18.5382653 L23.0592593,18.5382653 L23.0592593,19.0591837 C23.0592593,19.6362245 23.5175309,20.1096939 24.0765432,20.1096939 L26.2108642,20.1096939 C27.3116049,22.7040816 29.8158025,24.5183673 32.7328395,24.5183673 C36.665679,24.5183673 39.8528395,21.2244898 39.8528395,17.1622449 C39.8528395,13.0994898 36.665679,9.80612245 32.7328395,9.80612245 L32.7328395,9.80612245 Z M17.3382716,6.56887755 C16.6725926,6.40969388 15.9985185,6.25969388 15.3130864,6.12346939 C15.0251852,6.06581633 14.7392593,6.01428571 14.4523457,5.96173469 C14.637037,4.42857143 14.8671605,2.90153061 15.1525926,1.39183673 C15.8874074,1.36632653 16.614321,1.34897959 17.3382716,1.33367347 L17.3382716,6.56887755 L17.3382716,6.56887755 Z M18.2711111,6.80102041 L18.2711111,1.31632653 C19.0162963,1.30510204 19.7595062,1.29642857 20.4854321,1.29642857 C22.371358,1.29642857 24.2874074,1.33214286 26.1901235,1.40306122 C26.1955556,1.61581633 26.1995062,1.82959184 26.1995062,2.04489796 C26.1995062,4.62244898 25.8024691,7.0505102 25.1318519,9.11377551 C23.0454321,8.22193878 20.7377778,7.4377551 18.2711111,6.80102041 L18.2711111,6.80102041 Z M32.7328395,23.4397959 C30.4083951,23.4397959 28.3911111,22.0903061 27.3693827,20.1096939 L28.9683951,20.1096939 C29.8340741,21.2877551 31.1906173,22.0602041 32.7328395,22.0602041 C35.3511111,22.0602041 37.4730864,19.8678571 37.4730864,17.1622449 C37.4730864,14.4571429 35.3511111,12.2642857 32.7328395,12.2642857 C31.1906173,12.2642857 29.8340741,13.0367347 28.9683951,14.2147959 L27.3683951,14.2147959 C28.3911111,12.2341837 30.4083951,10.8846939 32.7328395,10.8846939 C36.0888889,10.8846939 38.8083951,13.694898 38.8083951,17.1622449 C38.8083951,20.6290816 36.0888889,23.4397959 32.7328395,23.4397959 L32.7328395,23.4397959 Z M30.5437037,17.1622449 C30.5437037,15.9137755 31.5234568,14.9010204 32.7328395,14.9010204 C33.9412346,14.9010204 34.9214815,15.9137755 34.9214815,17.1622449 C34.9214815,18.4112245 33.9412346,19.4234694 32.7328395,19.4234694 C31.5234568,19.4234694 30.5437037,18.4112245 30.5437037,17.1622449 L30.5437037,17.1622449 Z" id="Fill-12" sketch:type="MSShapeGroup"></path>
        </g>
    </g>
</svg>