<?xml version="1.0" encoding="UTF-8" standalone="no"?>
<svg width="65px" height="65px" viewBox="0 0 65 65" version="1.1" xmlns="http://www.w3.org/2000/svg" xmlns:xlink="http://www.w3.org/1999/xlink" xmlns:sketch="http://www.bohemiancoding.com/sketch/ns">
    <!-- Generator: Sketch 3.0.4 (8053) - http://www.bohemiancoding.com/sketch -->
    <title>print</title>
    <desc>Created with Sketch.</desc>
    <defs></defs>
    <g id="Page-1" stroke="none" stroke-width="1" fill="none" fill-rule="evenodd" sketch:type="MSPage">
        <g id="print" sketch:type="MSLayerGroup" transform="translate(1.000000, 1.000000)" fill="#0B0B0A">
            <path d="M1.802,53.863 L13.802,53.863 L13.802,61.863 C13.802,62.968 14.698,63.863 15.802,63.863 L47.802,63.863 C48.907,63.863 49.802,62.968 49.802,61.863 L49.802,53.863 L61.802,53.863 C62.907,53.863 63.802,52.968 63.802,51.863 L63.802,19.863 C63.802,18.759 62.907,17.863 61.802,17.863 L49.802,17.863 L49.802,1.863 C49.802,0.759 48.907,-0.137 47.802,-0.137 L15.802,-0.137 C14.698,-0.137 13.802,0.759 13.802,1.863 L13.802,17.863 L1.802,17.863 C0.698,17.863 -0.198,18.759 -0.198,19.863 L-0.198,51.863 C-0.198,52.968 0.698,53.863 1.802,53.863 L1.802,53.863 Z M17.802,39.863 L45.802,39.863 L45.802,59.863 L17.802,59.863 L17.802,39.863 Z M17.802,3.863 L45.802,3.863 L45.802,17.863 L17.802,17.863 L17.802,3.863 Z M3.802,21.863 L59.802,21.863 L59.802,49.863 L49.802,49.863 L49.802,37.863 C49.802,36.759 48.907,35.863 47.802,35.863 L15.802,35.863 C14.698,35.863 13.802,36.759 13.802,37.863 L13.802,49.863 L3.802,49.863 L3.802,21.863 L3.802,21.863 Z" id="Fill-1" sketch:type="MSShapeGroup"></path>
            <path d="M11.212,25.453 C10.472,24.703 9.132,24.703 8.392,25.453 C8.013,25.823 7.802,26.333 7.802,26.863 C7.802,27.383 8.013,27.903 8.392,28.283 C8.763,28.653 9.272,28.863 9.802,28.863 C10.333,28.863 10.843,28.653 11.222,28.273 C11.593,27.903 11.802,27.383 11.802,26.863 C11.802,26.333 11.593,25.823 11.212,25.453" id="Fill-2" sketch:type="MSShapeGroup"></path>
            <path d="M15.802,28.863 C16.333,28.863 16.843,28.653 17.212,28.273 C17.593,27.903 17.802,27.383 17.802,26.863 C17.802,26.344 17.593,25.823 17.212,25.443 C16.472,24.703 15.132,24.703 14.392,25.453 C14.013,25.823 13.802,26.333 13.802,26.863 C13.802,27.383 14.013,27.903 14.392,28.283 C14.763,28.653 15.272,28.863 15.802,28.863" id="Fill-3" sketch:type="MSShapeGroup"></path>
            <path d="M41.802,43.863 L21.802,43.863 C20.698,43.863 19.802,44.759 19.802,45.863 C19.802,46.968 20.698,47.863 21.802,47.863 L41.802,47.863 C42.907,47.863 43.802,46.968 43.802,45.863 C43.802,44.759 42.907,43.863 41.802,43.863" id="Fill-4" sketch:type="MSShapeGroup"></path>
            <path d="M41.802,51.863 L21.802,51.863 C20.698,51.863 19.802,52.759 19.802,53.863 C19.802,54.968 20.698,55.863 21.802,55.863 L41.802,55.863 C42.907,55.863 43.802,54.968 43.802,53.863 C43.802,52.759 42.907,51.863 41.802,51.863" id="Fill-5" sketch:type="MSShapeGroup"></path>
        </g>
    </g>
</svg>