<?xml version="1.0" encoding="UTF-8" standalone="no"?>
<svg width="51px" height="43px" viewBox="0 0 51 43" version="1.1" xmlns="http://www.w3.org/2000/svg" xmlns:xlink="http://www.w3.org/1999/xlink" xmlns:sketch="http://www.bohemiancoding.com/sketch/ns">
    <!-- Generator: Sketch 3.0.4 (8053) - http://www.bohemiancoding.com/sketch -->
    <title>p-10</title>
    <desc>Created with Sketch.</desc>
    <defs></defs>
    <g id="Page-1" stroke="none" stroke-width="1" fill="none" fill-rule="evenodd" sketch:type="MSPage">
        <g id="p-10" sketch:type="MSLayerGroup" transform="translate(1.000000, 0.000000)" fill="#000000">
            <path d="M49.3094118,36.1724247 L49.2782353,36.048137 C49.25,35.933863 49.1494118,35.8590548 49.0382353,35.8525753 L48.3617647,33.1500548 L48.5752941,33.0964521 C48.6311765,33.0823151 48.6664706,33.024589 48.6517647,32.9686301 L47.8717647,29.8502466 C47.8570588,29.7936986 47.8,29.7595342 47.7435294,29.7736712 L47.0088235,29.9580411 C46.9329412,29.7241918 46.8458824,29.5115479 46.7523529,29.3171644 C46.9876471,29.2676849 47.1682353,29.068589 47.1682353,28.8176575 C47.1682353,28.5296164 46.9358824,28.2969452 46.6488235,28.2969452 C46.5688235,28.2969452 46.4947059,28.3187397 46.4270588,28.3505479 L44.5458824,25.5590822 L44.6929412,25.4595342 C44.7417647,25.4265479 44.7541176,25.3611644 44.7217647,25.312863 L43.4388235,23.4084932 C43.3952941,22.9967534 43.2364706,22.5490822 42.9482353,22.1326301 C42.2870588,21.1795616 41.2352941,20.7648767 40.6005882,21.2066575 C40.1517647,21.5182603 40.0370588,22.1744521 40.2358824,22.8677534 L33.0611765,31.1596849 C32.9829412,31.2503973 32.9211765,31.346411 32.8758824,31.4418356 C32.7841176,31.404137 32.6841176,31.3823425 32.5782353,31.3823425 L29.9070588,31.3823425 C29.4723529,31.3823425 29.0405882,31.7298767 28.9476471,32.1551644 L28.7582353,33.0181096 L25.4176471,33.0181096 C24.8388235,33.0181096 24.2705882,33.4840411 24.1558824,34.0524658 L24.1482353,34.0907534 L25.1935294,34.0907534 L25.1935294,34.5195753 L24.0617647,34.5195753 L23.9123529,35.2611781 L25.1935294,35.2611781 L25.1935294,35.689411 L23.8264706,35.689411 L23.6770588,36.4310137 L25.1935294,36.4310137 L25.1935294,36.8598356 L23.5905882,36.8598356 L23.5194118,37.2156164 C23.4047059,37.7846301 23.7852941,38.2499726 24.3641176,38.2499726 L39.3023529,38.2499726 C39.5917647,38.2499726 39.7082353,38.0903425 39.5588235,37.8953699 C39.41,37.7003973 39.0517647,37.5407671 38.7623529,37.5407671 L37.7117647,37.5407671 C38.4370588,37.2156164 39.0411765,36.7979863 39.4529412,36.3079041 C39.4411765,34.8329452 39.1211765,33.4775616 38.5905882,32.3860685 C37.9276471,31.9383973 37.0764706,31.5961644 36.1141176,31.3947123 L41.2611765,24.3839452 C41.5111765,24.5789178 41.7764706,24.7114521 42.0347059,24.7797808 L45.2258824,29.5150822 L45.2470588,29.5009452 C45.2452941,29.8761644 45.2976471,30.3120548 45.4117647,30.7673836 C45.5858824,31.4648082 45.8658824,32.0479589 46.1611765,32.4066849 L47.1447059,36.334411 C45.7841176,37.4665479 44.2464706,38.1315753 42.8276471,38.2853151 C42.9564706,38.4950137 43.0982353,38.6893973 43.25,38.8525616 C43.8382353,39.488137 45.0305882,40.0347671 45.8988235,40.0671644 L46.62,40.0942603 C47.4882353,40.1272466 48.2258824,39.4421918 48.2576471,38.5721781 L48.3176471,36.9699863 C48.3205882,36.8769178 48.3088235,36.7873836 48.2964706,36.6990274 L49.1176471,36.492863 C49.2588235,36.4575205 49.3447059,36.3132055 49.3094118,36.1724247 L49.3094118,36.1724247 Z M38.4682353,32.7813151 C38.88,33.5034795 39.1276471,34.400589 39.1364706,35.3766301 C38.4529412,36.0705205 37.1105882,36.5594247 35.5270588,36.6454247 C35.1370588,34.9507534 35.1641176,33.3002603 35.5382353,32.1404384 C35.5558824,32.0974384 35.5694118,32.0503151 35.5876471,32.0084932 C36.7305882,32.0791781 37.7423529,32.3636849 38.4682353,32.7813151 L38.4682353,32.7813151 Z M40.2770588,23.9533562 L36.4217647,28.408274 C36.3623529,28.4783699 36.2694118,28.5143014 36.2176471,28.4872055 L35.9564706,28.3729315 C35.8994118,28.3534932 35.9047059,28.279863 35.9652941,28.208589 L39.8923529,23.6700274 C39.9547059,23.5993425 40.0429412,23.5687123 40.0894118,23.6034658 L40.3047059,23.7613288 C40.3511765,23.7960822 40.3394118,23.8820822 40.2770588,23.9533562 L40.2770588,23.9533562 Z M45.71,28.3334658 C45.7076471,28.3340548 45.7052941,28.336411 45.7029412,28.337 L44.0429412,25.8724521 C44.0617647,25.871863 44.0817647,25.8730411 44.0988235,25.8612603 L44.3105882,25.7175342 L46.1994118,28.5213699 C46.0305882,28.3717534 45.8623529,28.2951781 45.71,28.3334658 L45.71,28.3334658 Z M48.1770588,36.0522603 L47.4929412,33.3208767 C47.5176471,33.3409041 47.5482353,33.353863 47.5823529,33.3456164 L47.8982353,33.2666849 L48.57,35.9538904 L48.1770588,36.0522603 L48.1770588,36.0522603 Z" id="Fill-1" sketch:type="MSShapeGroup"></path>
            <path d="M37.99,38.4537808 L25.3170588,38.4537808 C24.2282353,38.4537808 23.3417647,39.2707808 23.3417647,40.2745068 C23.3417647,41.2782329 24.2282353,42.0952329 25.3170588,42.0952329 L37.99,42.0952329 C39.0788235,42.0952329 39.9647059,41.2782329 39.9647059,40.2745068 C39.9647059,39.2707808 39.0788235,38.4537808 37.99,38.4537808 L37.99,38.4537808 Z M37.99,41.8313425 L25.3170588,41.8313425 C24.3729412,41.8313425 23.6052941,41.1333288 23.6052941,40.2745068 C23.6052941,39.4156849 24.3729412,38.7170822 25.3170588,38.7170822 L37.99,38.7170822 C38.9335294,38.7170822 39.7017647,39.4156849 39.7017647,40.2745068 C39.7017647,41.1333288 38.9335294,41.8313425 37.99,41.8313425 L37.99,41.8313425 Z" id="Fill-2" sketch:type="MSShapeGroup"></path>
            <path d="M38.2447059,39.2195342 C37.7758824,39.2195342 37.3835294,39.5281918 37.2464706,39.9517123 L36.62,39.9517123 C36.4835294,39.5281918 36.0911765,39.2195342 35.6223529,39.2195342 C35.1535294,39.2195342 34.7611765,39.5281918 34.6247059,39.9517123 L33.9976471,39.9517123 C33.8611765,39.5281918 33.4682353,39.2195342 33,39.2195342 C32.5311765,39.2195342 32.1388235,39.5281918 32.0017647,39.9517123 L31.3752941,39.9517123 C31.2382353,39.5281918 30.8458824,39.2195342 30.3776471,39.2195342 C29.9088235,39.2195342 29.5164706,39.5281918 29.3794118,39.9517123 L28.7529412,39.9517123 C28.6158824,39.5281918 28.2235294,39.2195342 27.7552941,39.2195342 C27.2864706,39.2195342 26.8941176,39.5281918 26.7570588,39.9517123 L26.1305882,39.9517123 C25.9935294,39.5281918 25.6011765,39.2195342 25.1329412,39.2195342 C24.5505882,39.2195342 24.0794118,39.6919452 24.0794118,40.2745068 C24.0794118,40.8570685 24.5505882,41.3294795 25.1329412,41.3294795 C25.6011765,41.3294795 25.9935294,41.0208219 26.1305882,40.5967123 L26.7570588,40.5967123 C26.8941176,41.0208219 27.2864706,41.3294795 27.7552941,41.3294795 C28.2235294,41.3294795 28.6158824,41.0208219 28.7529412,40.5967123 L29.3794118,40.5967123 C29.5158824,41.0208219 29.9088235,41.3294795 30.3776471,41.3294795 C30.8458824,41.3294795 31.2388235,41.0208219 31.3752941,40.5967123 L32.0017647,40.5967123 C32.1382353,41.0208219 32.5311765,41.3294795 33,41.3294795 C33.4682353,41.3294795 33.8611765,41.0208219 33.9976471,40.5967123 L34.6247059,40.5967123 C34.7611765,41.0208219 35.1535294,41.3294795 35.6223529,41.3294795 C36.0911765,41.3294795 36.4835294,41.0208219 36.62,40.5967123 L37.2464706,40.5967123 C37.3835294,41.0208219 37.7758824,41.3294795 38.2447059,41.3294795 C38.8258824,41.3294795 39.2976471,40.8570685 39.2976471,40.2745068 C39.2976471,39.6919452 38.8258824,39.2195342 38.2447059,39.2195342 L38.2447059,39.2195342 Z M27.7552941,40.8912329 C27.4147059,40.8912329 27.1388235,40.6149726 27.1388235,40.2745068 C27.1388235,39.9340411 27.4147059,39.6577808 27.7552941,39.6577808 C28.0952941,39.6577808 28.3705882,39.9340411 28.3705882,40.2745068 C28.3705882,40.6149726 28.0952941,40.8912329 27.7552941,40.8912329 L27.7552941,40.8912329 Z M30.3776471,40.8912329 C30.0376471,40.8912329 29.7617647,40.6149726 29.7617647,40.2745068 C29.7617647,39.9340411 30.0376471,39.6577808 30.3776471,39.6577808 C30.7176471,39.6577808 30.9935294,39.9340411 30.9935294,40.2745068 C30.9935294,40.6149726 30.7176471,40.8912329 30.3776471,40.8912329 L30.3776471,40.8912329 Z M33,40.8912329 C32.66,40.8912329 32.3841176,40.6149726 32.3841176,40.2745068 C32.3841176,39.9340411 32.66,39.6577808 33,39.6577808 C33.3394118,39.6577808 33.6152941,39.9340411 33.6152941,40.2745068 C33.6152941,40.6149726 33.3394118,40.8912329 33,40.8912329 L33,40.8912329 Z M35.6223529,40.8912329 C35.2823529,40.8912329 35.0064706,40.6149726 35.0064706,40.2745068 C35.0064706,39.9340411 35.2823529,39.6577808 35.6223529,39.6577808 C35.9623529,39.6577808 36.2382353,39.9340411 36.2382353,40.2745068 C36.2382353,40.6149726 35.9623529,40.8912329 35.6223529,40.8912329 L35.6223529,40.8912329 Z" id="Fill-3" sketch:type="MSShapeGroup"></path>
            <path d="M1.54764706,34.213274 L10.8147059,34.213274 L10.8147059,35.9002877 L1.54764706,35.9002877 L1.54764706,34.213274 Z" id="Fill-4" sketch:type="MSShapeGroup"></path>
            <path d="M1.54764706,36.3114384 L10.8147059,36.3114384 L10.8147059,37.9984521 L1.54764706,37.9984521 L1.54764706,36.3114384 Z" id="Fill-5" sketch:type="MSShapeGroup"></path>
            <path d="M7.00941176,40.9619178 L17.7205882,40.9619178 L17.7205882,39.975863 L17.1564706,39.975863 L17.1564706,39.5411507 L16.6605882,39.5411507 L16.6605882,38.9621233 L16.2017647,38.9621233 L16.2017647,38.3059315 L16.0158824,38.3059315 L16.0158824,27.433411 L12.3217647,27.433411 L12.3217647,38.3059315 L12.1364706,38.3059315 L12.1364706,38.9621233 L11.6758824,38.9621233 L11.6758824,39.5411507 L11.18,39.5411507 L11.18,39.975863 L10.8147059,39.975863 L10.8147059,38.4084247 L1.54764706,38.4084247 L1.54764706,40.0960274 L3.17058824,40.0960274 L3.17058824,40.9619178 L7.00941176,40.9619178 L7.00941176,40.9619178 Z M12.9629412,30.7691507 L14.1688235,29.5622055 L15.3747059,30.7691507 L12.9629412,30.7691507 L12.9629412,30.7691507 Z M15.6523529,30.4905342 L14.4470588,29.283589 L15.6523529,28.0754658 L15.6523529,30.4905342 L15.6523529,30.4905342 Z M15.3747059,27.7974384 L14.1688235,29.0049726 L12.9629412,27.7974384 L15.3747059,27.7974384 L15.3747059,27.7974384 Z M12.6852941,28.0754658 L13.8905882,29.283589 L12.6852941,30.4905342 L12.6852941,28.0754658 L12.6852941,28.0754658 Z M14.4470588,32.981589 L15.6523529,31.7752329 L15.6523529,34.1897123 L14.4470588,32.981589 L14.4470588,32.981589 Z M15.3747059,34.4671507 L12.9629412,34.4671507 L14.1688235,33.2602055 L15.3747059,34.4671507 L15.3747059,34.4671507 Z M14.1688235,32.7041507 L12.9629412,31.4960274 L15.3747059,31.4960274 L14.1688235,32.7041507 L14.1688235,32.7041507 Z M13.8905882,32.981589 L12.6852941,34.1897123 L12.6852941,31.7752329 L13.8905882,32.981589 L13.8905882,32.981589 Z M14.4470588,36.6807671 L15.6523529,35.4726438 L15.6523529,37.8871233 L14.4470588,36.6807671 L14.4470588,36.6807671 Z M15.3747059,38.1657397 L12.9629412,38.1657397 L14.1688235,36.9582055 L15.3747059,38.1657397 L15.3747059,38.1657397 Z M14.1688235,36.4015616 L12.9629412,35.1940274 L15.3747059,35.1940274 L14.1688235,36.4015616 L14.1688235,36.4015616 Z M13.8905882,36.6807671 L12.6852941,37.8871233 L12.6852941,35.4726438 L13.8905882,36.6807671 L13.8905882,36.6807671 Z" id="Fill-6" sketch:type="MSShapeGroup"></path>
            <path d="M5.22411765,41.4113562 C5.22411765,41.1639589 5.02411765,40.9619178 4.77529412,40.9619178 C4.52823529,40.9619178 4.32705882,41.1639589 4.32705882,41.4113562 C4.32705882,41.6587534 4.52823529,41.8602055 4.77529412,41.8602055 C5.02411765,41.8602055 5.22411765,41.6587534 5.22411765,41.4113562" id="Fill-7" sketch:type="MSShapeGroup"></path>
            <path d="M6.34117647,41.4113562 C6.34117647,41.1639589 6.14117647,40.9619178 5.89235294,40.9619178 C5.64529412,40.9619178 5.44411765,41.1639589 5.44411765,41.4113562 C5.44411765,41.6587534 5.64529412,41.8602055 5.89235294,41.8602055 C6.14117647,41.8602055 6.34117647,41.6587534 6.34117647,41.4113562" id="Fill-8" sketch:type="MSShapeGroup"></path>
            <path d="M7.45764706,41.4113562 C7.45764706,41.1639589 7.25764706,40.9619178 7.00941176,40.9619178 C6.76176471,40.9619178 6.56117647,41.1639589 6.56117647,41.4113562 C6.56117647,41.6587534 6.76176471,41.8602055 7.00941176,41.8602055 C7.25764706,41.8602055 7.45764706,41.6587534 7.45764706,41.4113562" id="Fill-9" sketch:type="MSShapeGroup"></path>
            <path d="M14.33,41.4113562 C14.33,41.1639589 14.13,40.9619178 13.8811765,40.9619178 C13.6341176,40.9619178 13.4329412,41.1639589 13.4329412,41.4113562 C13.4329412,41.6587534 13.6341176,41.8602055 13.8811765,41.8602055 C14.13,41.8602055 14.33,41.6587534 14.33,41.4113562" id="Fill-10" sketch:type="MSShapeGroup"></path>
            <path d="M15.4470588,41.4113562 C15.4470588,41.1639589 15.2470588,40.9619178 14.9982353,40.9619178 C14.7511765,40.9619178 14.55,41.1639589 14.55,41.4113562 C14.55,41.6587534 14.7511765,41.8602055 14.9982353,41.8602055 C15.2470588,41.8602055 15.4470588,41.6587534 15.4470588,41.4113562" id="Fill-11" sketch:type="MSShapeGroup"></path>
            <path d="M15.6670588,41.4113562 C15.6670588,41.6587534 15.8676471,41.8602055 16.1152941,41.8602055 C16.3641176,41.8602055 16.5635294,41.6587534 16.5635294,41.4113562 C16.5635294,41.1639589 16.3641176,40.9619178 16.1152941,40.9619178 C15.8676471,40.9619178 15.6670588,41.1639589 15.6670588,41.4113562" id="Fill-12" sketch:type="MSShapeGroup"></path>
            <path d="M12.3217647,25.7228356 L16.0158824,25.7228356 L16.0158824,22.0254247 L12.3217647,22.0254247 L12.3217647,25.7228356 Z M15.3747059,22.388863 L14.1688235,23.5963973 L12.9629412,22.388863 L15.3747059,22.388863 L15.3747059,22.388863 Z M12.6852941,22.6668904 L13.8905882,23.8750137 L12.6852941,25.0819589 L12.6852941,22.6668904 L12.6852941,22.6668904 Z M12.9629412,25.3588082 L14.1688235,24.1530411 L15.3747059,25.3588082 L12.9629412,25.3588082 L12.9629412,25.3588082 Z M15.6523529,25.0819589 L14.4470588,23.8750137 L15.6523529,22.6668904 L15.6523529,25.0819589 L15.6523529,25.0819589 Z" id="Fill-13" sketch:type="MSShapeGroup"></path>
            <path d="M38.5852941,6.74510959 L27.45,6.74510959 L14.6258824,0.705671233 C14.6282353,0.686232877 14.6394118,0.670328767 14.6394118,0.652068493 C14.6394118,0.391123288 14.4294118,0.180246575 14.1688235,0.180246575 C13.9082353,0.180246575 13.6976471,0.391123288 13.6976471,0.652068493 C13.6976471,0.727465753 13.7194118,0.798739726 13.7523529,0.860589041 L7.97,6.29036986 L7.97,5.99938356 C7.97,5.93282192 7.91588235,5.87863014 7.84941176,5.87863014 L2.71411765,5.87863014 C2.64764706,5.87863014 2.59352941,5.93282192 2.59352941,5.99938356 L2.59352941,7.69110959 C2.59352941,7.75884932 2.64764706,7.8130411 2.71411765,7.8130411 L3.01588235,7.8130411 L3.01588235,7.86075342 L3.24882353,8.09342466 L3.24882353,8.10049315 L3.25588235,8.10049315 L4.19470588,9.0400137 L10.5388235,9.0400137 L11.41,9.91238356 L11.8194118,9.91238356 L11.8194118,16.0737534 L12.3217647,16.0737534 L12.3217647,20.1351918 L16.0158824,20.1351918 L16.0158824,16.0737534 L16.5176471,16.0737534 L16.5176471,13.4536986 L18.2394118,13.2345753 C18.6129412,12.4976849 18.8523529,11.5016164 18.8523529,10.3824384 C18.8523529,10.2216301 18.8364706,10.0684795 18.8270588,9.91238356 L19.1929412,9.91238356 L20.0635294,9.0400137 L32.3876471,9.0400137 L33.2070588,9.93417808 L33.5511765,9.93417808 L33.5511765,20.4903836 C33.4647059,20.5710822 33.4094118,20.6841781 33.4094118,20.811411 C33.4094118,21.0529178 33.6041176,21.2484795 33.8452941,21.2484795 C33.8776471,21.2484795 33.9082353,21.2455342 33.9376471,21.2384658 C33.9805882,21.284411 34.0364706,21.4169452 33.9747059,21.5070685 C33.9152941,21.5930685 33.8323529,21.6195753 33.7594118,21.6195753 C33.7052941,21.6183973 33.6123529,21.5783425 33.5388235,21.5235616 C33.5182353,21.5082466 33.4952941,21.543589 33.4970588,21.5683288 C33.4970588,21.5771644 33.5094118,21.5977808 33.5135294,21.600726 C33.5794118,21.7120548 33.6964706,21.786274 33.83,21.7850959 C34.0370588,21.7821507 34.1994118,21.6066164 34.1970588,21.3933836 C34.1958824,21.3032603 34.1605882,21.2219726 34.11,21.1589452 C34.2135294,21.0776575 34.2823529,20.9533699 34.2823529,20.811411 C34.2823529,20.6841781 34.2264706,20.5710822 34.14,20.4903836 L34.14,9.93417808 L34.4847059,9.93417808 L35.3035294,9.0400137 L40.7176471,9.0400137 L40.7176471,8.88038356 L38.5852941,6.74510959 L38.5852941,6.74510959 Z M3.24882353,7.95205479 L3.22882353,7.93261644 L3.24882353,7.93261644 L3.24882353,7.95205479 L3.24882353,7.95205479 Z M3.39588235,8.10049315 L3.86176471,8.10049315 L3.62882353,8.33434247 L3.39588235,8.10049315 L3.39588235,8.10049315 Z M4.12235294,8.82736986 L3.72117647,8.42682192 L4.04823529,8.10049315 L4.12235294,8.10049315 L4.12235294,8.82736986 L4.12235294,8.82736986 Z M5.08941176,8.10049315 L4.85588235,8.33434247 L4.62294118,8.10049315 L5.08941176,8.10049315 L5.08941176,8.10049315 Z M4.36352941,8.75256164 L4.36352941,8.10049315 L4.43823529,8.10049315 L4.76352941,8.42682192 L4.43823529,8.75256164 L4.36352941,8.75256164 L4.36352941,8.75256164 Z M4.62176471,8.75256164 L4.85588235,8.51930137 L5.08941176,8.75256164 L4.62176471,8.75256164 L4.62176471,8.75256164 Z M5.34823529,8.75256164 L5.27352941,8.75256164 L4.94823529,8.42682192 L5.27352941,8.10049315 L5.34823529,8.10049315 L5.34823529,8.75256164 L5.34823529,8.75256164 Z M6.31470588,8.10049315 L6.08176471,8.33434247 L5.84882353,8.10049315 L6.31470588,8.10049315 L6.31470588,8.10049315 Z M5.58941176,8.75256164 L5.58941176,8.10049315 L5.66411765,8.10049315 L5.98941176,8.42682192 L5.66411765,8.75256164 L5.58941176,8.75256164 L5.58941176,8.75256164 Z M5.84882353,8.75256164 L6.08176471,8.51930137 L6.31470588,8.75256164 L5.84882353,8.75256164 L5.84882353,8.75256164 Z M6.57411765,8.75256164 L6.49941176,8.75256164 L6.17411765,8.42682192 L6.49941176,8.10049315 L6.57411765,8.10049315 L6.57411765,8.75256164 L6.57411765,8.75256164 Z M28.8652941,6.97189041 L28.5664706,7.27112329 L27.93,6.97189041 L28.8652941,6.97189041 L28.8652941,6.97189041 Z M27.5888235,6.97189041 L28.4576471,7.38009589 L28.1176471,7.72056164 L27.37,6.97189041 L27.5888235,6.97189041 L27.5888235,6.97189041 Z M14.5011765,3.00764384 L14.1688235,3.34045205 L13.8364706,3.00764384 L14.1688235,1.49675342 L14.5011765,3.00764384 L14.5011765,3.00764384 Z M12.6105882,8.91926027 L12.5488235,8.91926027 L12.5488235,8.858 L12.6105882,8.91926027 L12.6105882,8.91926027 Z M12.58,8.71073973 L13.0505882,6.57546575 L13.9735294,7.49967123 L12.6717647,8.80380822 L12.58,8.71073973 L12.58,8.71073973 Z M12.9629412,12.3745753 L14.1688235,11.1682192 L15.3747059,12.3745753 L12.9629412,12.3745753 L12.9629412,12.3745753 Z M15.3747059,13.1014521 L14.1688235,14.3095753 L12.9629412,13.1014521 L15.3747059,13.1014521 L15.3747059,13.1014521 Z M13.4711765,9.91238356 L14.8670588,9.91238356 L14.1688235,10.6109863 L13.4711765,9.91238356 L13.4711765,9.91238356 Z M13.8905882,10.8901918 L12.8235294,11.9587123 L12.8235294,9.91238356 L12.9147059,9.91238356 L13.8905882,10.8901918 L13.8905882,10.8901918 Z M12.8235294,13.5184932 L13.8905882,14.5876027 L12.8235294,15.6567123 L12.8235294,13.5184932 L12.8235294,13.5184932 Z M12.9629412,16.0737534 L14.1688235,14.8662192 L15.3747059,16.0737534 L12.9629412,16.0737534 L12.9629412,16.0737534 Z M15.3747059,16.8012192 L14.1688235,18.0081644 L12.9629412,16.8012192 L15.3747059,16.8012192 L15.3747059,16.8012192 Z M14.4470588,14.5876027 L15.5129412,13.5196712 L15.5129412,15.6549452 L14.4470588,14.5876027 L14.4470588,14.5876027 Z M14.4470588,10.8901918 L15.4229412,9.91238356 L15.5129412,9.91238356 L15.5129412,11.9575342 L14.4470588,10.8901918 L14.4470588,10.8901918 Z M12.8247059,9.0400137 L12.8235294,9.0400137 L12.8235294,9.03942466 L12.8247059,9.0400137 L14.1688235,7.69464384 L15.5129412,9.0400137 L12.8247059,9.0400137 L12.8247059,9.0400137 Z M15.7394118,8.64182192 L15.6217647,8.75963014 L14.3641176,7.49967123 L15.2870588,6.57546575 L15.7417647,8.64005479 L15.7394118,8.64182192 L15.7394118,8.64182192 Z M14.1688235,7.30528767 L13.1541176,6.2880137 L14.1688235,5.27132877 L15.1841176,6.2880137 L14.1688235,7.30528767 L14.1688235,7.30528767 Z M13.2129412,5.83739726 L13.4876471,4.59039726 L13.9735294,5.07576712 L13.2129412,5.83739726 L13.2129412,5.83739726 Z M14.3641176,5.07576712 L14.85,4.59039726 L15.1247059,5.83739726 L14.3641176,5.07576712 L14.3641176,5.07576712 Z M14.1688235,4.8819726 L13.5941176,4.30589041 L14.1688235,3.72980822 L14.7441176,4.30589041 L14.1688235,4.8819726 L14.1688235,4.8819726 Z M13.6482353,3.86057534 L13.7652941,3.32749315 L13.9735294,3.53542466 L13.6482353,3.86057534 L13.6482353,3.86057534 Z M14.3641176,3.53542466 L14.5723529,3.32749315 L14.69,3.86116438 L14.3641176,3.53542466 L14.3641176,3.53542466 Z M7.54176471,8.10049315 L7.30882353,8.33434247 L7.07588235,8.10049315 L7.54176471,8.10049315 L7.54176471,8.10049315 Z M6.81529412,8.75256164 L6.81529412,8.10049315 L6.89,8.10049315 L7.21647059,8.42682192 L6.89,8.75256164 L6.81529412,8.75256164 L6.81529412,8.75256164 Z M7.07411765,8.75256164 L7.30882353,8.51930137 L7.54176471,8.75256164 L7.07411765,8.75256164 L7.07411765,8.75256164 Z M7.80058824,8.75256164 L7.72647059,8.75256164 L7.4,8.42682192 L7.72647059,8.10049315 L7.80058824,8.10049315 L7.80058824,8.75256164 L7.80058824,8.75256164 Z M8.04117647,8.75256164 L8.04117647,8.10049315 L8.11529412,8.10049315 L8.44117647,8.42682192 L8.11529412,8.75256164 L8.04117647,8.75256164 L8.04117647,8.75256164 Z M8.3,8.10049315 L8.76647059,8.10049315 L8.53352941,8.33434247 L8.3,8.10049315 L8.3,8.10049315 Z M8.3,8.75256164 L8.53352941,8.51930137 L8.76647059,8.75256164 L8.3,8.75256164 L8.3,8.75256164 Z M9.02588235,8.75256164 L8.95117647,8.75256164 L8.62529412,8.42682192 L8.95117647,8.10049315 L9.02588235,8.10049315 L9.02588235,8.75256164 L9.02588235,8.75256164 Z M9.26705882,8.75256164 L9.26705882,8.10049315 L9.34117647,8.10049315 L9.66647059,8.42682192 L9.34117647,8.75256164 L9.26705882,8.75256164 L9.26705882,8.75256164 Z M9.52588235,8.10049315 L9.99235294,8.10049315 L9.75941176,8.33434247 L9.52588235,8.10049315 L9.52588235,8.10049315 Z M9.52588235,8.75256164 L9.75941176,8.51930137 L9.99235294,8.75256164 L9.52588235,8.75256164 L9.52588235,8.75256164 Z M10.2517647,8.75256164 L10.1770588,8.75256164 L9.85117647,8.42682192 L10.1770588,8.10049315 L10.2517647,8.10049315 L10.2517647,8.75256164 L10.2517647,8.75256164 Z M9.14647059,7.8130411 L7.84941176,7.8130411 C7.91588235,7.8130411 7.97,7.75884932 7.97,7.69110959 L7.97,6.49064384 L13.8482353,0.970739726 C13.8670588,0.989589041 13.8788235,1.01315068 13.9,1.02846575 L12.2758824,8.40620548 L11.6829412,7.8130411 L9.14647059,7.8130411 L9.14647059,7.8130411 Z M11.7182353,8.75256164 L11.7182353,8.02568493 L12.1182353,8.42682192 L11.7929412,8.75256164 L11.7182353,8.75256164 L11.7182353,8.75256164 Z M12.2105882,8.51930137 L12.2435294,8.55110959 L12.1988235,8.75256164 L11.9776471,8.75256164 L12.2105882,8.51930137 L12.2105882,8.51930137 Z M11.2182353,8.75256164 L10.7517647,8.75256164 L10.9847059,8.51930137 L11.2182353,8.75256164 L11.2182353,8.75256164 Z M10.7517647,8.10049315 L11.2182353,8.10049315 L10.9847059,8.33434247 L10.7517647,8.10049315 L10.7517647,8.10049315 Z M11.0770588,8.42682192 L11.4029412,8.10049315 L11.4770588,8.10049315 L11.4770588,8.75256164 L11.4029412,8.75256164 L11.0770588,8.42682192 L11.0770588,8.42682192 Z M10.4929412,8.75256164 L10.4929412,8.10049315 L10.5670588,8.10049315 L10.8923529,8.42682192 L10.5670588,8.75256164 L10.4929412,8.75256164 L10.4929412,8.75256164 Z M12.6852941,17.0792466 L13.8905882,18.2867808 L12.6852941,19.4943151 L12.6852941,17.0792466 L12.6852941,17.0792466 Z M12.9629412,19.7717534 L14.1688235,18.5653973 L15.3747059,19.7717534 L12.9629412,19.7717534 L12.9629412,19.7717534 Z M15.6523529,19.4943151 L14.4470588,18.2867808 L15.6523529,17.0792466 L15.6523529,19.4943151 L15.6523529,19.4943151 Z M17.5805882,8.64182192 L16.8311765,7.89373973 L17.5805882,7.14447945 L17.5805882,8.64182192 L17.5805882,8.64182192 Z M17.4076471,8.81382192 L16.1517647,8.81382192 L16.1082353,8.61649315 L16.6582353,8.06573973 L17.4076471,8.81382192 L17.4076471,8.81382192 Z M18.1052941,12.8782055 L16.9317647,13.0331233 L16.9317647,10.3329589 L18.4970588,10.3329589 C18.6058824,11.3036986 18.3576471,12.2320274 18.1052941,12.8782055 L18.1052941,12.8782055 Z M19.1229412,7.89373973 L19.8717647,7.14447945 L19.8717647,8.64182192 L19.1229412,7.89373973 L19.1229412,7.89373973 Z M19.6994118,8.81382192 L18.2023529,8.81382192 L18.9505882,8.06573973 L19.6994118,8.81382192 L19.6994118,8.81382192 Z M18.9505882,7.72056164 L18.2023529,6.97189041 L19.6994118,6.97189041 L18.9505882,7.72056164 L18.9505882,7.72056164 Z M18.7788235,7.89373973 L18.0305882,8.64182192 L18.0305882,7.14447945 L18.7788235,7.89373973 L18.7788235,7.89373973 Z M21.0705882,7.89373973 L20.3229412,8.64182192 L20.3229412,7.14447945 L21.0705882,7.89373973 L21.0705882,7.89373973 Z M20.4947059,6.97189041 L21.99,6.97189041 L21.2423529,7.72056164 L20.4947059,6.97189041 L20.4947059,6.97189041 Z M20.4947059,8.81382192 L21.2423529,8.06573973 L21.99,8.81382192 L20.4947059,8.81382192 L20.4947059,8.81382192 Z M22.1641176,8.64182192 L21.4152941,7.89373973 L22.1641176,7.14447945 L22.1641176,8.64182192 L22.1641176,8.64182192 Z M23.3623529,7.89373973 L22.6147059,8.64182192 L22.6147059,7.14447945 L23.3623529,7.89373973 L23.3623529,7.89373973 Z M22.7864706,6.97189041 L24.2817647,6.97189041 L23.5341176,7.72056164 L22.7864706,6.97189041 L22.7864706,6.97189041 Z M22.7864706,8.81382192 L23.5341176,8.06573973 L24.2817647,8.81382192 L22.7864706,8.81382192 L22.7864706,8.81382192 Z M24.4552941,8.64182192 L23.7070588,7.89373973 L24.4552941,7.14447945 L24.4552941,8.64182192 L24.4552941,8.64182192 Z M25.6547059,7.89373973 L24.9064706,8.64182192 L24.9064706,7.14447945 L25.6547059,7.89373973 L25.6547059,7.89373973 Z M25.0782353,6.97189041 L26.5735294,6.97189041 L25.8258824,7.72056164 L25.0782353,6.97189041 L25.0782353,6.97189041 Z M25.0782353,8.81382192 L25.8258824,8.06573973 L26.5735294,8.81382192 L25.0782353,8.81382192 L25.0782353,8.81382192 Z M26.7464706,8.64182192 L25.9988235,7.89373973 L26.7464706,7.14447945 L26.7464706,8.64182192 L26.7464706,8.64182192 Z M26.9723529,6.74510959 L17.6335294,6.74510959 L16.0470588,8.33434247 L14.4376471,1.02846575 C14.5029412,0.981342466 14.5523529,0.91890411 14.5888235,0.847041096 L27.1094118,6.74510959 L26.9723529,6.74510959 L26.9723529,6.74510959 Z M27.1970588,7.14447945 L27.9464706,7.89373973 L27.1970588,8.64182192 L27.1970588,7.14447945 L27.1970588,7.14447945 Z M27.37,8.81382192 L28.1176471,8.06573973 L28.8652941,8.81382192 L27.37,8.81382192 L27.37,8.81382192 Z M29.0382353,8.64182192 L28.2894118,7.89373973 L28.6917647,7.49083562 L29.0382353,7.654 L29.0382353,8.64182192 L29.0382353,8.64182192 Z M29.0382353,7.49378082 L28.8005882,7.38127397 L29.0382353,7.14447945 L29.0382353,7.49378082 L29.0382353,7.49378082 Z M31.1576471,6.97189041 L30.41,7.72056164 L29.6623529,6.97189041 L31.1576471,6.97189041 L31.1576471,6.97189041 Z M30.5488235,8.20534247 L30.36,8.11639726 L30.41,8.06573973 L30.5488235,8.20534247 L30.5488235,8.20534247 Z M29.4894118,7.14447945 L30.2370588,7.89373973 L30.1241176,8.00506849 L29.4894118,7.70583562 L29.4894118,7.14447945 L29.4894118,7.14447945 Z M29.4894118,7.86664384 L30.0152941,8.11521918 L29.4894118,8.64182192 L29.4894118,7.86664384 L29.4894118,7.86664384 Z M29.6623529,8.81382192 L30.25,8.22478082 L30.8523529,8.50810959 L31.1576471,8.81382192 L29.6623529,8.81382192 L29.6623529,8.81382192 Z M31.33,8.57408219 L31.2,8.51164384 L30.5811765,7.89373973 L31.33,7.14447945 L31.33,8.57408219 L31.33,8.57408219 Z M35.7388235,6.97189041 L34.9911765,7.72056164 L34.2429412,6.97189041 L35.7388235,6.97189041 L35.7388235,6.97189041 Z M34.0705882,7.14447945 L34.8182353,7.89373973 L34.0705882,8.64182192 L34.0705882,7.14447945 L34.0705882,7.14447945 Z M33.4482353,6.97189041 L32.7005882,7.72056164 L31.9523529,6.97189041 L33.4482353,6.97189041 L33.4482353,6.97189041 Z M33.6205882,7.14447945 L33.6205882,8.64182192 L32.8717647,7.89373973 L33.6205882,7.14447945 L33.6205882,7.14447945 Z M31.78,7.14447945 L32.5276471,7.89373973 L31.78,8.64182192 L31.78,7.14447945 L31.78,7.14447945 Z M31.9523529,8.81382192 L32.7005882,8.06573973 L33.4482353,8.81382192 L31.9523529,8.81382192 L31.9523529,8.81382192 Z M33.8452941,20.9857671 C33.75,20.9857671 33.6717647,20.9074247 33.6717647,20.811411 C33.6717647,20.7148082 33.75,20.6358767 33.8452941,20.6358767 C33.9411765,20.6358767 34.0194118,20.7148082 34.0194118,20.811411 C34.0194118,20.9074247 33.9411765,20.9857671 33.8452941,20.9857671 L33.8452941,20.9857671 Z M34.01,20.4067397 C33.9594118,20.3867123 33.9041176,20.3743425 33.8452941,20.3743425 C33.7876471,20.3743425 33.7317647,20.3867123 33.6811765,20.4067397 L33.6811765,9.93417808 L34.01,9.93417808 L34.01,20.4067397 L34.01,20.4067397 Z M34.2429412,8.81382192 L34.9911765,8.06573973 L35.7388235,8.81382192 L34.2429412,8.81382192 L34.2429412,8.81382192 Z M35.9117647,8.64182192 L35.1623529,7.89373973 L35.9117647,7.14447945 L35.9117647,8.64182192 L35.9117647,8.64182192 Z M38.0294118,6.97189041 L37.2817647,7.72056164 L36.5341176,6.97189041 L38.0294118,6.97189041 L38.0294118,6.97189041 Z M36.3611765,7.14447945 L37.1088235,7.89373973 L36.3611765,8.64182192 L36.3611765,7.14447945 L36.3611765,7.14447945 Z M36.5341176,8.81382192 L37.2817647,8.06573973 L38.0294118,8.81382192 L36.5341176,8.81382192 L36.5341176,8.81382192 Z M38.2023529,8.64182192 L37.4529412,7.89373973 L38.2023529,7.14447945 L38.2023529,8.64182192 L38.2023529,8.64182192 Z M38.6517647,7.14447945 L39.3994118,7.89373973 L38.6517647,8.64182192 L38.6517647,7.14447945 L38.6517647,7.14447945 Z M38.8247059,8.81382192 L39.5723529,8.06573973 L40.32,8.81382192 L38.8247059,8.81382192 L38.8247059,8.81382192 Z" id="Fill-14" sketch:type="MSShapeGroup"></path>
            <path d="M14.9982353,41.8602055 L-0.132352941,41.8602055 L-0.132352941,42.484589 L21.0705882,42.484589 L21.0705882,41.8602055 L14.9982353,41.8602055" id="Fill-15" sketch:type="MSShapeGroup"></path>
        </g>
    </g>
</svg>