<?xml version="1.0" encoding="UTF-8" standalone="no"?>
<svg width="46px" height="23px" viewBox="0 0 46 23" version="1.1" xmlns="http://www.w3.org/2000/svg" xmlns:xlink="http://www.w3.org/1999/xlink" xmlns:sketch="http://www.bohemiancoding.com/sketch/ns">
    <!-- Generator: Sketch 3.0.4 (8053) - http://www.bohemiancoding.com/sketch -->
    <title>p-6</title>
    <desc>Created with Sketch.</desc>
    <defs></defs>
    <g id="Page-1" stroke="none" stroke-width="1" fill="none" fill-rule="evenodd" sketch:type="MSPage">
        <g id="p-6" sketch:type="MSLayerGroup" transform="translate(1.000000, 0.000000)" fill="#000000">
            <path d="M9.23235577,18.5506275 L8.600625,18.5506275 L8.28519231,19.1193137 L8.600625,19.688451 L9.23235577,19.688451 L9.54778846,19.1193137 L9.23235577,18.5506275 L9.23235577,18.5506275 Z M8.91692308,19.4061373 C8.76504808,19.4061373 8.64216346,19.2771569 8.64216346,19.1193137 C8.64216346,18.9614706 8.76504808,18.8333922 8.91692308,18.8333922 C9.06836538,18.8333922 9.19081731,18.9614706 9.19081731,19.1193137 C9.19081731,19.2771569 9.06836538,19.4061373 8.91692308,19.4061373 L8.91692308,19.4061373 Z" id="Fill-1" sketch:type="MSShapeGroup"></path>
            <path id="Fill-2" sketch:type="MSShapeGroup" d="M9.03894231,18.0635686 L9.16052885,17.8443922 L9.03894231,17.6243137 L8.79576923,17.6243137 L8.67288462,17.8443922 L8.79576923,18.0635686 L9.03894231,18.0635686"></path>
            <path id="Fill-3" sketch:type="MSShapeGroup" d="M8.79576923,20.1750588 L8.67288462,20.3942353 L8.79576923,20.6138627 L9.03894231,20.6138627 L9.16052885,20.3942353 L9.03894231,20.1750588 L8.79576923,20.1750588"></path>
            <path id="Fill-4" sketch:type="MSShapeGroup" d="M7.90442308,18.9930392 L7.69326923,18.8654118 L7.48254808,18.9930392 L7.48254808,19.2464902 L7.69326923,19.3732157 L7.90442308,19.2464902 L7.90442308,18.9930392"></path>
            <path id="Fill-5" sketch:type="MSShapeGroup" d="M9.92899038,18.9930392 L9.92899038,19.2464902 L10.1401442,19.3732157 L10.3508654,19.2464902 L10.3508654,18.9930392 L10.1401442,18.8654118 L9.92899038,18.9930392"></path>
            <path id="Fill-6" sketch:type="MSShapeGroup" d="M8.11471154,18.4626863 L8.28735577,18.2831961 L8.22461538,18.0383137 L7.9875,17.9720196 L7.81615385,18.1524118 L7.87932692,18.3972941 L8.11471154,18.4626863"></path>
            <path id="Fill-7" sketch:type="MSShapeGroup" d="M9.71826923,19.7759412 L9.54605769,19.9554314 L9.60879808,20.2003137 L9.84548077,20.2661569 L10.0168269,20.0866667 L9.95408654,19.8422353 L9.71826923,19.7759412"></path>
            <path id="Fill-8" sketch:type="MSShapeGroup" d="M7.87932692,19.8422353 L7.81615385,20.0866667 L7.9875,20.2661569 L8.22461538,20.2003137 L8.28735577,19.9554314 L8.11471154,19.7754902 L7.87932692,19.8422353"></path>
            <path id="Fill-9" sketch:type="MSShapeGroup" d="M9.95408654,18.3972941 L10.0168269,18.1524118 L9.84548077,17.9720196 L9.60879808,18.0383137 L9.54605769,18.2831961 L9.71826923,18.4626863 L9.95408654,18.3972941"></path>
            <path d="M8.91692308,15.5322157 C7.01740385,15.5322157 5.47528846,17.1386078 5.47528846,19.1193137 C5.47528846,21.1000196 7.01740385,22.7059608 8.91692308,22.7059608 C10.8160096,22.7059608 12.3576923,21.1000196 12.3576923,19.1193137 C12.3576923,17.1386078 10.8160096,15.5322157 8.91692308,15.5322157 L8.91692308,15.5322157 Z M8.91692308,21.2470392 C7.78975962,21.2470392 6.87634615,20.2941176 6.87634615,19.1197647 C6.87634615,17.9458627 7.78975962,16.9929412 8.91692308,16.9929412 C10.0432212,16.9929412 10.9570673,17.9458627 10.9570673,19.1197647 C10.9570673,20.2941176 10.0432212,21.2470392 8.91692308,21.2470392 L8.91692308,21.2470392 Z" id="Fill-10" sketch:type="MSShapeGroup"></path>
            <path d="M35.5564904,18.5506275 L34.9273558,18.5506275 L34.610625,19.1193137 L34.9273558,19.688451 L35.5564904,19.688451 L35.8727885,19.1193137 L35.5564904,18.5506275 L35.5564904,18.5506275 Z M35.240625,19.4061373 C35.0913462,19.4061373 34.9675962,19.2771569 34.9675962,19.1193137 C34.9675962,18.9614706 35.0913462,18.8333922 35.240625,18.8333922 C35.3925,18.8333922 35.5166827,18.9614706 35.5166827,19.1193137 C35.5166827,19.2771569 35.3925,19.4061373 35.240625,19.4061373 L35.240625,19.4061373 Z" id="Fill-11" sketch:type="MSShapeGroup"></path>
            <path id="Fill-12" sketch:type="MSShapeGroup" d="M35.364375,18.0635686 L35.4855288,17.8443922 L35.364375,17.6243137 L35.1220673,17.6243137 L34.9978846,17.8443922 L35.1220673,18.0635686 L35.364375,18.0635686"></path>
            <path id="Fill-13" sketch:type="MSShapeGroup" d="M35.1220673,20.1750588 L34.9978846,20.3942353 L35.1220673,20.6138627 L35.364375,20.6138627 L35.4855288,20.3942353 L35.364375,20.1750588 L35.1220673,20.1750588"></path>
            <path id="Fill-14" sketch:type="MSShapeGroup" d="M34.2294231,18.9930392 L34.0187019,18.8654118 L33.8075481,18.9930392 L33.8075481,19.2464902 L34.0187019,19.3732157 L34.2294231,19.2464902 L34.2294231,18.9930392"></path>
            <path id="Fill-15" sketch:type="MSShapeGroup" d="M36.2535577,18.9930392 L36.2535577,19.2464902 L36.4638462,19.3732157 L36.675,19.2464902 L36.675,18.9930392 L36.4638462,18.8654118 L36.2535577,18.9930392"></path>
            <path id="Fill-16" sketch:type="MSShapeGroup" d="M34.4410096,18.4626863 L34.6127885,18.2831961 L34.5496154,18.0383137 L34.3133654,17.9720196 L34.1415865,18.1524118 L34.2043269,18.3972941 L34.4410096,18.4626863"></path>
            <path id="Fill-17" sketch:type="MSShapeGroup" d="M36.0428365,19.7759412 L35.8710577,19.9554314 L35.9337981,20.2003137 L36.1704808,20.2661569 L36.343125,20.0866667 L36.2803846,19.8422353 L36.0428365,19.7759412"></path>
            <path id="Fill-18" sketch:type="MSShapeGroup" d="M34.2043269,19.8422353 L34.1415865,20.0866667 L34.3133654,20.2661569 L34.5496154,20.2003137 L34.6127885,19.9554314 L34.4410096,19.7754902 L34.2043269,19.8422353"></path>
            <path id="Fill-19" sketch:type="MSShapeGroup" d="M36.2803846,18.3972941 L36.343125,18.1524118 L36.1704808,17.9720196 L35.9337981,18.0383137 L35.8710577,18.2831961 L36.0428365,18.4626863 L36.2803846,18.3972941"></path>
            <path d="M35.2427885,15.5322157 C33.3428365,15.5322157 31.8007212,17.1386078 31.8007212,19.1193137 C31.8007212,21.1000196 33.3428365,22.7059608 35.2427885,22.7059608 C37.1410096,22.7059608 38.6826923,21.1000196 38.6826923,19.1193137 C38.6826923,17.1386078 37.1410096,15.5322157 35.2427885,15.5322157 L35.2427885,15.5322157 Z M35.240625,21.2470392 C34.1151923,21.2470392 33.2013462,20.2941176 33.2013462,19.1197647 C33.2013462,17.9458627 34.1151923,16.9929412 35.240625,16.9929412 C36.3699519,16.9929412 37.2833654,17.9458627 37.2833654,19.1197647 C37.2833654,20.2941176 36.3699519,21.2470392 35.240625,21.2470392 L35.240625,21.2470392 Z" id="Fill-20" sketch:type="MSShapeGroup"></path>
            <path d="M16.8875481,18.5506275 L16.25625,18.5506275 L15.9416827,19.1193137 L16.25625,19.688451 L16.8875481,19.688451 L17.2034135,19.1193137 L16.8875481,18.5506275 L16.8875481,18.5506275 Z M16.5721154,19.4061373 C16.4206731,19.4061373 16.2969231,19.2771569 16.2969231,19.1193137 C16.2969231,18.9614706 16.4206731,18.8333922 16.5721154,18.8333922 C16.7235577,18.8333922 16.8477404,18.9614706 16.8477404,19.1193137 C16.8477404,19.2771569 16.7235577,19.4061373 16.5721154,19.4061373 L16.5721154,19.4061373 Z" id="Fill-21" sketch:type="MSShapeGroup"></path>
            <path id="Fill-22" sketch:type="MSShapeGroup" d="M16.695,18.0635686 L16.8161538,17.8443922 L16.695,17.6243137 L16.4509615,17.6243137 L16.3285096,17.8443922 L16.4509615,18.0635686 L16.695,18.0635686"></path>
            <path id="Fill-23" sketch:type="MSShapeGroup" d="M16.4509615,20.1750588 L16.3285096,20.3942353 L16.4509615,20.6138627 L16.695,20.6138627 L16.8161538,20.3942353 L16.695,20.1750588 L16.4509615,20.1750588"></path>
            <path id="Fill-24" sketch:type="MSShapeGroup" d="M15.5604808,18.9930392 L15.3488942,18.8654118 L15.1386058,18.9930392 L15.1386058,19.2464902 L15.3488942,19.3732157 L15.5604808,19.2464902 L15.5604808,18.9930392"></path>
            <path id="Fill-25" sketch:type="MSShapeGroup" d="M17.5854808,18.9930392 L17.5854808,19.2464902 L17.7953365,19.3732157 L18.0069231,19.2464902 L18.0069231,18.9930392 L17.7953365,18.8654118 L17.5854808,18.9930392"></path>
            <path id="Fill-26" sketch:type="MSShapeGroup" d="M15.7703365,18.4626863 L15.9425481,18.2831961 L15.8811058,18.0383137 L15.6439904,17.9720196 L15.4717788,18.1524118 L15.5345192,18.3972941 L15.7703365,18.4626863"></path>
            <path id="Fill-27" sketch:type="MSShapeGroup" d="M17.3738942,19.7759412 L17.2021154,19.9554314 L17.2648558,20.2003137 L17.5015385,20.2661569 L17.6733173,20.0866667 L17.6101442,19.8422353 L17.3738942,19.7759412"></path>
            <path id="Fill-28" sketch:type="MSShapeGroup" d="M15.5345192,19.8422353 L15.4717788,20.0866667 L15.6439904,20.2661569 L15.8811058,20.2003137 L15.9425481,19.9554314 L15.7703365,19.7754902 L15.5345192,19.8422353"></path>
            <path id="Fill-29" sketch:type="MSShapeGroup" d="M17.6101442,18.3972941 L17.6733173,18.1524118 L17.5015385,17.9720196 L17.2648558,18.0383137 L17.2021154,18.2831961 L17.3738942,18.4626863 L17.6101442,18.3972941"></path>
            <path d="M16.5725481,15.5322157 C14.6725962,15.5322157 13.1309135,17.1386078 13.1309135,19.1193137 C13.1309135,21.1000196 14.6725962,22.7059608 16.5725481,22.7059608 C18.4725,22.7059608 20.0133173,21.1000196 20.0133173,19.1193137 C20.0133173,17.1386078 18.4725,15.5322157 16.5725481,15.5322157 L16.5725481,15.5322157 Z M16.5721154,21.2470392 C15.44625,21.2470392 14.5311058,20.2941176 14.5311058,19.1197647 C14.5311058,17.9458627 15.44625,16.9929412 16.5721154,16.9929412 C17.7001442,16.9929412 18.6135577,17.9458627 18.6135577,19.1197647 C18.6135577,20.2941176 17.7001442,21.2470392 16.5721154,21.2470392 L16.5721154,21.2470392 Z" id="Fill-30" sketch:type="MSShapeGroup"></path>
            <path d="M43.7187981,14.9567647 C43.7676923,14.9206863 43.8049038,14.8706275 43.8070673,14.8043333 C43.8070673,14.8043333 43.8096635,14.7448039 43.8144231,14.6104118 C43.8784615,12.282451 43.5158654,8.77021569 43.5158654,8.77021569 C43.5046154,8.65837255 43.4076923,8.56501961 43.2995192,8.56141176 L43.1281731,8.55690196 C43.0736538,6.00254902 41.9616346,2.5737451 41.9616346,2.5737451 C41.8763942,2.30856863 41.5860577,2.09164706 41.3173558,2.09164706 L32.8396154,2.09164706 C32.5722115,2.09164706 32.3524038,2.3207451 32.3524038,2.60080392 L32.3524038,12.2522353 C31.7102885,12.2522353 31.156875,12.6206863 30.8596154,13.1605098 L30.8596154,2.25490196 L33.5020673,0.857764706 L33.4613942,0.208803922 L25.3955769,0.208803922 L22.0824519,1.67629412 L-0.119423077,4.93688235 L-0.119423077,12.7992745 C-0.119423077,13.0793333 0.0995192308,13.3084314 0.368653846,13.3084314 L2.07259615,14.2933725 L2.07259615,15.9259216 C2.07259615,16.0382157 2.16043269,16.1297647 2.266875,16.1297647 L2.63423077,16.1297647 L2.63423077,17.5088627 C2.63423077,17.6211569 2.72163462,17.7122549 2.829375,17.7122549 L4.11274038,17.7122549 L4.11274038,18.9154706 C4.11274038,19.0273137 4.20100962,19.1188627 4.30918269,19.1188627 L4.76740385,19.1188627 C4.76740385,16.7304706 6.62451923,14.7948627 8.91692308,14.7948627 C10.1055288,14.7948627 11.1587019,15.3292745 11.9072596,16.168549 L13.5592788,16.168549 C14.3143269,15.3283725 15.3791827,14.7948627 16.5725481,14.7948627 C18.8640865,14.7948627 20.7216346,16.7304706 20.7229327,19.1188627 L21.4065865,19.1188627 C21.5138942,19.1188627 21.6017308,19.0273137 21.6017308,18.9154706 L21.6017308,17.7122549 L23.1987981,17.7122549 L23.1987981,18.4067647 C23.1987981,18.7986667 23.5064423,19.1193137 23.8824519,19.1193137 L29.9998558,19.1193137 C30.3542308,19.1193137 30.6385096,18.8311373 30.6709615,18.469902 C30.7272115,18.4807255 30.7795673,18.5014706 30.8388462,18.5014706 L31.1516827,18.5014706 C31.4424519,16.4080196 33.15375,14.7948627 35.2419231,14.7948627 C37.3300962,14.7948627 39.0418269,16.4080196 39.3312981,18.5014706 L42.7097596,18.5014706 C43.2458654,18.5014706 43.8087981,18.0622157 43.959375,17.5241961 L44.4046154,15.9295294 C44.5530288,15.3991765 44.2445192,14.9666863 43.7187981,14.9567647 L43.7187981,14.9567647 Z M3.11495192,14.2933725 L6.53971154,14.2933725 L6.53971154,14.7303725 L3.11495192,14.7303725 L3.11495192,14.2933725 Z M11.1695192,14.2933725 L14.5942788,14.2933725 L14.5942788,14.7303725 L11.1695192,14.7303725 L11.1695192,14.2933725 Z M20.8557692,14.2933725 L24.4185577,14.2933725 L24.4185577,14.7303725 L20.8557692,14.7303725 L20.8557692,14.2933725 Z M35.7689423,8.52668627 L35.7689423,4.12692157 C35.7689423,3.84731373 35.9883173,3.61821569 36.2570192,3.61821569 L41.0075481,3.61821569 C41.2766827,3.61821569 41.5605288,3.83694118 41.6392788,4.10482353 C41.6392788,4.10482353 42.3289904,6.44 42.564375,8.52668627 L35.7689423,8.52668627 L35.7689423,8.52668627 Z" id="Fill-31" sketch:type="MSShapeGroup"></path>
        </g>
    </g>
</svg>