<?xml version="1.0" encoding="UTF-8" standalone="no"?>
<svg width="51px" height="26px" viewBox="0 0 51 26" version="1.1" xmlns="http://www.w3.org/2000/svg" xmlns:xlink="http://www.w3.org/1999/xlink" xmlns:sketch="http://www.bohemiancoding.com/sketch/ns">
    <!-- Generator: Sketch 3.0.4 (8053) - http://www.bohemiancoding.com/sketch -->
    <title>p-2</title>
    <desc>Created with Sketch.</desc>
    <defs></defs>
    <g id="Page-1" stroke="none" stroke-width="1" fill="none" fill-rule="evenodd" sketch:type="MSPage">
        <g id="p-2" sketch:type="MSLayerGroup" transform="translate(1.000000, 1.000000)" fill="#2B3B4D">
            <path d="M10.2581731,19.8656863 L9.55625,19.8656863 L9.20576923,20.4838235 L9.55625,21.1019608 L10.2581731,21.1019608 L10.6086538,20.4838235 L10.2581731,19.8656863 L10.2581731,19.8656863 Z M9.90769231,20.795098 C9.73894231,20.795098 9.60240385,20.6553922 9.60240385,20.4838235 C9.60240385,20.3122549 9.73894231,20.1730392 9.90769231,20.1730392 C10.0759615,20.1730392 10.2120192,20.3122549 10.2120192,20.4838235 C10.2120192,20.6553922 10.0759615,20.795098 9.90769231,20.795098 L9.90769231,20.795098 Z" id="Fill-1" sketch:type="MSShapeGroup"></path>
            <path id="Fill-2" sketch:type="MSShapeGroup" d="M10.0432692,19.3362745 L10.1783654,19.0980392 L10.0432692,18.8588235 L9.77307692,18.8588235 L9.63653846,19.0980392 L9.77307692,19.3362745 L10.0432692,19.3362745"></path>
            <path id="Fill-3" sketch:type="MSShapeGroup" d="M9.77307692,21.6313725 L9.63653846,21.8696078 L9.77307692,22.1083333 L10.0432692,22.1083333 L10.1783654,21.8696078 L10.0432692,21.6313725 L9.77307692,21.6313725"></path>
            <path id="Fill-4" sketch:type="MSShapeGroup" d="M8.78269231,20.3465686 L8.54807692,20.2078431 L8.31394231,20.3465686 L8.31394231,20.6215686 L8.54807692,20.7598039 L8.78269231,20.6215686 L8.78269231,20.3465686"></path>
            <path id="Fill-5" sketch:type="MSShapeGroup" d="M11.0322115,20.3465686 L11.0322115,20.6215686 L11.2668269,20.7598039 L11.5009615,20.6215686 L11.5009615,20.3465686 L11.2668269,20.2078431 L11.0322115,20.3465686"></path>
            <path d="M9.01634615,19.770098 L9.20817308,19.575 L9.13846154,19.3088235 L8.875,19.2367647 L8.68461538,19.4328431 L8.75480769,19.6990196 L9.01634615,19.770098" id="Fill-6" sketch:type="MSShapeGroup"></path>
            <path d="M10.7980769,21.197549 L10.6067308,21.3926471 L10.6764423,21.6588235 L10.9394231,21.7303922 L11.1298077,21.5352941 L11.0600962,21.2696078 L10.7980769,21.197549" id="Fill-7" sketch:type="MSShapeGroup"></path>
            <path d="M8.75480769,21.2696078 L8.68461538,21.5352941 L8.875,21.7303922 L9.13846154,21.6588235 L9.20817308,21.3926471 L9.01634615,21.1970588 L8.75480769,21.2696078" id="Fill-8" sketch:type="MSShapeGroup"></path>
            <path d="M11.0600962,19.6990196 L11.1298077,19.4328431 L10.9394231,19.2367647 L10.6764423,19.3088235 L10.6067308,19.575 L10.7980769,19.770098 L11.0600962,19.6990196" id="Fill-9" sketch:type="MSShapeGroup"></path>
            <path d="M9.90769231,16.5848039 C7.79711538,16.5848039 6.08365385,18.3308824 6.08365385,20.4838235 C6.08365385,22.6367647 7.79711538,24.3823529 9.90769231,24.3823529 C12.0177885,24.3823529 13.7307692,22.6367647 13.7307692,20.4838235 C13.7307692,18.3308824 12.0177885,16.5848039 9.90769231,16.5848039 L9.90769231,16.5848039 Z M9.90769231,22.7965686 C8.65528846,22.7965686 7.64038462,21.7607843 7.64038462,20.4843137 C7.64038462,19.2083333 8.65528846,18.172549 9.90769231,18.172549 C11.1591346,18.172549 12.1745192,19.2083333 12.1745192,20.4843137 C12.1745192,21.7607843 11.1591346,22.7965686 9.90769231,22.7965686 L9.90769231,22.7965686 Z" id="Fill-10" sketch:type="MSShapeGroup"></path>
            <path d="M39.5072115,19.8656863 L38.8081731,19.8656863 L38.45625,20.4838235 L38.8081731,21.1019608 L39.5072115,21.1019608 L39.8586538,20.4838235 L39.5072115,19.8656863 L39.5072115,19.8656863 Z M39.15625,20.795098 C38.9903846,20.795098 38.8528846,20.6553922 38.8528846,20.4838235 C38.8528846,20.3122549 38.9903846,20.1730392 39.15625,20.1730392 C39.325,20.1730392 39.4629808,20.3122549 39.4629808,20.4838235 C39.4629808,20.6553922 39.325,20.795098 39.15625,20.795098 L39.15625,20.795098 Z" id="Fill-11" sketch:type="MSShapeGroup"></path>
            <path id="Fill-12" sketch:type="MSShapeGroup" d="M39.29375,19.3362745 L39.4283654,19.0980392 L39.29375,18.8588235 L39.0245192,18.8588235 L38.8865385,19.0980392 L39.0245192,19.3362745 L39.29375,19.3362745"></path>
            <path id="Fill-13" sketch:type="MSShapeGroup" d="M39.0245192,21.6313725 L38.8865385,21.8696078 L39.0245192,22.1083333 L39.29375,22.1083333 L39.4283654,21.8696078 L39.29375,21.6313725 L39.0245192,21.6313725"></path>
            <path id="Fill-14" sketch:type="MSShapeGroup" d="M38.0326923,20.3465686 L37.7985577,20.2078431 L37.5639423,20.3465686 L37.5639423,20.6215686 L37.7985577,20.7598039 L38.0326923,20.6215686 L38.0326923,20.3465686"></path>
            <path id="Fill-15" sketch:type="MSShapeGroup" d="M40.2817308,20.3465686 L40.2817308,20.6215686 L40.5153846,20.7598039 L40.75,20.6215686 L40.75,20.3465686 L40.5153846,20.2078431 L40.2817308,20.3465686"></path>
            <path d="M38.2677885,19.770098 L38.4586538,19.575 L38.3884615,19.3088235 L38.1259615,19.2367647 L37.9350962,19.4328431 L38.0048077,19.6990196 L38.2677885,19.770098" id="Fill-16" sketch:type="MSShapeGroup"></path>
            <path d="M40.0475962,21.197549 L39.8567308,21.3926471 L39.9264423,21.6588235 L40.1894231,21.7303922 L40.38125,21.5352941 L40.3115385,21.2696078 L40.0475962,21.197549" id="Fill-17" sketch:type="MSShapeGroup"></path>
            <path d="M38.0048077,21.2696078 L37.9350962,21.5352941 L38.1259615,21.7303922 L38.3884615,21.6588235 L38.4586538,21.3926471 L38.2677885,21.1970588 L38.0048077,21.2696078" id="Fill-18" sketch:type="MSShapeGroup"></path>
            <path d="M40.3115385,19.6990196 L40.38125,19.4328431 L40.1894231,19.2367647 L39.9264423,19.3088235 L39.8567308,19.575 L40.0475962,19.770098 L40.3115385,19.6990196" id="Fill-19" sketch:type="MSShapeGroup"></path>
            <path d="M39.1586538,16.5848039 C37.0475962,16.5848039 35.3341346,18.3308824 35.3341346,20.4838235 C35.3341346,22.6367647 37.0475962,24.3823529 39.1586538,24.3823529 C41.2677885,24.3823529 42.9807692,22.6367647 42.9807692,20.4838235 C42.9807692,18.3308824 41.2677885,16.5848039 39.1586538,16.5848039 L39.1586538,16.5848039 Z M39.15625,22.7965686 C37.9057692,22.7965686 36.8903846,21.7607843 36.8903846,20.4843137 C36.8903846,19.2083333 37.9057692,18.172549 39.15625,18.172549 C40.4110577,18.172549 41.4259615,19.2083333 41.4259615,20.4843137 C41.4259615,21.7607843 40.4110577,22.7965686 39.15625,22.7965686 L39.15625,22.7965686 Z" id="Fill-20" sketch:type="MSShapeGroup"></path>
            <path d="M18.7639423,19.8656863 L18.0625,19.8656863 L17.7129808,20.4838235 L18.0625,21.1019608 L18.7639423,21.1019608 L19.1149038,20.4838235 L18.7639423,19.8656863 L18.7639423,19.8656863 Z M18.4134615,20.795098 C18.2451923,20.795098 18.1076923,20.6553922 18.1076923,20.4838235 C18.1076923,20.3122549 18.2451923,20.1730392 18.4134615,20.1730392 C18.5817308,20.1730392 18.7197115,20.3122549 18.7197115,20.4838235 C18.7197115,20.6553922 18.5817308,20.795098 18.4134615,20.795098 L18.4134615,20.795098 Z" id="Fill-21" sketch:type="MSShapeGroup"></path>
            <path id="Fill-22" sketch:type="MSShapeGroup" d="M18.55,19.3362745 L18.6846154,19.0980392 L18.55,18.8588235 L18.2788462,18.8588235 L18.1427885,19.0980392 L18.2788462,19.3362745 L18.55,19.3362745"></path>
            <path id="Fill-23" sketch:type="MSShapeGroup" d="M18.2788462,21.6313725 L18.1427885,21.8696078 L18.2788462,22.1083333 L18.55,22.1083333 L18.6846154,21.8696078 L18.55,21.6313725 L18.2788462,21.6313725"></path>
            <path id="Fill-24" sketch:type="MSShapeGroup" d="M17.2894231,20.3465686 L17.0543269,20.2078431 L16.8206731,20.3465686 L16.8206731,20.6215686 L17.0543269,20.7598039 L17.2894231,20.6215686 L17.2894231,20.3465686"></path>
            <path id="Fill-25" sketch:type="MSShapeGroup" d="M19.5394231,20.3465686 L19.5394231,20.6215686 L19.7725962,20.7598039 L20.0076923,20.6215686 L20.0076923,20.3465686 L19.7725962,20.2078431 L19.5394231,20.3465686"></path>
            <path d="M17.5225962,19.770098 L17.7139423,19.575 L17.6456731,19.3088235 L17.3822115,19.2367647 L17.1908654,19.4328431 L17.2605769,19.6990196 L17.5225962,19.770098" id="Fill-26" sketch:type="MSShapeGroup"></path>
            <path d="M19.3043269,21.197549 L19.1134615,21.3926471 L19.1831731,21.6588235 L19.4461538,21.7303922 L19.6370192,21.5352941 L19.5668269,21.2696078 L19.3043269,21.197549" id="Fill-27" sketch:type="MSShapeGroup"></path>
            <path d="M17.2605769,21.2696078 L17.1908654,21.5352941 L17.3822115,21.7303922 L17.6456731,21.6588235 L17.7139423,21.3926471 L17.5225962,21.1970588 L17.2605769,21.2696078" id="Fill-28" sketch:type="MSShapeGroup"></path>
            <path d="M19.5668269,19.6990196 L19.6370192,19.4328431 L19.4461538,19.2367647 L19.1831731,19.3088235 L19.1134615,19.575 L19.3043269,19.770098 L19.5668269,19.6990196" id="Fill-29" sketch:type="MSShapeGroup"></path>
            <path d="M18.4139423,16.5848039 C16.3028846,16.5848039 14.5899038,18.3308824 14.5899038,20.4838235 C14.5899038,22.6367647 16.3028846,24.3823529 18.4139423,24.3823529 C20.525,24.3823529 22.2370192,22.6367647 22.2370192,20.4838235 C22.2370192,18.3308824 20.525,16.5848039 18.4139423,16.5848039 L18.4139423,16.5848039 Z M18.4134615,22.7965686 C17.1625,22.7965686 16.1456731,21.7607843 16.1456731,20.4843137 C16.1456731,19.2083333 17.1625,18.172549 18.4134615,18.172549 C19.6668269,18.172549 20.6817308,19.2083333 20.6817308,20.4843137 C20.6817308,21.7607843 19.6668269,22.7965686 18.4134615,22.7965686 L18.4134615,22.7965686 Z" id="Fill-30" sketch:type="MSShapeGroup"></path>
            <path d="M48.5764423,15.9593137 C48.6307692,15.920098 48.6721154,15.8656863 48.6745192,15.7936275 C48.6745192,15.7936275 48.6774038,15.7284314 48.6826923,15.5828431 C48.7538462,13.052451 48.3509615,9.23431373 48.3509615,9.23431373 C48.3384615,9.11323529 48.2307692,9.01176471 48.1105769,9.00784314 L47.9201923,9.00294118 C47.8596154,6.22647059 46.6240385,2.4995098 46.6240385,2.4995098 C46.5293269,2.21127451 46.2067308,1.9754902 45.9081731,1.9754902 L36.4884615,1.9754902 C36.1913462,1.9754902 35.9471154,2.2245098 35.9471154,2.52892157 L35.9471154,13.0196078 C35.2336538,13.0196078 34.61875,13.420098 34.2884615,14.0068627 L34.2884615,2.15294118 L37.2245192,0.634313725 L37.1793269,-0.0710784314 L6.08365385,-0.0710784314 L-0.132692308,10.2063725 L-0.132692308,13.6142157 C-0.132692308,13.9186275 0.110576923,14.1676471 0.409615385,14.1676471 L2.30288462,15.2382353 L2.30288462,17.0127451 C2.30288462,17.1348039 2.40048077,17.2343137 2.51875,17.2343137 L2.92692308,17.2343137 L2.92692308,18.7333333 C2.92692308,18.854902 3.02403846,18.9544118 3.14375,18.9544118 L4.56971154,18.9544118 L4.56971154,20.2622549 C4.56971154,20.3838235 4.66778846,20.4833333 4.78798077,20.4833333 L5.29711538,20.4833333 C5.29711538,17.8872549 7.36057692,15.7833333 9.90769231,15.7833333 C11.2283654,15.7833333 12.3985577,16.3642157 13.2302885,17.2764706 L15.0658654,17.2764706 C15.9048077,16.3627451 17.0879808,15.7833333 18.4139423,15.7833333 C20.9600962,15.7833333 23.0240385,17.8872549 23.0254808,20.4833333 L23.7850962,20.4833333 C23.9043269,20.4833333 24.0019231,20.3838235 24.0019231,20.2622549 L24.0019231,18.9544118 L25.7764423,18.9544118 L25.7764423,19.7093137 C25.7764423,20.1352941 26.1182692,20.4838235 26.5360577,20.4838235 L33.3331731,20.4838235 C33.7269231,20.4838235 34.0427885,20.1705882 34.0788462,19.7779412 C34.1413462,19.7897059 34.1995192,19.8122549 34.2653846,19.8122549 L34.6129808,19.8122549 C34.9360577,17.5367647 36.8375,15.7833333 39.1576923,15.7833333 C41.4778846,15.7833333 43.3798077,17.5367647 43.7014423,19.8122549 L47.4552885,19.8122549 C48.0509615,19.8122549 48.6764423,19.3348039 48.84375,18.75 L49.3384615,17.0166667 C49.5033654,16.4401961 49.1605769,15.970098 48.5764423,15.9593137 L48.5764423,15.9593137 Z M3.46105769,15.2382353 L7.26634615,15.2382353 L7.26634615,15.7132353 L3.46105769,15.7132353 L3.46105769,15.2382353 Z M12.4105769,15.2382353 L16.2158654,15.2382353 L16.2158654,15.7132353 L12.4105769,15.7132353 L12.4105769,15.2382353 Z M23.1730769,15.2382353 L27.1317308,15.2382353 L27.1317308,15.7132353 L23.1730769,15.7132353 L23.1730769,15.2382353 Z M39.7432692,8.97009804 L39.7432692,4.1877451 C39.7432692,3.88333333 39.9870192,3.63480392 40.2855769,3.63480392 L45.5639423,3.63480392 C45.8629808,3.63480392 46.1783654,3.87205882 46.2658654,4.16372549 C46.2658654,4.16372549 47.0322115,6.70196078 47.29375,8.97009804 L39.7432692,8.97009804 L39.7432692,8.97009804 Z" id="Fill-31" sketch:type="MSShapeGroup"></path>
        </g>
    </g>
</svg>